# MagicaVoxel @ Ephtracy

# group
g BasicRoom1

# material
mtllib BasicRoom1.mtl
usemtl palette

# normals
vn -1 0 0
vn 1 0 0
vn 0 0 1
vn 0 0 -1
vn 0 -1 0
vn 0 1 0

# texcoords
vt 0.482422 0.5
vt 0.771484 0.5
vt 0.958984 0.5
vt 0.962891 0.5
vt 0.970703 0.5
vt 0.986328 0.5

# verts
v -20 0 20
v -20 0 -20
v -20 40 20
v -20 40 -20
v -17 2 16
v -17 2 15
v -17 2 12
v -17 2 11
v -17 2 -13
v -17 2 -16
v -17 3 -13
v -17 3 -16
v -17 11 16
v -17 11 15
v -17 11 12
v -17 11 11
v -17 19 -12
v -17 19 -13
v -17 19 -16
v -17 19 -17
v -17 24 -12
v -17 24 -13
v -17 24 -16
v -17 24 -17
v -16 2 17
v -16 2 16
v -16 2 11
v -16 2 10
v -16 2 -12
v -16 2 -13
v -16 2 -16
v -16 2 -17
v -16 3 -12
v -16 3 -13
v -16 3 -16
v -16 3 -17
v -16 11 17
v -16 11 16
v -16 11 11
v -16 11 10
v -16 19 -11
v -16 19 -12
v -16 19 -17
v -16 19 -18
v -16 24 -11
v -16 24 -12
v -16 24 -17
v -16 24 -18
v -15 3 -14
v -15 3 -15
v -15 22 -14
v -15 22 -15
v -15 23 -14
v -15 23 -15
v -13 3 16
v -13 3 15
v -13 3 12
v -13 3 11
v -13 11 16
v -13 11 15
v -13 11 12
v -13 11 11
v -13 19 -12
v -13 19 -13
v -13 19 -16
v -13 19 -17
v -13 24 -12
v -13 24 -13
v -13 24 -16
v -13 24 -17
v -12 3 15
v -12 3 12
v -12 11 15
v -12 11 12
v -12 19 -13
v -12 19 -16
v -12 24 -13
v -12 24 -16
v -4 2 -10
v -4 2 -18
v -4 11 -10
v -4 11 -18
v 14 2 -10
v 14 2 -18
v 14 10 -10
v 14 10 -18
v -18 2 20
v -18 2 15
v -18 2 12
v -18 2 6
v -18 2 -6
v -18 2 -18
v -18 11 15
v -18 11 12
v -18 19 -13
v -18 19 -16
v -18 24 -13
v -18 24 -16
v -18 29 6
v -18 29 -6
v -18 40 20
v -18 40 -18
v -17 3 15
v -17 3 12
v -17 3 5
v -17 3 1
v -17 3 -1
v -17 3 -5
v -17 10 5
v -17 10 1
v -17 10 -1
v -17 10 -5
v -17 11 15
v -17 11 12
v -17 11 5
v -17 11 -5
v -17 16 5
v -17 16 -5
v -17 17 5
v -17 17 -5
v -17 19 -13
v -17 19 -16
v -17 22 5
v -17 22 -5
v -17 23 5
v -17 23 -5
v -17 24 -13
v -17 24 -16
v -17 28 5
v -17 28 -5
v -16 3 16
v -16 3 15
v -16 3 12
v -16 3 11
v -16 11 16
v -16 11 15
v -16 11 12
v -16 11 11
v -16 19 -12
v -16 19 -13
v -16 19 -16
v -16 19 -17
v -16 24 -12
v -16 24 -13
v -16 24 -16
v -16 24 -17
v -14 3 -14
v -14 3 -15
v -14 22 -14
v -14 22 -15
v -14 23 -14
v -14 23 -15
v -13 2 17
v -13 2 16
v -13 2 11
v -13 2 10
v -13 2 -12
v -13 2 -13
v -13 2 -16
v -13 2 -17
v -13 3 -12
v -13 3 -13
v -13 3 -16
v -13 3 -17
v -13 11 17
v -13 11 16
v -13 11 11
v -13 11 10
v -13 19 -11
v -13 19 -12
v -13 19 -17
v -13 19 -18
v -13 24 -11
v -13 24 -12
v -13 24 -17
v -13 24 -18
v -12 2 16
v -12 2 15
v -12 2 12
v -12 2 11
v -12 2 6
v -12 2 -6
v -12 2 -13
v -12 2 -16
v -12 3 5
v -12 3 1
v -12 3 -1
v -12 3 -5
v -12 3 -13
v -12 3 -16
v -12 10 5
v -12 10 1
v -12 10 -1
v -12 10 -5
v -12 11 16
v -12 11 15
v -12 11 12
v -12 11 11
v -12 11 5
v -12 11 -5
v -12 16 5
v -12 16 -5
v -12 17 5
v -12 17 -5
v -12 19 -12
v -12 19 -13
v -12 19 -16
v -12 19 -17
v -12 22 5
v -12 22 -5
v -12 23 5
v -12 23 -5
v -12 24 -12
v -12 24 -13
v -12 24 -16
v -12 24 -17
v -12 28 5
v -12 28 -5
v -12 29 6
v -12 29 -6
v -11 2 15
v -11 2 12
v -11 11 15
v -11 11 12
v -11 19 -13
v -11 19 -16
v -11 24 -13
v -11 24 -16
v -3 2 -10
v -3 2 -18
v -3 10 -10
v -3 10 -18
v 15 2 -10
v 15 2 -18
v 15 11 -10
v 15 11 -18
v 20 0 20
v 20 0 -20
v 20 2 20
v 20 2 -18
v 20 40 -18
v 20 40 -20
v -20 0 20
v -20 40 20
v -18 2 20
v -18 40 20
v 20 0 20
v 20 2 20
v -16 2 17
v -16 11 17
v -13 2 17
v -13 11 17
v -17 2 16
v -17 11 16
v -16 2 16
v -16 11 16
v -13 2 16
v -13 11 16
v -12 2 16
v -12 11 16
v -18 2 15
v -18 11 15
v -17 2 15
v -17 11 15
v -12 2 15
v -12 11 15
v -11 2 15
v -11 11 15
v -17 3 12
v -17 11 12
v -16 3 12
v -16 11 12
v -13 3 12
v -13 11 12
v -12 3 12
v -12 11 12
v -16 3 11
v -16 11 11
v -13 3 11
v -13 11 11
v -18 2 6
v -18 29 6
v -12 2 6
v -12 29 6
v -17 3 1
v -17 10 1
v -12 3 1
v -12 10 1
v -17 3 -5
v -17 10 -5
v -17 11 -5
v -17 16 -5
v -17 17 -5
v -17 22 -5
v -17 23 -5
v -17 28 -5
v -12 3 -5
v -12 10 -5
v -12 11 -5
v -12 16 -5
v -12 17 -5
v -12 22 -5
v -12 23 -5
v -12 28 -5
v -4 2 -10
v -4 11 -10
v -3 2 -10
v -3 10 -10
v 14 2 -10
v 14 10 -10
v 15 2 -10
v 15 11 -10
v -16 19 -11
v -16 24 -11
v -13 19 -11
v -13 24 -11
v -17 19 -12
v -17 24 -12
v -16 2 -12
v -16 3 -12
v -16 19 -12
v -16 24 -12
v -13 2 -12
v -13 3 -12
v -13 19 -12
v -13 24 -12
v -12 19 -12
v -12 24 -12
v -18 19 -13
v -18 24 -13
v -17 2 -13
v -17 3 -13
v -17 19 -13
v -17 24 -13
v -16 2 -13
v -16 3 -13
v -13 2 -13
v -13 3 -13
v -12 2 -13
v -12 3 -13
v -12 19 -13
v -12 24 -13
v -11 19 -13
v -11 24 -13
v -15 3 -14
v -15 22 -14
v -15 23 -14
v -14 3 -14
v -14 22 -14
v -14 23 -14
v -17 19 -16
v -17 24 -16
v -16 19 -16
v -16 24 -16
v -13 19 -16
v -13 24 -16
v -12 19 -16
v -12 24 -16
v -16 19 -17
v -16 24 -17
v -13 19 -17
v -13 24 -17
v -18 2 -18
v -18 40 -18
v -16 19 -18
v -16 24 -18
v -13 19 -18
v -13 24 -18
v -4 2 -18
v -4 11 -18
v -3 2 -18
v -3 10 -18
v 14 2 -18
v 14 10 -18
v 15 2 -18
v 15 11 -18
v 20 2 -18
v 20 40 -18
v -16 3 16
v -16 11 16
v -13 3 16
v -13 11 16
v -17 3 15
v -17 11 15
v -16 3 15
v -16 11 15
v -13 3 15
v -13 11 15
v -12 3 15
v -12 11 15
v -18 2 12
v -18 11 12
v -17 2 12
v -17 11 12
v -12 2 12
v -12 11 12
v -11 2 12
v -11 11 12
v -17 2 11
v -17 11 11
v -16 2 11
v -16 11 11
v -13 2 11
v -13 11 11
v -12 2 11
v -12 11 11
v -16 2 10
v -16 11 10
v -13 2 10
v -13 11 10
v -17 3 5
v -17 10 5
v -17 11 5
v -17 16 5
v -17 17 5
v -17 22 5
v -17 23 5
v -17 28 5
v -12 3 5
v -12 10 5
v -12 11 5
v -12 16 5
v -12 17 5
v -12 22 5
v -12 23 5
v -12 28 5
v -17 3 -1
v -17 10 -1
v -12 3 -1
v -12 10 -1
v -18 2 -6
v -18 29 -6
v -12 2 -6
v -12 29 -6
v -16 19 -12
v -16 24 -12
v -13 19 -12
v -13 24 -12
v -17 19 -13
v -17 24 -13
v -16 19 -13
v -16 24 -13
v -13 19 -13
v -13 24 -13
v -12 19 -13
v -12 24 -13
v -15 3 -15
v -15 22 -15
v -15 23 -15
v -14 3 -15
v -14 22 -15
v -14 23 -15
v -18 19 -16
v -18 24 -16
v -17 2 -16
v -17 3 -16
v -17 19 -16
v -17 24 -16
v -16 2 -16
v -16 3 -16
v -13 2 -16
v -13 3 -16
v -12 2 -16
v -12 3 -16
v -12 19 -16
v -12 24 -16
v -11 19 -16
v -11 24 -16
v -17 19 -17
v -17 24 -17
v -16 2 -17
v -16 3 -17
v -16 19 -17
v -16 24 -17
v -13 2 -17
v -13 3 -17
v -13 19 -17
v -13 24 -17
v -12 19 -17
v -12 24 -17
v -20 0 -20
v -20 40 -20
v 20 0 -20
v 20 40 -20
v -20 0 20
v 20 0 20
v -20 0 -20
v 20 0 -20
v -17 10 5
v -12 10 5
v -17 10 1
v -12 10 1
v -17 10 -1
v -12 10 -1
v -17 10 -5
v -12 10 -5
v -3 10 -10
v 14 10 -10
v -3 10 -18
v 14 10 -18
v -17 16 5
v -12 16 5
v -17 16 -5
v -12 16 -5
v -16 19 -11
v -13 19 -11
v -17 19 -12
v -16 19 -12
v -13 19 -12
v -12 19 -12
v -18 19 -13
v -17 19 -13
v -16 19 -13
v -13 19 -13
v -12 19 -13
v -11 19 -13
v -18 19 -16
v -17 19 -16
v -16 19 -16
v -13 19 -16
v -12 19 -16
v -11 19 -16
v -17 19 -17
v -16 19 -17
v -13 19 -17
v -12 19 -17
v -16 19 -18
v -13 19 -18
v -17 22 5
v -12 22 5
v -17 22 -5
v -12 22 -5
v -17 28 5
v -12 28 5
v -17 28 -5
v -12 28 -5
v -18 2 20
v 20 2 20
v -16 2 17
v -13 2 17
v -17 2 16
v -16 2 16
v -13 2 16
v -12 2 16
v -18 2 15
v -17 2 15
v -12 2 15
v -11 2 15
v -18 2 12
v -17 2 12
v -12 2 12
v -11 2 12
v -17 2 11
v -16 2 11
v -13 2 11
v -12 2 11
v -16 2 10
v -13 2 10
v -18 2 6
v -12 2 6
v -18 2 -6
v -12 2 -6
v -4 2 -10
v -3 2 -10
v 14 2 -10
v 15 2 -10
v -16 2 -12
v -13 2 -12
v -17 2 -13
v -16 2 -13
v -13 2 -13
v -12 2 -13
v -17 2 -16
v -16 2 -16
v -13 2 -16
v -12 2 -16
v -16 2 -17
v -13 2 -17
v -18 2 -18
v -4 2 -18
v -3 2 -18
v 14 2 -18
v 15 2 -18
v 20 2 -18
v -16 3 16
v -13 3 16
v -17 3 15
v -16 3 15
v -13 3 15
v -12 3 15
v -17 3 12
v -16 3 12
v -13 3 12
v -12 3 12
v -16 3 11
v -13 3 11
v -17 3 5
v -12 3 5
v -17 3 1
v -12 3 1
v -17 3 -1
v -12 3 -1
v -17 3 -5
v -12 3 -5
v -16 3 -12
v -13 3 -12
v -17 3 -13
v -16 3 -13
v -13 3 -13
v -12 3 -13
v -15 3 -14
v -14 3 -14
v -15 3 -15
v -14 3 -15
v -17 3 -16
v -16 3 -16
v -13 3 -16
v -12 3 -16
v -16 3 -17
v -13 3 -17
v -16 11 17
v -13 11 17
v -17 11 16
v -16 11 16
v -13 11 16
v -12 11 16
v -18 11 15
v -17 11 15
v -16 11 15
v -13 11 15
v -12 11 15
v -11 11 15
v -18 11 12
v -17 11 12
v -16 11 12
v -13 11 12
v -12 11 12
v -11 11 12
v -17 11 11
v -16 11 11
v -13 11 11
v -12 11 11
v -16 11 10
v -13 11 10
v -17 11 5
v -12 11 5
v -17 11 -5
v -12 11 -5
v -4 11 -10
v 15 11 -10
v -4 11 -18
v 15 11 -18
v -17 17 5
v -12 17 5
v -17 17 -5
v -12 17 -5
v -17 23 5
v -12 23 5
v -17 23 -5
v -12 23 -5
v -15 23 -14
v -14 23 -14
v -15 23 -15
v -14 23 -15
v -16 24 -11
v -13 24 -11
v -17 24 -12
v -16 24 -12
v -13 24 -12
v -12 24 -12
v -18 24 -13
v -17 24 -13
v -16 24 -13
v -13 24 -13
v -12 24 -13
v -11 24 -13
v -18 24 -16
v -17 24 -16
v -16 24 -16
v -13 24 -16
v -12 24 -16
v -11 24 -16
v -17 24 -17
v -16 24 -17
v -13 24 -17
v -12 24 -17
v -16 24 -18
v -13 24 -18
v -18 29 6
v -12 29 6
v -18 29 -6
v -12 29 -6
v -20 40 20
v -18 40 20
v -18 40 -18
v 20 40 -18
v -20 40 -20
v 20 40 -20

# faces
f 3/5/1 2/5/1 1/5/1
f 4/5/1 2/5/1 3/5/1
f 11/6/1 10/6/1 9/6/1
f 12/6/1 10/6/1 11/6/1
f 13/2/1 6/2/1 5/2/1
f 14/2/1 6/2/1 13/2/1
f 15/2/1 8/2/1 7/2/1
f 16/2/1 8/2/1 15/2/1
f 21/4/1 18/4/1 17/4/1
f 22/4/1 18/4/1 21/4/1
f 23/4/1 20/4/1 19/4/1
f 24/4/1 20/4/1 23/4/1
f 33/6/1 30/6/1 29/6/1
f 34/6/1 30/6/1 33/6/1
f 35/6/1 32/6/1 31/6/1
f 36/6/1 32/6/1 35/6/1
f 37/2/1 26/2/1 25/2/1
f 38/2/1 26/2/1 37/2/1
f 39/2/1 28/2/1 27/2/1
f 40/2/1 28/2/1 39/2/1
f 45/4/1 42/4/1 41/4/1
f 46/4/1 42/4/1 45/4/1
f 47/4/1 44/4/1 43/4/1
f 48/4/1 44/4/1 47/4/1
f 51/6/1 50/6/1 49/6/1
f 52/6/1 50/6/1 51/6/1
f 53/1/1 52/1/1 51/1/1
f 54/1/1 52/1/1 53/1/1
f 59/2/1 56/2/1 55/2/1
f 60/2/1 56/2/1 59/2/1
f 61/2/1 58/2/1 57/2/1
f 62/2/1 58/2/1 61/2/1
f 67/4/1 64/4/1 63/4/1
f 68/4/1 64/4/1 67/4/1
f 69/4/1 66/4/1 65/4/1
f 70/4/1 66/4/1 69/4/1
f 73/2/1 72/2/1 71/2/1
f 74/2/1 72/2/1 73/2/1
f 77/4/1 76/4/1 75/4/1
f 78/4/1 76/4/1 77/4/1
f 81/6/1 80/6/1 79/6/1
f 82/6/1 80/6/1 81/6/1
f 85/6/1 84/6/1 83/6/1
f 86/6/1 84/6/1 85/6/1
f 87/5/2 88/5/2 93/5/2
f 89/5/2 90/5/2 94/5/2
f 91/5/2 92/5/2 95/5/2
f 95/5/2 92/5/2 96/5/2
f 91/5/2 95/5/2 97/5/2
f 96/5/2 92/5/2 98/5/2
f 93/5/2 94/5/2 99/5/2
f 94/5/2 90/5/2 99/5/2
f 97/5/2 98/5/2 100/5/2
f 91/5/2 97/5/2 100/5/2
f 93/5/2 99/5/2 101/5/2
f 99/5/2 100/5/2 101/5/2
f 87/5/2 93/5/2 101/5/2
f 100/5/2 98/5/2 102/5/2
f 101/5/2 100/5/2 102/5/2
f 98/5/2 92/5/2 102/5/2
f 105/3/2 106/3/2 109/3/2
f 109/3/2 106/3/2 110/3/2
f 107/3/2 108/3/2 111/3/2
f 111/3/2 108/3/2 112/3/2
f 103/2/2 104/2/2 113/2/2
f 113/2/2 104/2/2 114/2/2
f 115/3/2 116/3/2 117/3/2
f 117/3/2 116/3/2 118/3/2
f 119/3/2 120/3/2 123/3/2
f 123/3/2 120/3/2 124/3/2
f 121/4/2 122/4/2 127/4/2
f 127/4/2 122/4/2 128/4/2
f 125/3/2 126/3/2 129/3/2
f 129/3/2 126/3/2 130/3/2
f 131/2/2 132/2/2 135/2/2
f 135/2/2 132/2/2 136/2/2
f 133/2/2 134/2/2 137/2/2
f 137/2/2 134/2/2 138/2/2
f 139/4/2 140/4/2 143/4/2
f 143/4/2 140/4/2 144/4/2
f 141/4/2 142/4/2 145/4/2
f 145/4/2 142/4/2 146/4/2
f 147/6/2 148/6/2 149/6/2
f 149/6/2 148/6/2 150/6/2
f 149/1/2 150/1/2 151/1/2
f 151/1/2 150/1/2 152/1/2
f 157/6/2 158/6/2 161/6/2
f 161/6/2 158/6/2 162/6/2
f 159/6/2 160/6/2 163/6/2
f 163/6/2 160/6/2 164/6/2
f 153/2/2 154/2/2 165/2/2
f 165/2/2 154/2/2 166/2/2
f 155/2/2 156/2/2 167/2/2
f 167/2/2 156/2/2 168/2/2
f 169/4/2 170/4/2 173/4/2
f 173/4/2 170/4/2 174/4/2
f 171/4/2 172/4/2 175/4/2
f 175/4/2 172/4/2 176/4/2
f 181/3/2 182/3/2 185/3/2
f 185/3/2 182/3/2 186/3/2
f 186/3/2 182/3/2 187/3/2
f 187/3/2 182/3/2 188/3/2
f 183/6/2 184/6/2 189/6/2
f 189/6/2 184/6/2 190/6/2
f 181/3/2 185/3/2 191/3/2
f 186/3/2 187/3/2 192/3/2
f 192/3/2 187/3/2 193/3/2
f 188/3/2 182/3/2 194/3/2
f 177/2/2 178/2/2 195/2/2
f 195/2/2 178/2/2 196/2/2
f 179/2/2 180/2/2 197/2/2
f 197/2/2 180/2/2 198/2/2
f 193/3/2 194/3/2 199/3/2
f 192/3/2 193/3/2 199/3/2
f 181/3/2 191/3/2 199/3/2
f 191/3/2 192/3/2 199/3/2
f 194/3/2 182/3/2 200/3/2
f 199/3/2 194/3/2 200/3/2
f 181/3/2 199/3/2 201/3/2
f 200/3/2 182/3/2 202/3/2
f 181/3/2 201/3/2 203/3/2
f 201/3/2 202/3/2 203/3/2
f 202/3/2 182/3/2 204/3/2
f 203/3/2 202/3/2 204/3/2
f 181/3/2 203/3/2 209/3/2
f 204/3/2 182/3/2 210/3/2
f 181/3/2 209/3/2 211/3/2
f 209/3/2 210/3/2 211/3/2
f 210/3/2 182/3/2 212/3/2
f 211/3/2 210/3/2 212/3/2
f 205/4/2 206/4/2 213/4/2
f 213/4/2 206/4/2 214/4/2
f 207/4/2 208/4/2 215/4/2
f 215/4/2 208/4/2 216/4/2
f 181/3/2 211/3/2 217/3/2
f 212/3/2 182/3/2 218/3/2
f 181/3/2 217/3/2 219/3/2
f 217/3/2 218/3/2 219/3/2
f 218/3/2 182/3/2 220/3/2
f 219/3/2 218/3/2 220/3/2
f 221/2/2 222/2/2 223/2/2
f 223/2/2 222/2/2 224/2/2
f 225/4/2 226/4/2 227/4/2
f 227/4/2 226/4/2 228/4/2
f 229/6/2 230/6/2 231/6/2
f 231/6/2 230/6/2 232/6/2
f 233/6/2 234/6/2 235/6/2
f 235/6/2 234/6/2 236/6/2
f 237/5/2 238/5/2 239/5/2
f 239/5/2 238/5/2 240/5/2
f 240/5/2 238/5/2 241/5/2
f 241/5/2 238/5/2 242/5/2
f 245/5/3 244/5/3 243/5/3
f 246/5/3 244/5/3 245/5/3
f 247/5/3 245/5/3 243/5/3
f 248/5/3 245/5/3 247/5/3
f 251/2/3 250/2/3 249/2/3
f 252/2/3 250/2/3 251/2/3
f 255/2/3 254/2/3 253/2/3
f 256/2/3 254/2/3 255/2/3
f 259/2/3 258/2/3 257/2/3
f 260/2/3 258/2/3 259/2/3
f 263/2/3 262/2/3 261/2/3
f 264/2/3 262/2/3 263/2/3
f 267/2/3 266/2/3 265/2/3
f 268/2/3 266/2/3 267/2/3
f 271/2/3 270/2/3 269/2/3
f 272/2/3 270/2/3 271/2/3
f 275/2/3 274/2/3 273/2/3
f 276/2/3 274/2/3 275/2/3
f 279/2/3 278/2/3 277/2/3
f 280/2/3 278/2/3 279/2/3
f 283/3/3 282/3/3 281/3/3
f 284/3/3 282/3/3 283/3/3
f 287/3/3 286/3/3 285/3/3
f 288/3/3 286/3/3 287/3/3
f 297/3/3 290/3/3 289/3/3
f 298/3/3 290/3/3 297/3/3
f 299/3/3 292/3/3 291/3/3
f 300/3/3 292/3/3 299/3/3
f 301/3/3 294/3/3 293/3/3
f 302/3/3 294/3/3 301/3/3
f 303/3/3 296/3/3 295/3/3
f 304/3/3 296/3/3 303/3/3
f 307/6/3 306/6/3 305/6/3
f 308/6/3 306/6/3 307/6/3
f 310/6/3 306/6/3 308/6/3
f 311/6/3 310/6/3 309/6/3
f 312/6/3 306/6/3 310/6/3
f 312/6/3 310/6/3 311/6/3
f 315/4/3 314/4/3 313/4/3
f 316/4/3 314/4/3 315/4/3
f 321/4/3 318/4/3 317/4/3
f 322/4/3 318/4/3 321/4/3
f 323/6/3 320/6/3 319/6/3
f 324/6/3 320/6/3 323/6/3
f 327/4/3 326/4/3 325/4/3
f 328/4/3 326/4/3 327/4/3
f 333/4/3 330/4/3 329/4/3
f 334/4/3 330/4/3 333/4/3
f 335/6/3 332/6/3 331/6/3
f 336/6/3 332/6/3 335/6/3
f 339/6/3 338/6/3 337/6/3
f 340/6/3 338/6/3 339/6/3
f 343/4/3 342/4/3 341/4/3
f 344/4/3 342/4/3 343/4/3
f 348/6/3 346/6/3 345/6/3
f 349/1/3 347/1/3 346/1/3
f 349/6/3 346/6/3 348/6/3
f 350/1/3 347/1/3 349/1/3
f 353/4/3 352/4/3 351/4/3
f 354/4/3 352/4/3 353/4/3
f 357/4/3 356/4/3 355/4/3
f 358/4/3 356/4/3 357/4/3
f 361/4/3 360/4/3 359/4/3
f 362/4/3 360/4/3 361/4/3
f 365/5/3 364/5/3 363/5/3
f 366/5/3 364/5/3 365/5/3
f 367/5/3 365/5/3 363/5/3
f 368/5/3 364/5/3 366/5/3
f 369/5/3 367/5/3 363/5/3
f 369/5/3 368/5/3 367/5/3
f 370/5/3 368/5/3 369/5/3
f 373/5/3 372/5/3 371/5/3
f 374/5/3 372/5/3 373/5/3
f 376/5/3 368/5/3 370/5/3
f 377/5/3 376/5/3 375/5/3
f 378/5/3 364/5/3 368/5/3
f 378/5/3 376/5/3 377/5/3
f 378/5/3 368/5/3 376/5/3
f 379/2/4 380/2/4 381/2/4
f 381/2/4 380/2/4 382/2/4
f 383/2/4 384/2/4 385/2/4
f 385/2/4 384/2/4 386/2/4
f 387/2/4 388/2/4 389/2/4
f 389/2/4 388/2/4 390/2/4
f 391/2/4 392/2/4 393/2/4
f 393/2/4 392/2/4 394/2/4
f 395/2/4 396/2/4 397/2/4
f 397/2/4 396/2/4 398/2/4
f 399/2/4 400/2/4 401/2/4
f 401/2/4 400/2/4 402/2/4
f 403/2/4 404/2/4 405/2/4
f 405/2/4 404/2/4 406/2/4
f 407/2/4 408/2/4 409/2/4
f 409/2/4 408/2/4 410/2/4
f 411/3/4 412/3/4 419/3/4
f 419/3/4 412/3/4 420/3/4
f 413/3/4 414/3/4 421/3/4
f 421/3/4 414/3/4 422/3/4
f 415/3/4 416/3/4 423/3/4
f 423/3/4 416/3/4 424/3/4
f 417/3/4 418/3/4 425/3/4
f 425/3/4 418/3/4 426/3/4
f 427/3/4 428/3/4 429/3/4
f 429/3/4 428/3/4 430/3/4
f 431/3/4 432/3/4 433/3/4
f 433/3/4 432/3/4 434/3/4
f 435/4/4 436/4/4 437/4/4
f 437/4/4 436/4/4 438/4/4
f 439/4/4 440/4/4 441/4/4
f 441/4/4 440/4/4 442/4/4
f 443/4/4 444/4/4 445/4/4
f 445/4/4 444/4/4 446/4/4
f 447/6/4 448/6/4 450/6/4
f 448/1/4 449/1/4 451/1/4
f 450/6/4 448/6/4 451/6/4
f 451/1/4 449/1/4 452/1/4
f 453/4/4 454/4/4 457/4/4
f 457/4/4 454/4/4 458/4/4
f 455/6/4 456/6/4 459/6/4
f 459/6/4 456/6/4 460/6/4
f 461/6/4 462/6/4 463/6/4
f 463/6/4 462/6/4 464/6/4
f 465/4/4 466/4/4 467/4/4
f 467/4/4 466/4/4 468/4/4
f 469/4/4 470/4/4 473/4/4
f 473/4/4 470/4/4 474/4/4
f 471/6/4 472/6/4 475/6/4
f 475/6/4 472/6/4 476/6/4
f 477/4/4 478/4/4 479/4/4
f 479/4/4 478/4/4 480/4/4
f 481/5/4 482/5/4 483/5/4
f 483/5/4 482/5/4 484/5/4
f 487/5/5 486/5/5 485/5/5
f 488/5/5 486/5/5 487/5/5
f 491/3/5 490/3/5 489/3/5
f 492/3/5 490/3/5 491/3/5
f 495/3/5 494/3/5 493/3/5
f 496/3/5 494/3/5 495/3/5
f 499/6/5 498/6/5 497/6/5
f 500/6/5 498/6/5 499/6/5
f 503/3/5 502/3/5 501/3/5
f 504/3/5 502/3/5 503/3/5
f 508/4/5 506/4/5 505/4/5
f 509/4/5 506/4/5 508/4/5
f 512/4/5 508/4/5 507/4/5
f 513/4/5 508/4/5 512/4/5
f 514/4/5 510/4/5 509/4/5
f 515/4/5 510/4/5 514/4/5
f 517/4/5 512/4/5 511/4/5
f 518/4/5 512/4/5 517/4/5
f 521/4/5 516/4/5 515/4/5
f 522/4/5 516/4/5 521/4/5
f 523/4/5 519/4/5 518/4/5
f 524/4/5 519/4/5 523/4/5
f 525/4/5 521/4/5 520/4/5
f 526/4/5 521/4/5 525/4/5
f 527/4/5 525/4/5 524/4/5
f 528/4/5 525/4/5 527/4/5
f 531/3/5 530/3/5 529/3/5
f 532/3/5 530/3/5 531/3/5
f 535/3/5 534/3/5 533/3/5
f 536/3/5 534/3/5 535/3/5
f 537/5/6 538/5/6 539/5/6
f 539/5/6 538/5/6 540/5/6
f 537/5/6 539/5/6 541/5/6
f 541/5/6 539/5/6 542/5/6
f 540/5/6 538/5/6 543/5/6
f 543/5/6 538/5/6 544/5/6
f 537/5/6 541/5/6 545/5/6
f 545/5/6 541/5/6 546/5/6
f 544/5/6 538/5/6 547/5/6
f 547/5/6 538/5/6 548/5/6
f 548/5/6 538/5/6 552/5/6
f 549/5/6 550/5/6 553/5/6
f 551/5/6 552/5/6 556/5/6
f 553/5/6 554/5/6 557/5/6
f 555/5/6 556/5/6 558/5/6
f 553/5/6 557/5/6 559/5/6
f 557/5/6 558/5/6 559/5/6
f 549/5/6 553/5/6 559/5/6
f 558/5/6 556/5/6 560/5/6
f 559/5/6 558/5/6 560/5/6
f 556/5/6 552/5/6 560/5/6
f 560/5/6 552/5/6 562/5/6
f 552/5/6 538/5/6 563/5/6
f 561/5/6 562/5/6 563/5/6
f 562/5/6 552/5/6 563/5/6
f 563/5/6 538/5/6 564/5/6
f 564/5/6 538/5/6 565/5/6
f 565/5/6 538/5/6 566/5/6
f 561/5/6 563/5/6 567/5/6
f 567/5/6 563/5/6 568/5/6
f 561/5/6 567/5/6 569/5/6
f 569/5/6 567/5/6 570/5/6
f 568/5/6 563/5/6 571/5/6
f 571/5/6 563/5/6 572/5/6
f 561/5/6 569/5/6 573/5/6
f 572/5/6 563/5/6 576/5/6
f 573/5/6 574/5/6 577/5/6
f 575/5/6 576/5/6 578/5/6
f 573/5/6 577/5/6 579/5/6
f 577/5/6 578/5/6 579/5/6
f 561/5/6 573/5/6 579/5/6
f 578/5/6 576/5/6 580/5/6
f 579/5/6 578/5/6 580/5/6
f 576/5/6 563/5/6 580/5/6
f 564/5/6 565/5/6 581/5/6
f 581/5/6 565/5/6 582/5/6
f 566/5/6 538/5/6 583/5/6
f 583/5/6 538/5/6 584/5/6
f 585/2/6 586/2/6 588/2/6
f 588/2/6 586/2/6 589/2/6
f 587/2/6 588/2/6 591/2/6
f 589/2/6 590/2/6 591/2/6
f 588/2/6 589/2/6 591/2/6
f 591/2/6 590/2/6 592/2/6
f 592/2/6 590/2/6 593/2/6
f 593/2/6 590/2/6 594/2/6
f 592/2/6 593/2/6 595/2/6
f 595/2/6 593/2/6 596/2/6
f 597/3/6 598/3/6 599/3/6
f 599/3/6 598/3/6 600/3/6
f 601/3/6 602/3/6 603/3/6
f 603/3/6 602/3/6 604/3/6
f 605/6/6 606/6/6 608/6/6
f 608/6/6 606/6/6 609/6/6
f 607/6/6 608/6/6 611/6/6
f 609/6/6 610/6/6 611/6/6
f 608/6/6 609/6/6 611/6/6
f 611/6/6 610/6/6 612/6/6
f 607/6/6 611/6/6 613/6/6
f 612/6/6 610/6/6 614/6/6
f 607/6/6 613/6/6 615/6/6
f 613/6/6 614/6/6 615/6/6
f 615/6/6 614/6/6 616/6/6
f 614/6/6 610/6/6 617/6/6
f 616/6/6 614/6/6 617/6/6
f 617/6/6 610/6/6 618/6/6
f 616/6/6 617/6/6 619/6/6
f 619/6/6 617/6/6 620/6/6
f 621/2/6 622/2/6 624/2/6
f 624/2/6 622/2/6 625/2/6
f 623/2/6 624/2/6 628/2/6
f 628/2/6 624/2/6 629/2/6
f 625/2/6 626/2/6 630/2/6
f 630/2/6 626/2/6 631/2/6
f 627/2/6 628/2/6 633/2/6
f 633/2/6 628/2/6 634/2/6
f 631/2/6 632/2/6 637/2/6
f 637/2/6 632/2/6 638/2/6
f 634/2/6 635/2/6 639/2/6
f 639/2/6 635/2/6 640/2/6
f 636/2/6 637/2/6 641/2/6
f 641/2/6 637/2/6 642/2/6
f 640/2/6 641/2/6 643/2/6
f 643/2/6 641/2/6 644/2/6
f 645/3/6 646/3/6 647/3/6
f 647/3/6 646/3/6 648/3/6
f 649/6/6 650/6/6 651/6/6
f 651/6/6 650/6/6 652/6/6
f 653/3/6 654/3/6 655/3/6
f 655/3/6 654/3/6 656/3/6
f 657/3/6 658/3/6 659/3/6
f 659/3/6 658/3/6 660/3/6
f 661/1/6 662/1/6 663/1/6
f 663/1/6 662/1/6 664/1/6
f 665/4/6 666/4/6 668/4/6
f 668/4/6 666/4/6 669/4/6
f 667/4/6 668/4/6 672/4/6
f 672/4/6 668/4/6 673/4/6
f 669/4/6 670/4/6 674/4/6
f 674/4/6 670/4/6 675/4/6
f 671/4/6 672/4/6 677/4/6
f 677/4/6 672/4/6 678/4/6
f 675/4/6 676/4/6 681/4/6
f 681/4/6 676/4/6 682/4/6
f 678/4/6 679/4/6 683/4/6
f 683/4/6 679/4/6 684/4/6
f 680/4/6 681/4/6 685/4/6
f 685/4/6 681/4/6 686/4/6
f 684/4/6 685/4/6 687/4/6
f 687/4/6 685/4/6 688/4/6
f 689/3/6 690/3/6 691/3/6
f 691/3/6 690/3/6 692/3/6
f 693/5/6 694/5/6 695/5/6
f 693/5/6 695/5/6 697/5/6
f 695/5/6 696/5/6 697/5/6
f 697/5/6 696/5/6 698/5/6
