# MagicaVoxel @ Ephtracy

# group
g TonyWalk2

# material
mtllib TonyWalk2.mtl
usemtl palette

# normals
vn -1 0 0
vn 1 0 0
vn 0 0 1
vn 0 0 -1
vn 0 -1 0
vn 0 1 0

# texcoords
vt 0.146484 0.5
vt 0.306641 0.5
vt 0.310547 0.5
vt 0.314453 0.5
vt 0.759766 0.5
vt 0.775391 0.5
vt 0.798828 0.5
vt 0.931641 0.5
vt 0.939453 0.5
vt 0.994141 0.5

# verts
v -8 23 19
v -8 23 16
v -8 25 19
v -8 25 18
v -8 25 17
v -8 25 16
v -8 26 19
v -8 26 18
v -8 26 17
v -8 26 16
v -8 38 19
v -8 38 16
v -7 26 16
v -7 26 15
v -7 38 18
v -7 38 16
v -7 39 18
v -7 39 15
v -7 43 16
v -7 43 14
v -7 44 17
v -7 44 16
v -7 46 17
v -7 46 14
v -6 4 17
v -6 4 14
v -6 5 17
v -6 5 16
v -6 6 17
v -6 6 16
v -6 6 14
v -6 23 17
v -6 23 16
v -6 23 15
v -6 23 14
v -6 25 18
v -6 25 17
v -6 25 16
v -6 26 18
v -6 26 17
v -6 26 15
v -6 41 18
v -6 41 14
v -6 43 16
v -6 43 14
v -6 43 13
v -6 44 18
v -6 44 17
v -6 44 16
v -6 46 17
v -6 46 14
v -6 46 13
v -6 47 18
v -6 47 14
v -5 39 17
v -5 39 16
v -5 40 17
v -5 40 16
v -5 41 19
v -5 41 18
v -5 42 14
v -5 42 13
v -5 43 19
v -5 43 18
v -5 43 14
v -5 43 13
v -5 44 19
v -5 44 18
v -5 45 20
v -5 45 19
v -5 45 18
v -5 46 20
v -5 46 19
v -5 47 19
v -5 47 18
v -4 28 19
v -4 28 18
v -4 39 19
v -4 39 18
v -4 39 17
v -4 39 16
v -4 39 15
v -4 40 18
v -4 40 17
v -4 40 16
v -4 40 15
v -4 41 17
v -4 41 16
v -4 44 20
v -4 44 19
v -4 45 20
v -4 45 19
v -3 4 19
v -3 4 16
v -3 5 19
v -3 5 18
v -3 6 19
v -3 6 18
v -3 6 16
v -3 23 19
v -3 23 18
v -3 23 16
v -1 23 15
v -1 23 14
v -1 25 15
v -1 25 14
v 0 25 16
v 0 25 15
v 0 26 16
v 0 26 15
v 0 26 14
v 0 38 15
v 0 38 14
v -7 25 18
v -7 25 17
v -7 26 19
v -7 26 18
v -7 26 17
v -7 36 18
v -7 38 19
v -7 38 18
v -6 23 19
v -6 23 18
v -6 25 19
v -6 25 18
v -4 4 17
v -4 4 14
v -4 5 17
v -4 5 16
v -4 6 17
v -4 6 16
v -4 6 14
v -4 23 17
v -4 23 15
v -4 23 14
v -3 28 19
v -3 28 18
v -3 39 19
v -3 39 18
v -3 39 17
v -3 39 16
v -3 39 15
v -3 40 18
v -3 40 17
v -3 40 16
v -3 40 15
v -3 41 17
v -3 41 16
v -3 44 20
v -3 44 19
v -3 45 20
v -3 45 19
v -2 39 17
v -2 39 16
v -2 40 17
v -2 40 16
v -2 41 19
v -2 41 18
v -2 42 14
v -2 42 13
v -2 43 19
v -2 43 18
v -2 43 14
v -2 43 13
v -2 44 19
v -2 44 18
v -2 45 20
v -2 45 19
v -2 45 18
v -2 46 20
v -2 46 19
v -2 47 19
v -2 47 18
v -1 4 19
v -1 4 16
v -1 5 19
v -1 5 18
v -1 6 19
v -1 6 18
v -1 6 16
v -1 23 19
v -1 23 18
v -1 23 17
v -1 23 16
v -1 25 17
v -1 25 15
v -1 26 18
v -1 26 17
v -1 26 15
v -1 41 18
v -1 41 14
v -1 43 16
v -1 43 14
v -1 43 13
v -1 44 18
v -1 44 17
v -1 44 16
v -1 46 17
v -1 46 14
v -1 46 13
v -1 47 18
v -1 47 14
v 0 26 18
v 0 26 17
v 0 36 18
v 0 36 17
v 0 38 17
v 0 38 15
v 0 39 18
v 0 39 15
v 0 43 16
v 0 43 14
v 0 44 17
v 0 44 16
v 0 46 17
v 0 46 14
v 1 23 17
v 1 23 14
v 1 25 17
v 1 25 16
v 1 25 15
v 1 25 14
v 1 26 17
v 1 26 16
v 1 26 15
v 1 26 14
v 1 38 17
v 1 38 14
v -5 45 20
v -5 46 20
v -4 44 20
v -4 45 20
v -3 44 20
v -3 45 20
v -2 45 20
v -2 46 20
v -8 23 19
v -8 25 19
v -8 26 19
v -8 38 19
v -7 26 19
v -7 38 19
v -6 23 19
v -6 25 19
v -5 41 19
v -5 43 19
v -5 44 19
v -5 45 19
v -5 46 19
v -5 47 19
v -4 28 19
v -4 39 19
v -4 43 19
v -4 44 19
v -4 45 19
v -3 4 19
v -3 5 19
v -3 6 19
v -3 23 19
v -3 28 19
v -3 39 19
v -3 43 19
v -3 44 19
v -3 45 19
v -2 6 19
v -2 23 19
v -2 41 19
v -2 43 19
v -2 44 19
v -2 45 19
v -2 46 19
v -2 47 19
v -1 4 19
v -1 5 19
v -1 6 19
v -1 23 19
v -8 25 18
v -8 26 18
v -7 25 18
v -7 26 18
v -7 36 18
v -7 38 18
v -7 39 18
v -6 23 18
v -6 25 18
v -6 26 18
v -6 27 18
v -6 36 18
v -6 41 18
v -6 44 18
v -6 47 18
v -5 23 18
v -5 26 18
v -5 41 18
v -5 43 18
v -5 44 18
v -5 45 18
v -5 47 18
v -4 28 18
v -4 39 18
v -4 40 18
v -3 5 18
v -3 6 18
v -3 23 18
v -3 28 18
v -3 39 18
v -3 40 18
v -2 6 18
v -2 23 18
v -2 41 18
v -2 43 18
v -2 44 18
v -2 45 18
v -2 47 18
v -1 5 18
v -1 6 18
v -1 23 18
v -1 26 18
v -1 27 18
v -1 36 18
v -1 41 18
v -1 44 18
v -1 47 18
v 0 26 18
v 0 36 18
v 0 39 18
v -7 44 17
v -7 46 17
v -6 4 17
v -6 5 17
v -6 6 17
v -6 23 17
v -6 44 17
v -6 46 17
v -5 6 17
v -5 23 17
v -5 39 17
v -5 40 17
v -4 4 17
v -4 5 17
v -4 6 17
v -4 23 17
v -4 39 17
v -4 40 17
v -4 41 17
v -3 39 17
v -3 40 17
v -3 41 17
v -2 39 17
v -2 40 17
v -1 23 17
v -1 25 17
v -1 44 17
v -1 46 17
v 0 26 17
v 0 36 17
v 0 38 17
v 0 44 17
v 0 46 17
v 1 23 17
v 1 25 17
v 1 26 17
v 1 38 17
v -7 43 16
v -7 44 16
v -6 5 16
v -6 6 16
v -6 43 16
v -6 44 16
v -5 6 16
v -4 5 16
v -4 6 16
v -1 43 16
v -1 44 16
v 0 25 16
v 0 26 16
v 0 43 16
v 0 44 16
v 1 25 16
v 1 26 16
v -8 25 17
v -8 26 17
v -7 25 17
v -7 26 17
v -8 23 16
v -8 25 16
v -8 26 16
v -8 38 16
v -7 26 16
v -7 38 16
v -6 23 16
v -6 25 16
v -5 39 16
v -5 40 16
v -4 39 16
v -4 40 16
v -4 41 16
v -3 4 16
v -3 6 16
v -3 23 16
v -3 39 16
v -3 40 16
v -3 41 16
v -2 39 16
v -2 40 16
v -1 4 16
v -1 6 16
v -1 23 16
v -7 26 15
v -7 39 15
v -6 23 15
v -6 26 15
v -4 23 15
v -4 39 15
v -4 40 15
v -3 39 15
v -3 40 15
v -1 23 15
v -1 25 15
v -1 26 15
v 0 25 15
v 0 26 15
v 0 38 15
v 0 39 15
v 1 25 15
v 1 26 15
v -7 43 14
v -7 46 14
v -6 4 14
v -6 6 14
v -6 23 14
v -6 41 14
v -6 43 14
v -6 46 14
v -6 47 14
v -5 42 14
v -5 43 14
v -4 4 14
v -4 6 14
v -4 23 14
v -2 42 14
v -2 43 14
v -1 23 14
v -1 25 14
v -1 41 14
v -1 43 14
v -1 46 14
v -1 47 14
v 0 26 14
v 0 38 14
v 0 43 14
v 0 46 14
v 1 23 14
v 1 25 14
v 1 26 14
v 1 38 14
v -6 43 13
v -6 46 13
v -5 42 13
v -5 43 13
v -2 42 13
v -2 43 13
v -1 43 13
v -1 46 13
v -3 4 19
v -1 4 19
v -6 4 17
v -4 4 17
v -3 4 16
v -1 4 16
v -6 4 14
v -4 4 14
v -3 6 19
v -2 6 19
v -1 6 19
v -3 6 18
v -2 6 18
v -1 6 18
v -6 6 17
v -5 6 17
v -4 6 17
v -6 6 16
v -5 6 16
v -4 6 16
v -8 23 19
v -6 23 19
v -6 23 18
v -5 23 18
v -3 23 18
v -6 23 17
v -5 23 17
v -4 23 17
v -1 23 17
v 1 23 17
v -8 23 16
v -6 23 16
v -3 23 16
v -1 23 16
v -4 23 15
v -1 23 15
v -1 23 14
v 1 23 14
v -8 26 19
v -7 26 19
v -8 26 18
v -7 26 18
v -6 26 18
v -1 26 18
v 0 26 18
v -8 26 17
v -7 26 17
v -6 26 17
v -1 26 17
v 0 26 17
v 1 26 17
v -8 26 16
v -7 26 16
v 0 26 16
v 1 26 16
v -7 26 15
v -6 26 15
v -1 26 15
v 0 26 15
v 1 26 15
v 0 26 14
v 1 26 14
v -4 28 19
v -3 28 19
v -4 28 18
v -3 28 18
v -5 41 19
v -2 41 19
v -6 41 18
v -5 41 18
v -2 41 18
v -1 41 18
v -4 41 17
v -3 41 17
v -4 41 16
v -3 41 16
v -6 41 14
v -1 41 14
v -5 42 14
v -2 42 14
v -5 42 13
v -2 42 13
v -7 43 16
v -6 43 16
v -1 43 16
v 0 43 16
v -7 43 14
v -6 43 14
v -5 43 14
v -2 43 14
v -1 43 14
v 0 43 14
v -6 43 13
v -5 43 13
v -2 43 13
v -1 43 13
v -4 44 20
v -3 44 20
v -4 44 19
v -3 44 19
v -7 44 17
v -6 44 17
v -1 44 17
v 0 44 17
v -7 44 16
v -6 44 16
v -1 44 16
v 0 44 16
v -5 45 20
v -4 45 20
v -3 45 20
v -2 45 20
v -5 45 19
v -4 45 19
v -3 45 19
v -2 45 19
v -3 5 19
v -1 5 19
v -3 5 18
v -1 5 18
v -6 5 17
v -4 5 17
v -6 5 16
v -4 5 16
v -3 23 19
v -2 23 19
v -1 23 19
v -3 23 18
v -2 23 18
v -1 23 18
v -6 23 15
v -4 23 15
v -6 23 14
v -4 23 14
v -8 25 19
v -6 25 19
v -8 25 18
v -7 25 18
v -6 25 18
v -8 25 17
v -7 25 17
v -6 25 17
v -1 25 17
v 1 25 17
v -8 25 16
v -6 25 16
v 0 25 16
v 1 25 16
v -1 25 15
v 0 25 15
v 1 25 15
v -1 25 14
v 1 25 14
v -8 38 19
v -7 38 19
v -7 38 18
v 0 38 17
v 1 38 17
v -8 38 16
v -7 38 16
v 0 38 15
v 0 38 14
v 1 38 14
v -4 39 19
v -3 39 19
v -7 39 18
v -4 39 18
v -3 39 18
v 0 39 18
v -5 39 17
v -4 39 17
v -3 39 17
v -2 39 17
v -5 39 16
v -4 39 16
v -3 39 16
v -2 39 16
v -7 39 15
v -4 39 15
v -3 39 15
v 0 39 15
v -4 40 18
v -3 40 18
v -5 40 17
v -4 40 17
v -3 40 17
v -2 40 17
v -5 40 16
v -4 40 16
v -3 40 16
v -2 40 16
v -4 40 15
v -3 40 15
v -5 46 20
v -2 46 20
v -5 46 19
v -2 46 19
v -7 46 17
v -6 46 17
v -1 46 17
v 0 46 17
v -7 46 14
v -6 46 14
v -1 46 14
v 0 46 14
v -6 46 13
v -1 46 13
v -5 47 19
v -2 47 19
v -6 47 18
v -5 47 18
v -2 47 18
v -1 47 18
v -6 47 14
v -1 47 14

# faces
f 3/4/1 2/4/1 1/4/1
f 4/4/1 2/4/1 3/4/1
f 5/4/1 2/4/1 4/4/1
f 6/4/1 2/4/1 5/4/1
f 8/4/1 5/4/1 4/4/1
f 9/4/1 5/4/1 8/4/1
f 11/6/1 8/6/1 7/6/1
f 11/6/1 10/6/1 9/6/1
f 11/6/1 9/6/1 8/6/1
f 12/6/1 10/6/1 11/6/1
f 16/6/1 14/6/1 13/6/1
f 17/6/1 16/6/1 15/6/1
f 18/6/1 14/6/1 16/6/1
f 18/6/1 16/6/1 17/6/1
f 22/3/1 20/3/1 19/3/1
f 23/3/1 22/3/1 21/3/1
f 24/3/1 20/3/1 22/3/1
f 24/3/1 22/3/1 23/3/1
f 27/10/1 26/10/1 25/10/1
f 28/10/1 26/10/1 27/10/1
f 30/10/1 26/10/1 28/10/1
f 31/10/1 26/10/1 30/10/1
f 32/8/1 30/8/1 29/8/1
f 33/9/1 31/9/1 30/9/1
f 33/8/1 30/8/1 32/8/1
f 34/9/1 31/9/1 33/9/1
f 35/9/1 31/9/1 34/9/1
f 38/9/1 34/9/1 33/9/1
f 39/8/1 37/8/1 36/8/1
f 40/9/1 38/9/1 37/9/1
f 40/8/1 37/8/1 39/8/1
f 41/9/1 34/9/1 38/9/1
f 41/9/1 38/9/1 40/9/1
f 44/4/1 43/4/1 42/4/1
f 45/4/1 43/4/1 44/4/1
f 47/4/1 44/4/1 42/4/1
f 48/4/1 44/4/1 47/4/1
f 49/4/1 44/4/1 48/4/1
f 50/3/1 48/3/1 47/3/1
f 51/3/1 46/3/1 45/3/1
f 52/3/1 46/3/1 51/3/1
f 53/3/1 50/3/1 47/3/1
f 53/3/1 51/3/1 50/3/1
f 54/3/1 51/3/1 53/3/1
f 57/6/1 56/6/1 55/6/1
f 58/6/1 56/6/1 57/6/1
f 63/4/1 60/4/1 59/4/1
f 64/4/1 60/4/1 63/4/1
f 65/3/1 62/3/1 61/3/1
f 66/3/1 62/3/1 65/3/1
f 67/10/1 64/10/1 63/10/1
f 68/10/1 64/10/1 67/10/1
f 70/4/1 68/4/1 67/4/1
f 71/4/1 68/4/1 70/4/1
f 72/3/1 70/3/1 69/3/1
f 72/3/1 71/3/1 70/3/1
f 73/3/1 71/3/1 72/3/1
f 74/3/1 71/3/1 73/3/1
f 75/3/1 71/3/1 74/3/1
f 78/1/1 77/1/1 76/1/1
f 79/1/1 77/1/1 78/1/1
f 83/1/1 80/1/1 79/1/1
f 84/1/1 80/1/1 83/1/1
f 85/6/1 82/6/1 81/6/1
f 86/6/1 82/6/1 85/6/1
f 87/4/1 85/4/1 84/4/1
f 88/4/1 85/4/1 87/4/1
f 91/3/1 90/3/1 89/3/1
f 92/3/1 90/3/1 91/3/1
f 95/10/1 94/10/1 93/10/1
f 96/10/1 94/10/1 95/10/1
f 98/10/1 94/10/1 96/10/1
f 99/10/1 94/10/1 98/10/1
f 100/8/1 98/8/1 97/8/1
f 101/9/1 99/9/1 98/9/1
f 101/8/1 98/8/1 100/8/1
f 102/9/1 99/9/1 101/9/1
f 105/4/1 104/4/1 103/4/1
f 106/4/1 104/4/1 105/4/1
f 109/4/1 108/4/1 107/4/1
f 110/4/1 108/4/1 109/4/1
f 112/6/1 111/6/1 110/6/1
f 113/6/1 111/6/1 112/6/1
f 114/4/2 115/4/2 117/4/2
f 117/4/2 115/4/2 118/4/2
f 116/6/2 117/6/2 119/6/2
f 116/6/2 119/6/2 120/6/2
f 120/6/2 119/6/2 121/6/2
f 122/4/2 123/4/2 124/4/2
f 124/4/2 123/4/2 125/4/2
f 126/10/2 127/10/2 128/10/2
f 128/10/2 127/10/2 129/10/2
f 129/10/2 127/10/2 131/10/2
f 131/10/2 127/10/2 132/10/2
f 130/9/2 131/9/2 133/9/2
f 131/9/2 132/9/2 133/9/2
f 133/9/2 132/9/2 134/9/2
f 134/9/2 132/9/2 135/9/2
f 136/1/2 137/1/2 138/1/2
f 138/1/2 137/1/2 139/1/2
f 139/1/2 140/1/2 143/1/2
f 143/1/2 140/1/2 144/1/2
f 141/6/2 142/6/2 145/6/2
f 145/6/2 142/6/2 146/6/2
f 144/4/2 145/4/2 147/4/2
f 147/4/2 145/4/2 148/4/2
f 149/3/2 150/3/2 151/3/2
f 151/3/2 150/3/2 152/3/2
f 153/6/2 154/6/2 155/6/2
f 155/6/2 154/6/2 156/6/2
f 157/4/2 158/4/2 161/4/2
f 161/4/2 158/4/2 162/4/2
f 159/3/2 160/3/2 163/3/2
f 163/3/2 160/3/2 164/3/2
f 161/10/2 162/10/2 165/10/2
f 165/10/2 162/10/2 166/10/2
f 165/4/2 166/4/2 168/4/2
f 168/4/2 166/4/2 169/4/2
f 167/3/2 168/3/2 170/3/2
f 168/3/2 169/3/2 170/3/2
f 170/3/2 169/3/2 171/3/2
f 171/3/2 169/3/2 172/3/2
f 172/3/2 169/3/2 173/3/2
f 174/10/2 175/10/2 176/10/2
f 176/10/2 175/10/2 177/10/2
f 177/10/2 175/10/2 179/10/2
f 179/10/2 175/10/2 180/10/2
f 178/9/2 179/9/2 181/9/2
f 179/9/2 180/9/2 181/9/2
f 181/9/2 180/9/2 182/9/2
f 182/9/2 180/9/2 183/9/2
f 183/9/2 180/9/2 184/9/2
f 182/9/2 183/9/2 185/9/2
f 182/9/2 185/9/2 187/9/2
f 185/9/2 186/9/2 187/9/2
f 187/9/2 186/9/2 188/9/2
f 188/9/2 186/9/2 189/9/2
f 190/4/2 191/4/2 192/4/2
f 192/4/2 191/4/2 193/4/2
f 190/4/2 192/4/2 195/4/2
f 195/4/2 192/4/2 196/4/2
f 196/4/2 192/4/2 197/4/2
f 195/3/2 196/3/2 198/3/2
f 193/3/2 194/3/2 199/3/2
f 199/3/2 194/3/2 200/3/2
f 195/3/2 198/3/2 201/3/2
f 198/3/2 199/3/2 201/3/2
f 201/3/2 199/3/2 202/3/2
f 203/7/2 204/7/2 205/7/2
f 205/7/2 204/7/2 206/7/2
f 205/6/2 206/6/2 207/6/2
f 205/6/2 207/6/2 209/6/2
f 207/6/2 208/6/2 209/6/2
f 209/6/2 208/6/2 210/6/2
f 211/3/2 212/3/2 214/3/2
f 213/3/2 214/3/2 215/3/2
f 214/3/2 212/3/2 216/3/2
f 215/3/2 214/3/2 216/3/2
f 217/4/2 218/4/2 219/4/2
f 219/4/2 218/4/2 220/4/2
f 220/4/2 218/4/2 221/4/2
f 221/4/2 218/4/2 222/4/2
f 220/4/2 221/4/2 224/4/2
f 224/4/2 221/4/2 225/4/2
f 223/6/2 224/6/2 227/6/2
f 225/6/2 226/6/2 227/6/2
f 224/6/2 225/6/2 227/6/2
f 227/6/2 226/6/2 228/6/2
f 232/3/3 230/3/3 229/3/3
f 233/3/3 232/3/3 231/3/3
f 234/3/3 230/3/3 232/3/3
f 234/3/3 232/3/3 233/3/3
f 235/3/3 230/3/3 234/3/3
f 236/3/3 230/3/3 235/3/3
f 241/6/3 240/6/3 239/6/3
f 242/6/3 240/6/3 241/6/3
f 243/4/3 238/4/3 237/4/3
f 244/4/3 238/4/3 243/4/3
f 253/4/3 246/4/3 245/4/3
f 253/10/3 247/10/3 246/10/3
f 254/4/3 248/4/3 247/4/3
f 254/10/3 247/10/3 253/10/3
f 255/4/3 248/4/3 254/4/3
f 260/1/3 252/1/3 251/1/3
f 261/1/3 252/1/3 260/1/3
f 262/4/3 253/4/3 245/4/3
f 262/4/3 254/4/3 253/4/3
f 263/4/3 254/4/3 262/4/3
f 265/8/3 259/8/3 258/8/3
f 266/8/3 259/8/3 265/8/3
f 267/4/3 262/4/3 245/4/3
f 268/10/3 263/10/3 262/10/3
f 268/4/3 262/4/3 267/4/3
f 269/4/3 264/4/3 263/4/3
f 269/10/3 263/10/3 268/10/3
f 270/4/3 264/4/3 269/4/3
f 271/3/3 250/3/3 249/3/3
f 272/3/3 250/3/3 271/3/3
f 273/10/3 257/10/3 256/10/3
f 274/10/3 257/10/3 273/10/3
f 275/9/3 266/9/3 265/9/3
f 276/9/3 266/9/3 275/9/3
f 279/4/3 278/4/3 277/4/3
f 280/4/3 278/4/3 279/4/3
f 286/7/3 281/7/3 280/7/3
f 287/7/3 281/7/3 286/7/3
f 288/6/3 283/6/3 282/6/3
f 288/7/3 281/7/3 287/7/3
f 288/6/3 282/6/3 281/6/3
f 292/8/3 285/8/3 284/8/3
f 292/8/3 286/8/3 285/8/3
f 293/5/3 287/5/3 286/5/3
f 293/8/3 286/8/3 292/8/3
f 294/4/3 290/4/3 289/4/3
f 295/4/3 290/4/3 294/4/3
f 296/3/3 291/3/3 290/3/3
f 296/4/3 290/4/3 295/4/3
f 297/3/3 291/3/3 296/3/3
f 298/3/3 291/3/3 297/3/3
f 299/6/3 288/6/3 287/6/3
f 300/6/3 283/6/3 288/6/3
f 300/6/3 288/6/3 299/6/3
f 304/9/3 293/9/3 292/9/3
f 305/6/3 299/6/3 287/6/3
f 306/1/3 301/1/3 300/1/3
f 307/1/3 301/1/3 306/1/3
f 308/10/3 303/10/3 302/10/3
f 309/9/3 293/9/3 304/9/3
f 315/10/3 308/10/3 302/10/3
f 316/10/3 308/10/3 315/10/3
f 317/9/3 293/9/3 309/9/3
f 318/5/3 287/5/3 293/5/3
f 318/9/3 293/9/3 317/9/3
f 319/6/3 305/6/3 287/6/3
f 319/5/3 287/5/3 318/5/3
f 319/6/3 306/6/3 305/6/3
f 320/6/3 306/6/3 319/6/3
f 321/4/3 311/4/3 310/4/3
f 321/4/3 312/4/3 311/4/3
f 322/3/3 314/3/3 313/3/3
f 322/4/3 312/4/3 321/4/3
f 322/3/3 313/3/3 312/3/3
f 323/3/3 314/3/3 322/3/3
f 324/7/3 319/7/3 318/7/3
f 324/7/3 320/7/3 319/7/3
f 325/6/3 306/6/3 320/6/3
f 325/7/3 320/7/3 324/7/3
f 326/6/3 306/6/3 325/6/3
f 333/3/3 328/3/3 327/3/3
f 334/3/3 328/3/3 333/3/3
f 335/8/3 332/8/3 331/8/3
f 336/8/3 332/8/3 335/8/3
f 339/10/3 330/10/3 329/10/3
f 340/10/3 330/10/3 339/10/3
f 341/9/3 336/9/3 335/9/3
f 342/9/3 336/9/3 341/9/3
f 343/6/3 338/6/3 337/6/3
f 344/6/3 338/6/3 343/6/3
f 347/4/3 345/4/3 344/4/3
f 348/4/3 345/4/3 347/4/3
f 349/6/3 347/6/3 346/6/3
f 350/6/3 347/6/3 349/6/3
f 358/3/3 354/3/3 353/3/3
f 359/3/3 354/3/3 358/3/3
f 360/4/3 352/4/3 351/4/3
f 361/4/3 352/4/3 360/4/3
f 362/6/3 357/6/3 356/6/3
f 362/6/3 356/6/3 355/6/3
f 363/6/3 357/6/3 362/6/3
f 368/3/3 365/3/3 364/3/3
f 369/3/3 365/3/3 368/3/3
f 370/10/3 367/10/3 366/10/3
f 371/10/3 370/10/3 366/10/3
f 372/10/3 370/10/3 371/10/3
f 377/3/3 374/3/3 373/3/3
f 378/3/3 374/3/3 377/3/3
f 379/4/3 376/4/3 375/4/3
f 380/4/3 376/4/3 379/4/3
f 381/4/4 382/4/4 383/4/4
f 383/4/4 382/4/4 384/4/4
f 387/6/4 388/6/4 389/6/4
f 389/6/4 388/6/4 390/6/4
f 385/4/4 386/4/4 391/4/4
f 391/4/4 386/4/4 392/4/4
f 393/6/4 394/6/4 395/6/4
f 395/6/4 394/6/4 396/6/4
f 396/4/4 397/4/4 402/4/4
f 402/4/4 397/4/4 403/4/4
f 401/6/4 402/6/4 404/6/4
f 404/6/4 402/6/4 405/6/4
f 398/10/4 399/10/4 406/10/4
f 399/9/4 400/9/4 407/9/4
f 406/10/4 399/10/4 407/10/4
f 407/9/4 400/9/4 408/9/4
f 409/6/4 410/6/4 412/6/4
f 411/9/4 412/9/4 413/9/4
f 412/6/4 410/6/4 414/6/4
f 412/6/4 414/6/4 416/6/4
f 414/6/4 415/6/4 416/6/4
f 416/6/4 415/6/4 417/6/4
f 413/9/4 412/9/4 418/9/4
f 418/9/4 412/9/4 419/9/4
f 412/6/4 416/6/4 420/6/4
f 419/9/4 412/9/4 420/9/4
f 420/6/4 416/6/4 422/6/4
f 422/6/4 416/6/4 423/6/4
f 423/6/4 416/6/4 424/6/4
f 421/4/4 422/4/4 425/4/4
f 425/4/4 422/4/4 426/4/4
f 427/3/4 428/3/4 433/3/4
f 433/3/4 428/3/4 434/3/4
f 432/4/4 433/4/4 436/4/4
f 436/4/4 433/4/4 437/4/4
f 429/10/4 430/10/4 438/10/4
f 430/9/4 431/9/4 439/9/4
f 438/10/4 430/10/4 439/10/4
f 439/9/4 431/9/4 440/9/4
f 432/4/4 436/4/4 441/4/4
f 432/4/4 441/4/4 445/4/4
f 441/4/4 442/4/4 445/4/4
f 445/4/4 442/4/4 446/4/4
f 434/3/4 435/3/4 447/3/4
f 447/3/4 435/3/4 448/3/4
f 446/3/4 447/3/4 451/3/4
f 451/3/4 447/3/4 452/3/4
f 443/4/4 444/4/4 453/4/4
f 453/4/4 444/4/4 454/4/4
f 449/6/4 450/6/4 455/6/4
f 455/6/4 450/6/4 456/6/4
f 457/3/4 458/3/4 460/3/4
f 459/3/4 460/3/4 461/3/4
f 460/3/4 458/3/4 462/3/4
f 461/3/4 460/3/4 462/3/4
f 462/3/4 458/3/4 463/3/4
f 463/3/4 458/3/4 464/3/4
f 469/10/5 466/10/5 465/10/5
f 470/10/5 466/10/5 469/10/5
f 471/10/5 468/10/5 467/10/5
f 472/10/5 468/10/5 471/10/5
f 476/8/5 474/8/5 473/8/5
f 477/9/5 475/9/5 474/9/5
f 477/8/5 474/8/5 476/8/5
f 478/9/5 475/9/5 477/9/5
f 482/8/5 480/8/5 479/8/5
f 483/9/5 481/9/5 480/9/5
f 483/8/5 480/8/5 482/8/5
f 484/9/5 481/9/5 483/9/5
f 487/4/5 486/4/5 485/4/5
f 490/4/5 487/4/5 485/4/5
f 490/8/5 488/8/5 487/8/5
f 491/9/5 489/9/5 488/9/5
f 491/8/5 488/8/5 490/8/5
f 492/9/5 489/9/5 491/9/5
f 495/4/5 490/4/5 485/4/5
f 496/4/5 490/4/5 495/4/5
f 497/9/5 489/9/5 492/9/5
f 498/4/5 494/4/5 493/4/5
f 499/9/5 497/9/5 492/9/5
f 499/9/5 498/9/5 497/9/5
f 500/4/5 494/4/5 498/4/5
f 500/9/5 498/9/5 499/9/5
f 501/4/5 494/4/5 500/4/5
f 502/4/5 494/4/5 501/4/5
f 505/6/5 504/6/5 503/6/5
f 506/6/5 504/6/5 505/6/5
f 511/7/5 507/7/5 506/7/5
f 512/7/5 507/7/5 511/7/5
f 513/7/5 509/7/5 508/7/5
f 514/7/5 509/7/5 513/7/5
f 516/6/5 512/6/5 511/6/5
f 516/6/5 511/6/5 510/6/5
f 517/6/5 512/6/5 516/6/5
f 518/6/5 515/6/5 514/6/5
f 518/6/5 514/6/5 513/6/5
f 519/6/5 515/6/5 518/6/5
f 520/6/5 512/6/5 517/6/5
f 521/6/5 512/6/5 520/6/5
f 522/6/5 518/6/5 513/6/5
f 523/6/5 518/6/5 522/6/5
f 525/6/5 524/6/5 523/6/5
f 526/6/5 524/6/5 525/6/5
f 529/1/5 528/1/5 527/1/5
f 530/1/5 528/1/5 529/1/5
f 534/4/5 532/4/5 531/4/5
f 535/4/5 532/4/5 534/4/5
f 537/4/5 534/4/5 533/4/5
f 537/4/5 536/4/5 535/4/5
f 537/4/5 535/4/5 534/4/5
f 538/4/5 536/4/5 537/4/5
f 539/4/5 537/4/5 533/4/5
f 540/4/5 536/4/5 538/4/5
f 541/4/5 539/4/5 533/4/5
f 541/4/5 540/4/5 539/4/5
f 542/4/5 536/4/5 540/4/5
f 542/4/5 540/4/5 541/4/5
f 545/3/5 544/3/5 543/3/5
f 546/3/5 544/3/5 545/3/5
f 551/3/5 548/3/5 547/3/5
f 552/3/5 548/3/5 551/3/5
f 555/3/5 550/3/5 549/3/5
f 556/3/5 550/3/5 555/3/5
f 557/3/5 553/3/5 552/3/5
f 558/3/5 553/3/5 557/3/5
f 559/3/5 555/3/5 554/3/5
f 560/3/5 555/3/5 559/3/5
f 563/3/5 562/3/5 561/3/5
f 564/3/5 562/3/5 563/3/5
f 569/3/5 566/3/5 565/3/5
f 570/3/5 566/3/5 569/3/5
f 571/3/5 568/3/5 567/3/5
f 572/3/5 568/3/5 571/3/5
f 577/3/5 574/3/5 573/3/5
f 578/3/5 574/3/5 577/3/5
f 579/3/5 576/3/5 575/3/5
f 580/3/5 576/3/5 579/3/5
f 581/10/6 582/10/6 583/10/6
f 583/10/6 582/10/6 584/10/6
f 585/10/6 586/10/6 587/10/6
f 587/10/6 586/10/6 588/10/6
f 589/8/6 590/8/6 592/8/6
f 590/9/6 591/9/6 593/9/6
f 592/8/6 590/8/6 593/8/6
f 593/9/6 591/9/6 594/9/6
f 595/9/6 596/9/6 597/9/6
f 597/9/6 596/9/6 598/9/6
f 599/4/6 600/4/6 601/4/6
f 601/4/6 600/4/6 602/4/6
f 602/4/6 600/4/6 603/4/6
f 602/4/6 603/4/6 605/4/6
f 605/4/6 603/4/6 606/4/6
f 605/4/6 606/4/6 609/4/6
f 604/4/6 605/4/6 609/4/6
f 609/4/6 606/4/6 610/4/6
f 607/4/6 608/4/6 611/4/6
f 611/4/6 608/4/6 612/4/6
f 607/4/6 611/4/6 613/4/6
f 613/4/6 611/4/6 614/4/6
f 613/4/6 614/4/6 616/4/6
f 614/4/6 615/4/6 616/4/6
f 616/4/6 615/4/6 617/4/6
f 618/6/6 619/6/6 620/6/6
f 618/6/6 620/6/6 623/6/6
f 623/6/6 620/6/6 624/6/6
f 621/6/6 622/6/6 625/6/6
f 625/6/6 622/6/6 626/6/6
f 626/6/6 622/6/6 627/6/6
f 628/1/6 629/1/6 631/1/6
f 631/1/6 629/1/6 632/1/6
f 630/6/6 631/6/6 634/6/6
f 634/6/6 631/6/6 635/6/6
f 632/6/6 633/6/6 636/6/6
f 636/6/6 633/6/6 637/6/6
f 630/6/6 634/6/6 638/6/6
f 637/6/6 633/6/6 641/6/6
f 638/6/6 639/6/6 642/6/6
f 630/6/6 638/6/6 642/6/6
f 642/6/6 639/6/6 643/6/6
f 640/6/6 641/6/6 644/6/6
f 641/6/6 633/6/6 645/6/6
f 644/6/6 641/6/6 645/6/6
f 646/1/6 647/1/6 649/1/6
f 649/1/6 647/1/6 650/1/6
f 648/6/6 649/6/6 652/6/6
f 652/6/6 649/6/6 653/6/6
f 650/6/6 651/6/6 654/6/6
f 654/6/6 651/6/6 655/6/6
f 653/6/6 654/6/6 656/6/6
f 656/6/6 654/6/6 657/6/6
f 658/3/6 659/3/6 660/3/6
f 660/3/6 659/3/6 661/3/6
f 662/3/6 663/3/6 666/3/6
f 666/3/6 663/3/6 667/3/6
f 664/3/6 665/3/6 668/3/6
f 668/3/6 665/3/6 669/3/6
f 667/3/6 668/3/6 670/3/6
f 670/3/6 668/3/6 671/3/6
f 672/3/6 673/3/6 675/3/6
f 675/3/6 673/3/6 676/3/6
f 674/3/6 675/3/6 678/3/6
f 676/3/6 677/3/6 678/3/6
f 675/3/6 676/3/6 678/3/6
f 678/3/6 677/3/6 679/3/6
