# MagicaVoxel @ Ephtracy

# group
g officerOne

# material
mtllib officerOne.mtl
usemtl palette

# normals
vn -1 0 0
vn 1 0 0
vn 0 0 1
vn 0 0 -1
vn 0 -1 0
vn 0 1 0

# texcoords
vt 0.306641 0.5
vt 0.310547 0.5
vt 0.912109 0.5
vt 0.919922 0.5
vt 0.974609 0.5
vt 0.990234 0.5
vt 0.994141 0.5

# verts
v -4.5 18 2
v -4.5 18 -1
v -4.5 20 2
v -4.5 20 1
v -4.5 20 -0
v -4.5 20 -1
v -4.5 21 2
v -4.5 21 1
v -4.5 21 -0
v -4.5 21 -1
v -4.5 33 2
v -4.5 33 -1
v -3.5 36 1
v -3.5 36 -2
v -3.5 41 1
v -3.5 41 -2
v -2.5 0 2
v -2.5 0 -1
v -2.5 1 2
v -2.5 1 1
v -2.5 2 2
v -2.5 2 1
v -2.5 18 2
v -2.5 18 1
v -2.5 18 -1
v -2.5 20 2
v -2.5 20 1
v -2.5 20 -1
v -2.5 21 2
v -2.5 21 1
v -2.5 21 -0
v -2.5 21 -1
v -2.5 33 2
v -2.5 33 -1
v -2.5 34 2
v -2.5 34 -1
v -2.5 36 2
v -2.5 36 1
v -2.5 36 -2
v -2.5 36 -3
v -2.5 39 2
v -2.5 39 1
v -2.5 41 1
v -2.5 41 -2
v -2.5 41 -3
v -2.5 42 2
v -2.5 42 -2
v -1.5 34 1
v -1.5 34 -0
v -1.5 35 1
v -1.5 35 -0
v -1.5 36 3
v -1.5 36 2
v -1.5 38 3
v -1.5 38 2
v -1.5 39 3
v -1.5 39 2
v -1.5 40 3
v -1.5 40 2
v -1.5 42 3
v -1.5 42 2
v -0.5 23 3
v -0.5 23 2
v -0.5 34 3
v -0.5 34 2
v -0.5 34 1
v -0.5 34 -0
v -0.5 34 -1
v -0.5 35 2
v -0.5 35 1
v -0.5 35 -0
v -0.5 35 -1
v -0.5 36 1
v -0.5 36 -0
v 0.5 0 2
v 0.5 0 -1
v 0.5 1 2
v 0.5 1 1
v 0.5 2 2
v 0.5 2 1
v 0.5 18 2
v 0.5 18 1
v 0.5 18 -1
v 3.5 20 1
v 3.5 20 -0
v 3.5 21 1
v 3.5 21 -0
v -3.5 20 1
v -3.5 20 -0
v -3.5 21 1
v -3.5 21 -0
v -0.5 0 2
v -0.5 0 -1
v -0.5 1 2
v -0.5 1 1
v -0.5 2 2
v -0.5 2 1
v -0.5 18 2
v -0.5 18 -1
v 0.5 23 3
v 0.5 23 2
v 0.5 34 3
v 0.5 34 2
v 0.5 34 1
v 0.5 34 -0
v 0.5 34 -1
v 0.5 35 2
v 0.5 35 1
v 0.5 35 -0
v 0.5 35 -1
v 0.5 36 1
v 0.5 36 -0
v 1.5 34 1
v 1.5 34 -0
v 1.5 35 1
v 1.5 35 -0
v 1.5 36 3
v 1.5 36 2
v 1.5 38 3
v 1.5 38 2
v 1.5 39 3
v 1.5 39 2
v 1.5 40 3
v 1.5 40 2
v 1.5 42 3
v 1.5 42 2
v 2.5 0 2
v 2.5 0 -1
v 2.5 1 2
v 2.5 1 1
v 2.5 2 2
v 2.5 2 1
v 2.5 18 2
v 2.5 18 -1
v 2.5 20 2
v 2.5 20 -1
v 2.5 21 2
v 2.5 21 1
v 2.5 21 -0
v 2.5 21 -1
v 2.5 33 2
v 2.5 33 -1
v 2.5 34 2
v 2.5 34 -1
v 2.5 36 2
v 2.5 36 1
v 2.5 36 -2
v 2.5 36 -3
v 2.5 39 2
v 2.5 39 1
v 2.5 41 1
v 2.5 41 -2
v 2.5 41 -3
v 2.5 42 2
v 2.5 42 -2
v 3.5 36 1
v 3.5 36 -2
v 3.5 41 1
v 3.5 41 -2
v 4.5 18 2
v 4.5 18 -1
v 4.5 20 2
v 4.5 20 1
v 4.5 20 -0
v 4.5 20 -1
v 4.5 21 2
v 4.5 21 1
v 4.5 21 -0
v 4.5 21 -1
v 4.5 33 2
v 4.5 33 -1
v -1.5 36 3
v -1.5 38 3
v -1.5 39 3
v -1.5 40 3
v -1.5 42 3
v -0.5 23 3
v -0.5 34 3
v -0.5 38 3
v -0.5 39 3
v -0.5 40 3
v -0.5 41 3
v 0.5 23 3
v 0.5 34 3
v 0.5 38 3
v 0.5 39 3
v 0.5 40 3
v 0.5 41 3
v 1.5 36 3
v 1.5 38 3
v 1.5 39 3
v 1.5 40 3
v 1.5 42 3
v -4.5 18 2
v -4.5 20 2
v -4.5 21 2
v -4.5 33 2
v -3.5 21 2
v -3.5 31 2
v -2.5 0 2
v -2.5 1 2
v -2.5 2 2
v -2.5 18 2
v -2.5 20 2
v -2.5 21 2
v -2.5 22 2
v -2.5 31 2
v -2.5 33 2
v -2.5 34 2
v -2.5 36 2
v -2.5 39 2
v -2.5 42 2
v -1.5 2 2
v -1.5 21 2
v -1.5 36 2
v -1.5 38 2
v -1.5 39 2
v -1.5 40 2
v -1.5 42 2
v -0.5 0 2
v -0.5 1 2
v -0.5 2 2
v -0.5 18 2
v -0.5 23 2
v -0.5 34 2
v -0.5 35 2
v 0.5 0 2
v 0.5 1 2
v 0.5 2 2
v 0.5 18 2
v 0.5 23 2
v 0.5 34 2
v 0.5 35 2
v 1.5 2 2
v 1.5 18 2
v 1.5 36 2
v 1.5 38 2
v 1.5 39 2
v 1.5 40 2
v 1.5 42 2
v 2.5 0 2
v 2.5 1 2
v 2.5 2 2
v 2.5 18 2
v 2.5 20 2
v 2.5 21 2
v 2.5 22 2
v 2.5 31 2
v 2.5 33 2
v 2.5 34 2
v 2.5 36 2
v 2.5 39 2
v 2.5 42 2
v 3.5 21 2
v 3.5 31 2
v 4.5 18 2
v 4.5 20 2
v 4.5 21 2
v 4.5 33 2
v -4.5 20 1
v -4.5 21 1
v -3.5 20 1
v -3.5 21 1
v -3.5 36 1
v -3.5 41 1
v -2.5 1 1
v -2.5 2 1
v -2.5 36 1
v -2.5 39 1
v -2.5 41 1
v -1.5 2 1
v -1.5 34 1
v -1.5 35 1
v -0.5 1 1
v -0.5 2 1
v -0.5 34 1
v -0.5 35 1
v -0.5 36 1
v 0.5 1 1
v 0.5 2 1
v 0.5 34 1
v 0.5 35 1
v 0.5 36 1
v 1.5 2 1
v 1.5 34 1
v 1.5 35 1
v 2.5 1 1
v 2.5 2 1
v 2.5 36 1
v 2.5 39 1
v 2.5 41 1
v 3.5 20 1
v 3.5 21 1
v 3.5 36 1
v 3.5 41 1
v 4.5 20 1
v 4.5 21 1
v -4.5 20 -0
v -4.5 21 -0
v -3.5 20 -0
v -3.5 21 -0
v -1.5 34 -0
v -1.5 35 -0
v -0.5 34 -0
v -0.5 35 -0
v -0.5 36 -0
v 0.5 34 -0
v 0.5 35 -0
v 0.5 36 -0
v 1.5 34 -0
v 1.5 35 -0
v 3.5 20 -0
v 3.5 21 -0
v 4.5 20 -0
v 4.5 21 -0
v -4.5 18 -1
v -4.5 20 -1
v -4.5 21 -1
v -4.5 33 -1
v -3.5 21 -1
v -3.5 31 -1
v -2.5 0 -1
v -2.5 18 -1
v -2.5 20 -1
v -2.5 21 -1
v -2.5 22 -1
v -2.5 31 -1
v -2.5 33 -1
v -2.5 34 -1
v -0.5 0 -1
v -0.5 18 -1
v -0.5 34 -1
v -0.5 35 -1
v 0.5 0 -1
v 0.5 18 -1
v 0.5 34 -1
v 0.5 35 -1
v 2.5 0 -1
v 2.5 18 -1
v 2.5 20 -1
v 2.5 21 -1
v 2.5 22 -1
v 2.5 31 -1
v 2.5 33 -1
v 2.5 34 -1
v 3.5 21 -1
v 3.5 31 -1
v 4.5 18 -1
v 4.5 20 -1
v 4.5 21 -1
v 4.5 33 -1
v -3.5 36 -2
v -3.5 41 -2
v -2.5 36 -2
v -2.5 41 -2
v -2.5 42 -2
v 2.5 36 -2
v 2.5 41 -2
v 2.5 42 -2
v 3.5 36 -2
v 3.5 41 -2
v -2.5 36 -3
v -2.5 41 -3
v 2.5 36 -3
v 2.5 41 -3
v -2.5 0 2
v -0.5 0 2
v 0.5 0 2
v 2.5 0 2
v -2.5 0 -1
v -0.5 0 -1
v 0.5 0 -1
v 2.5 0 -1
v -2.5 2 2
v -1.5 2 2
v -0.5 2 2
v 0.5 2 2
v 1.5 2 2
v 2.5 2 2
v -2.5 2 1
v -1.5 2 1
v -0.5 2 1
v 0.5 2 1
v 1.5 2 1
v 2.5 2 1
v -4.5 18 2
v -2.5 18 2
v -0.5 18 2
v 0.5 18 2
v 2.5 18 2
v 4.5 18 2
v -2.5 18 1
v 0.5 18 1
v -4.5 18 -1
v -2.5 18 -1
v -0.5 18 -1
v 0.5 18 -1
v 2.5 18 -1
v 4.5 18 -1
v -4.5 21 2
v -3.5 21 2
v -2.5 21 2
v 2.5 21 2
v 3.5 21 2
v 4.5 21 2
v -4.5 21 1
v -3.5 21 1
v -2.5 21 1
v 2.5 21 1
v 3.5 21 1
v 4.5 21 1
v -4.5 21 -0
v -3.5 21 -0
v -2.5 21 -0
v 2.5 21 -0
v 3.5 21 -0
v 4.5 21 -0
v -4.5 21 -1
v -3.5 21 -1
v -2.5 21 -1
v 2.5 21 -1
v 3.5 21 -1
v 4.5 21 -1
v -0.5 23 3
v 0.5 23 3
v -0.5 23 2
v 0.5 23 2
v -1.5 36 3
v 1.5 36 3
v -2.5 36 2
v -1.5 36 2
v 1.5 36 2
v 2.5 36 2
v -3.5 36 1
v -2.5 36 1
v -0.5 36 1
v 0.5 36 1
v 2.5 36 1
v 3.5 36 1
v -0.5 36 -0
v 0.5 36 -0
v -3.5 36 -2
v -2.5 36 -2
v 2.5 36 -2
v 3.5 36 -2
v -2.5 36 -3
v 2.5 36 -3
v -2.5 1 2
v -0.5 1 2
v 0.5 1 2
v 2.5 1 2
v -2.5 1 1
v -0.5 1 1
v 0.5 1 1
v 2.5 1 1
v -4.5 20 2
v -2.5 20 2
v 2.5 20 2
v 4.5 20 2
v -4.5 20 1
v -3.5 20 1
v -2.5 20 1
v 3.5 20 1
v 4.5 20 1
v -4.5 20 -0
v -3.5 20 -0
v 3.5 20 -0
v 4.5 20 -0
v -4.5 20 -1
v -2.5 20 -1
v 2.5 20 -1
v 4.5 20 -1
v -4.5 33 2
v -2.5 33 2
v 2.5 33 2
v 4.5 33 2
v -4.5 33 -1
v -2.5 33 -1
v 2.5 33 -1
v 4.5 33 -1
v -0.5 34 3
v 0.5 34 3
v -2.5 34 2
v -0.5 34 2
v 0.5 34 2
v 2.5 34 2
v -1.5 34 1
v -0.5 34 1
v 0.5 34 1
v 1.5 34 1
v -1.5 34 -0
v -0.5 34 -0
v 0.5 34 -0
v 1.5 34 -0
v -2.5 34 -1
v -0.5 34 -1
v 0.5 34 -1
v 2.5 34 -1
v -0.5 35 2
v 0.5 35 2
v -1.5 35 1
v -0.5 35 1
v 0.5 35 1
v 1.5 35 1
v -1.5 35 -0
v -0.5 35 -0
v 0.5 35 -0
v 1.5 35 -0
v -0.5 35 -1
v 0.5 35 -1
v -3.5 41 1
v -2.5 41 1
v 2.5 41 1
v 3.5 41 1
v -3.5 41 -2
v -2.5 41 -2
v 2.5 41 -2
v 3.5 41 -2
v -2.5 41 -3
v 2.5 41 -3
v -1.5 42 3
v 1.5 42 3
v -2.5 42 2
v -1.5 42 2
v 1.5 42 2
v 2.5 42 2
v -2.5 42 -2
v 2.5 42 -2

# faces
f 3/5/1 2/5/1 1/5/1
f 4/5/1 2/5/1 3/5/1
f 5/5/1 2/5/1 4/5/1
f 6/5/1 2/5/1 5/5/1
f 8/5/1 5/5/1 4/5/1
f 9/5/1 5/5/1 8/5/1
f 11/3/1 8/3/1 7/3/1
f 11/3/1 10/3/1 9/3/1
f 11/3/1 9/3/1 8/3/1
f 12/3/1 10/3/1 11/3/1
f 15/2/1 14/2/1 13/2/1
f 16/2/1 14/2/1 15/2/1
f 19/7/1 18/7/1 17/7/1
f 20/7/1 18/7/1 19/7/1
f 22/7/1 18/7/1 20/7/1
f 23/6/1 22/6/1 21/6/1
f 24/7/1 18/7/1 22/7/1
f 24/6/1 22/6/1 23/6/1
f 25/7/1 18/7/1 24/7/1
f 29/6/1 27/6/1 26/6/1
f 30/7/1 28/7/1 27/7/1
f 30/6/1 27/6/1 29/6/1
f 31/7/1 28/7/1 30/7/1
f 32/7/1 28/7/1 31/7/1
f 35/3/1 34/3/1 33/3/1
f 36/3/1 34/3/1 35/3/1
f 41/5/1 38/5/1 37/5/1
f 42/5/1 38/5/1 41/5/1
f 43/2/1 42/2/1 41/2/1
f 44/2/1 40/2/1 39/2/1
f 45/2/1 40/2/1 44/2/1
f 46/2/1 43/2/1 41/2/1
f 46/2/1 44/2/1 43/2/1
f 47/2/1 44/2/1 46/2/1
f 50/3/1 49/3/1 48/3/1
f 51/3/1 49/3/1 50/3/1
f 54/5/1 53/5/1 52/5/1
f 55/5/1 53/5/1 54/5/1
f 56/7/1 55/7/1 54/7/1
f 57/7/1 55/7/1 56/7/1
f 58/5/1 57/5/1 56/5/1
f 59/5/1 57/5/1 58/5/1
f 60/2/1 59/2/1 58/2/1
f 61/2/1 59/2/1 60/2/1
f 64/7/1 63/7/1 62/7/1
f 65/7/1 63/7/1 64/7/1
f 69/7/1 66/7/1 65/7/1
f 70/7/1 66/7/1 69/7/1
f 71/3/1 68/3/1 67/3/1
f 72/3/1 68/3/1 71/3/1
f 73/5/1 71/5/1 70/5/1
f 74/5/1 71/5/1 73/5/1
f 77/7/1 76/7/1 75/7/1
f 78/7/1 76/7/1 77/7/1
f 80/7/1 76/7/1 78/7/1
f 81/6/1 80/6/1 79/6/1
f 82/7/1 76/7/1 80/7/1
f 82/6/1 80/6/1 81/6/1
f 83/7/1 76/7/1 82/7/1
f 86/5/1 85/5/1 84/5/1
f 87/5/1 85/5/1 86/5/1
f 88/5/2 89/5/2 90/5/2
f 90/5/2 89/5/2 91/5/2
f 92/7/2 93/7/2 94/7/2
f 94/7/2 93/7/2 95/7/2
f 95/7/2 93/7/2 97/7/2
f 96/7/2 97/7/2 98/7/2
f 97/7/2 93/7/2 99/7/2
f 98/7/2 97/7/2 99/7/2
f 100/7/2 101/7/2 102/7/2
f 102/7/2 101/7/2 103/7/2
f 103/7/2 104/7/2 107/7/2
f 107/7/2 104/7/2 108/7/2
f 105/3/2 106/3/2 109/3/2
f 109/3/2 106/3/2 110/3/2
f 108/5/2 109/5/2 111/5/2
f 111/5/2 109/5/2 112/5/2
f 113/3/2 114/3/2 115/3/2
f 115/3/2 114/3/2 116/3/2
f 117/5/2 118/5/2 119/5/2
f 119/5/2 118/5/2 120/5/2
f 119/7/2 120/7/2 121/7/2
f 121/7/2 120/7/2 122/7/2
f 121/5/2 122/5/2 123/5/2
f 123/5/2 122/5/2 124/5/2
f 123/2/2 124/2/2 125/2/2
f 125/2/2 124/2/2 126/2/2
f 127/7/2 128/7/2 129/7/2
f 129/7/2 128/7/2 130/7/2
f 130/7/2 128/7/2 132/7/2
f 131/7/2 132/7/2 133/7/2
f 132/7/2 128/7/2 134/7/2
f 133/7/2 132/7/2 134/7/2
f 135/7/2 136/7/2 137/7/2
f 137/7/2 136/7/2 138/7/2
f 138/7/2 136/7/2 139/7/2
f 139/7/2 136/7/2 140/7/2
f 141/3/2 142/3/2 143/3/2
f 143/3/2 142/3/2 144/3/2
f 145/5/2 146/5/2 149/5/2
f 149/5/2 146/5/2 150/5/2
f 149/2/2 150/2/2 151/2/2
f 147/2/2 148/2/2 152/2/2
f 152/2/2 148/2/2 153/2/2
f 149/2/2 151/2/2 154/2/2
f 151/2/2 152/2/2 154/2/2
f 154/2/2 152/2/2 155/2/2
f 156/2/2 157/2/2 158/2/2
f 158/2/2 157/2/2 159/2/2
f 160/5/2 161/5/2 162/5/2
f 162/5/2 161/5/2 163/5/2
f 163/5/2 161/5/2 164/5/2
f 164/5/2 161/5/2 165/5/2
f 163/5/2 164/5/2 167/5/2
f 167/5/2 164/5/2 168/5/2
f 166/3/2 167/3/2 170/3/2
f 168/3/2 169/3/2 170/3/2
f 167/3/2 168/3/2 170/3/2
f 170/3/2 169/3/2 171/3/2
f 179/5/3 173/5/3 172/5/3
f 179/7/3 174/7/3 173/7/3
f 180/5/3 175/5/3 174/5/3
f 180/7/3 174/7/3 179/7/3
f 181/2/3 176/2/3 175/2/3
f 181/5/3 175/5/3 180/5/3
f 182/2/3 176/2/3 181/2/3
f 183/7/3 178/7/3 177/7/3
f 184/7/3 178/7/3 183/7/3
f 185/5/3 180/5/3 179/5/3
f 185/5/3 179/5/3 172/5/3
f 185/5/3 181/5/3 180/5/3
f 185/5/3 182/5/3 181/5/3
f 186/5/3 182/5/3 185/5/3
f 187/5/3 182/5/3 186/5/3
f 188/2/3 176/2/3 182/2/3
f 188/5/3 182/5/3 187/5/3
f 189/5/3 185/5/3 172/5/3
f 190/7/3 186/7/3 185/7/3
f 190/5/3 185/5/3 189/5/3
f 191/5/3 187/5/3 186/5/3
f 191/7/3 186/7/3 190/7/3
f 192/2/3 188/2/3 187/2/3
f 192/5/3 187/5/3 191/5/3
f 193/2/3 176/2/3 188/2/3
f 193/2/3 188/2/3 192/2/3
f 198/3/3 197/3/3 196/3/3
f 199/3/3 197/3/3 198/3/3
f 203/5/3 195/5/3 194/5/3
f 204/5/3 195/5/3 203/5/3
f 205/4/3 199/4/3 198/4/3
f 206/4/3 199/4/3 205/4/3
f 207/3/3 197/3/3 199/3/3
f 207/4/3 199/4/3 206/4/3
f 208/3/3 197/3/3 207/3/3
f 213/6/3 204/6/3 203/6/3
f 213/6/3 203/6/3 202/6/3
f 213/6/3 205/6/3 204/6/3
f 214/7/3 206/7/3 205/7/3
f 214/6/3 205/6/3 213/6/3
f 215/5/3 211/5/3 210/5/3
f 216/5/3 211/5/3 215/5/3
f 217/2/3 212/2/3 211/2/3
f 217/5/3 211/5/3 216/5/3
f 218/2/3 212/2/3 217/2/3
f 219/2/3 212/2/3 218/2/3
f 220/7/3 201/7/3 200/7/3
f 221/7/3 201/7/3 220/7/3
f 222/7/3 214/7/3 213/7/3
f 223/7/3 214/7/3 222/7/3
f 224/3/3 209/3/3 208/3/3
f 224/3/3 207/3/3 206/3/3
f 224/3/3 208/3/3 207/3/3
f 225/3/3 209/3/3 224/3/3
f 230/7/3 214/7/3 223/7/3
f 231/3/3 224/3/3 206/3/3
f 232/7/3 226/7/3 225/7/3
f 233/7/3 226/7/3 232/7/3
f 234/6/3 230/6/3 229/6/3
f 235/7/3 214/7/3 230/7/3
f 235/6/3 230/6/3 234/6/3
f 241/7/3 228/7/3 227/7/3
f 242/7/3 228/7/3 241/7/3
f 243/7/3 235/7/3 234/7/3
f 244/7/3 214/7/3 235/7/3
f 244/7/3 235/7/3 243/7/3
f 245/7/3 214/7/3 244/7/3
f 246/7/3 206/7/3 214/7/3
f 246/7/3 214/7/3 245/7/3
f 247/3/3 231/3/3 206/3/3
f 247/7/3 206/7/3 246/7/3
f 247/3/3 232/3/3 231/3/3
f 248/3/3 232/3/3 247/3/3
f 249/3/3 232/3/3 248/3/3
f 250/3/3 232/3/3 249/3/3
f 251/5/3 237/5/3 236/5/3
f 251/5/3 238/5/3 237/5/3
f 252/2/3 240/2/3 239/2/3
f 252/5/3 238/5/3 251/5/3
f 252/2/3 239/2/3 238/2/3
f 253/2/3 240/2/3 252/2/3
f 254/4/3 247/4/3 246/4/3
f 254/4/3 248/4/3 247/4/3
f 255/3/3 249/3/3 248/3/3
f 255/4/3 248/4/3 254/4/3
f 256/5/3 245/5/3 244/5/3
f 257/5/3 245/5/3 256/5/3
f 258/3/3 255/3/3 254/3/3
f 259/3/3 249/3/3 255/3/3
f 259/3/3 255/3/3 258/3/3
f 262/5/3 261/5/3 260/5/3
f 263/5/3 261/5/3 262/5/3
f 268/2/3 265/2/3 264/2/3
f 269/2/3 265/2/3 268/2/3
f 270/2/3 265/2/3 269/2/3
f 271/7/3 267/7/3 266/7/3
f 274/7/3 271/7/3 266/7/3
f 275/7/3 271/7/3 274/7/3
f 276/3/3 273/3/3 272/3/3
f 277/3/3 273/3/3 276/3/3
f 282/5/3 278/5/3 277/5/3
f 283/5/3 278/5/3 282/5/3
f 284/7/3 280/7/3 279/7/3
f 285/3/3 282/3/3 281/3/3
f 286/3/3 282/3/3 285/3/3
f 287/7/3 284/7/3 279/7/3
f 288/7/3 284/7/3 287/7/3
f 294/2/3 291/2/3 290/2/3
f 294/2/3 290/2/3 289/2/3
f 295/2/3 291/2/3 294/2/3
f 296/5/3 293/5/3 292/5/3
f 297/5/3 293/5/3 296/5/3
f 298/5/4 299/5/4 300/5/4
f 300/5/4 299/5/4 301/5/4
f 302/3/4 303/3/4 304/3/4
f 304/3/4 303/3/4 305/3/4
f 305/5/4 306/5/4 308/5/4
f 308/5/4 306/5/4 309/5/4
f 307/3/4 308/3/4 310/3/4
f 310/3/4 308/3/4 311/3/4
f 312/5/4 313/5/4 314/5/4
f 314/5/4 313/5/4 315/5/4
f 318/3/4 319/3/4 320/3/4
f 320/3/4 319/3/4 321/3/4
f 316/5/4 317/5/4 323/5/4
f 323/5/4 317/5/4 324/5/4
f 320/4/4 321/4/4 325/4/4
f 325/4/4 321/4/4 326/4/4
f 321/3/4 319/3/4 327/3/4
f 326/4/4 321/4/4 327/4/4
f 327/3/4 319/3/4 328/3/4
f 325/7/4 326/7/4 330/7/4
f 323/7/4 324/7/4 330/7/4
f 322/7/4 323/7/4 330/7/4
f 324/7/4 325/7/4 330/7/4
f 330/7/4 326/7/4 331/7/4
f 328/3/4 329/3/4 332/3/4
f 327/3/4 328/3/4 332/3/4
f 326/3/4 327/3/4 332/3/4
f 331/7/4 326/7/4 335/7/4
f 326/3/4 332/3/4 336/3/4
f 332/3/4 333/3/4 336/3/4
f 336/3/4 333/3/4 337/3/4
f 334/7/4 335/7/4 338/7/4
f 335/7/4 326/7/4 339/7/4
f 338/7/4 335/7/4 339/7/4
f 339/7/4 326/7/4 340/7/4
f 340/7/4 326/7/4 341/7/4
f 326/3/4 336/3/4 342/3/4
f 341/7/4 326/7/4 342/7/4
f 342/3/4 336/3/4 343/3/4
f 343/3/4 336/3/4 344/3/4
f 344/3/4 336/3/4 345/3/4
f 341/4/4 342/4/4 346/4/4
f 342/4/4 343/4/4 346/4/4
f 343/3/4 344/3/4 347/3/4
f 346/4/4 343/4/4 347/4/4
f 339/5/4 340/5/4 348/5/4
f 348/5/4 340/5/4 349/5/4
f 346/3/4 347/3/4 350/3/4
f 347/3/4 344/3/4 351/3/4
f 350/3/4 347/3/4 351/3/4
f 352/2/4 353/2/4 354/2/4
f 354/2/4 353/2/4 355/2/4
f 355/2/4 356/2/4 358/2/4
f 358/2/4 356/2/4 359/2/4
f 357/2/4 358/2/4 360/2/4
f 360/2/4 358/2/4 361/2/4
f 362/2/4 363/2/4 364/2/4
f 364/2/4 363/2/4 365/2/4
f 370/7/5 367/7/5 366/7/5
f 371/7/5 367/7/5 370/7/5
f 372/7/5 369/7/5 368/7/5
f 373/7/5 369/7/5 372/7/5
f 380/6/5 375/6/5 374/6/5
f 381/7/5 376/7/5 375/7/5
f 381/6/5 375/6/5 380/6/5
f 382/7/5 376/7/5 381/7/5
f 383/6/5 378/6/5 377/6/5
f 384/7/5 379/7/5 378/7/5
f 384/6/5 378/6/5 383/6/5
f 385/7/5 379/7/5 384/7/5
f 392/5/5 387/5/5 386/5/5
f 393/7/5 389/7/5 388/7/5
f 394/5/5 392/5/5 386/5/5
f 395/5/5 392/5/5 394/5/5
f 396/7/5 393/7/5 388/7/5
f 397/7/5 393/7/5 396/7/5
f 398/5/5 391/5/5 390/5/5
f 399/5/5 391/5/5 398/5/5
f 406/3/5 401/3/5 400/3/5
f 407/4/5 402/4/5 401/4/5
f 407/3/5 401/3/5 406/3/5
f 408/4/5 402/4/5 407/4/5
f 409/4/5 404/4/5 403/4/5
f 410/3/5 405/3/5 404/3/5
f 410/4/5 404/4/5 409/4/5
f 411/3/5 405/3/5 410/3/5
f 413/3/5 408/3/5 407/3/5
f 414/3/5 408/3/5 413/3/5
f 415/3/5 410/3/5 409/3/5
f 416/3/5 410/3/5 415/3/5
f 418/3/5 413/3/5 412/3/5
f 419/4/5 414/4/5 413/4/5
f 419/3/5 413/3/5 418/3/5
f 420/4/5 414/4/5 419/4/5
f 421/4/5 416/4/5 415/4/5
f 422/3/5 417/3/5 416/3/5
f 422/4/5 416/4/5 421/4/5
f 423/3/5 417/3/5 422/3/5
f 426/7/5 425/7/5 424/7/5
f 427/7/5 425/7/5 426/7/5
f 431/5/5 429/5/5 428/5/5
f 432/5/5 429/5/5 431/5/5
f 435/5/5 431/5/5 430/5/5
f 435/5/5 433/5/5 432/5/5
f 435/5/5 432/5/5 431/5/5
f 436/5/5 433/5/5 435/5/5
f 437/5/5 433/5/5 436/5/5
f 438/5/5 433/5/5 437/5/5
f 440/5/5 436/5/5 435/5/5
f 441/5/5 438/5/5 437/5/5
f 442/2/5 435/2/5 434/2/5
f 443/5/5 441/5/5 440/5/5
f 443/2/5 435/2/5 442/2/5
f 443/5/5 440/5/5 435/5/5
f 444/2/5 439/2/5 438/2/5
f 444/5/5 441/5/5 443/5/5
f 444/5/5 438/5/5 441/5/5
f 445/2/5 439/2/5 444/2/5
f 446/2/5 444/2/5 443/2/5
f 447/2/5 444/2/5 446/2/5
f 448/7/6 449/7/6 452/7/6
f 452/7/6 449/7/6 453/7/6
f 450/7/6 451/7/6 454/7/6
f 454/7/6 451/7/6 455/7/6
f 456/5/6 457/5/6 460/5/6
f 460/5/6 457/5/6 461/5/6
f 461/5/6 457/5/6 462/5/6
f 458/5/6 459/5/6 463/5/6
f 463/5/6 459/5/6 464/5/6
f 461/5/6 462/5/6 466/5/6
f 458/5/6 463/5/6 467/5/6
f 465/5/6 466/5/6 469/5/6
f 466/5/6 462/5/6 470/5/6
f 469/5/6 466/5/6 470/5/6
f 467/5/6 468/5/6 471/5/6
f 458/5/6 467/5/6 471/5/6
f 471/5/6 468/5/6 472/5/6
f 473/3/6 474/3/6 477/3/6
f 477/3/6 474/3/6 478/3/6
f 475/3/6 476/3/6 479/3/6
f 479/3/6 476/3/6 480/3/6
f 481/7/6 482/7/6 484/7/6
f 484/7/6 482/7/6 485/7/6
f 483/3/6 484/3/6 487/3/6
f 487/3/6 484/3/6 488/3/6
f 485/3/6 486/3/6 489/3/6
f 489/3/6 486/3/6 490/3/6
f 483/3/6 487/3/6 491/3/6
f 490/3/6 486/3/6 494/3/6
f 491/3/6 492/3/6 495/3/6
f 483/3/6 491/3/6 495/3/6
f 495/3/6 492/3/6 496/3/6
f 493/3/6 494/3/6 497/3/6
f 494/3/6 486/3/6 498/3/6
f 497/3/6 494/3/6 498/3/6
f 499/7/6 500/7/6 502/7/6
f 502/7/6 500/7/6 503/7/6
f 501/3/6 502/3/6 505/3/6
f 505/3/6 502/3/6 506/3/6
f 503/3/6 504/3/6 507/3/6
f 507/3/6 504/3/6 508/3/6
f 506/3/6 507/3/6 509/3/6
f 509/3/6 507/3/6 510/3/6
f 511/2/6 512/2/6 515/2/6
f 515/2/6 512/2/6 516/2/6
f 513/2/6 514/2/6 517/2/6
f 517/2/6 514/2/6 518/2/6
f 516/2/6 517/2/6 519/2/6
f 519/2/6 517/2/6 520/2/6
f 521/2/6 522/2/6 524/2/6
f 524/2/6 522/2/6 525/2/6
f 523/2/6 524/2/6 527/2/6
f 525/2/6 526/2/6 527/2/6
f 524/2/6 525/2/6 527/2/6
f 527/2/6 526/2/6 528/2/6
