# MagicaVoxel @ Ephtracy

# group
g officerThree

# material
mtllib officerThree.mtl
usemtl palette

# normals
vn -1 0 0
vn 1 0 0
vn 0 0 1
vn 0 0 -1
vn 0 -1 0
vn 0 1 0

# texcoords
vt 0.263672 0.5
vt 0.306641 0.5
vt 0.310547 0.5
vt 0.845703 0.5
vt 0.912109 0.5
vt 0.919922 0.5
vt 0.970703 0.5
vt 0.974609 0.5
vt 0.990234 0.5
vt 0.994141 0.5

# verts
v -4.5 18 2
v -4.5 18 -1
v -4.5 20 2
v -4.5 20 1
v -4.5 20 -0
v -4.5 20 -1
v -4.5 21 2
v -4.5 21 1
v -4.5 21 -0
v -4.5 21 -1
v -4.5 33 2
v -4.5 33 -1
v -3.5 34 2
v -3.5 34 -1
v -3.5 35 2
v -3.5 35 1
v -3.5 35 -1
v -3.5 35 -2
v -3.5 41 1
v -3.5 41 -2
v -2.5 0 2
v -2.5 0 -1
v -2.5 1 2
v -2.5 1 1
v -2.5 2 2
v -2.5 2 1
v -2.5 18 2
v -2.5 18 1
v -2.5 18 -1
v -2.5 20 2
v -2.5 20 1
v -2.5 20 -1
v -2.5 21 2
v -2.5 21 1
v -2.5 21 -0
v -2.5 21 -1
v -2.5 33 2
v -2.5 33 -1
v -2.5 34 2
v -2.5 34 -1
v -2.5 35 -2
v -2.5 35 -3
v -2.5 36 2
v -2.5 36 1
v -2.5 39 2
v -2.5 39 1
v -2.5 41 2
v -2.5 41 1
v -2.5 41 -2
v -2.5 41 -3
v -2.5 42 1
v -2.5 42 -2
v -1.5 34 1
v -1.5 34 -0
v -1.5 34 -2
v -1.5 34 -3
v -1.5 35 1
v -1.5 35 -0
v -1.5 35 -2
v -1.5 35 -3
v -1.5 36 3
v -1.5 36 2
v -1.5 38 3
v -1.5 38 2
v -1.5 39 3
v -1.5 39 2
v -1.5 40 3
v -1.5 40 2
v -1.5 41 2
v -1.5 41 1
v -1.5 42 3
v -1.5 42 1
v -0.5 23 3
v -0.5 23 2
v -0.5 34 3
v -0.5 34 2
v -0.5 34 1
v -0.5 34 -0
v -0.5 34 -1
v -0.5 35 2
v -0.5 35 1
v -0.5 35 -0
v -0.5 35 -1
v -0.5 36 1
v -0.5 36 -0
v 0.5 0 2
v 0.5 0 -1
v 0.5 1 2
v 0.5 1 1
v 0.5 2 2
v 0.5 2 1
v 0.5 18 2
v 0.5 18 1
v 0.5 18 -1
v 2.5 34 2
v 2.5 34 -1
v 2.5 35 2
v 2.5 35 1
v 2.5 35 -1
v 2.5 35 -2
v 2.5 36 1
v 2.5 36 -2
v 3.5 20 1
v 3.5 20 -0
v 3.5 21 1
v 3.5 21 -0
v -3.5 20 1
v -3.5 20 -0
v -3.5 21 1
v -3.5 21 -0
v -2.5 34 2
v -2.5 34 -1
v -2.5 35 2
v -2.5 35 1
v -2.5 35 -1
v -2.5 35 -2
v -2.5 36 1
v -2.5 36 -2
v -0.5 0 2
v -0.5 0 -1
v -0.5 1 2
v -0.5 1 1
v -0.5 2 2
v -0.5 2 1
v -0.5 18 2
v -0.5 18 -1
v 0.5 23 3
v 0.5 23 2
v 0.5 34 3
v 0.5 34 2
v 0.5 34 1
v 0.5 34 -0
v 0.5 34 -1
v 0.5 35 2
v 0.5 35 1
v 0.5 35 -0
v 0.5 35 -1
v 0.5 36 1
v 0.5 36 -0
v 1.5 34 1
v 1.5 34 -0
v 1.5 34 -2
v 1.5 34 -3
v 1.5 35 1
v 1.5 35 -0
v 1.5 35 -2
v 1.5 35 -3
v 1.5 36 3
v 1.5 36 2
v 1.5 38 3
v 1.5 38 2
v 1.5 39 3
v 1.5 39 2
v 1.5 40 3
v 1.5 40 2
v 1.5 41 2
v 1.5 41 1
v 1.5 42 3
v 1.5 42 1
v 2.5 0 2
v 2.5 0 -1
v 2.5 1 2
v 2.5 1 1
v 2.5 2 2
v 2.5 2 1
v 2.5 18 2
v 2.5 18 -1
v 2.5 20 2
v 2.5 20 -1
v 2.5 21 2
v 2.5 21 1
v 2.5 21 -0
v 2.5 21 -1
v 2.5 33 2
v 2.5 33 -1
v 2.5 34 2
v 2.5 34 -1
v 2.5 35 -2
v 2.5 35 -3
v 2.5 36 2
v 2.5 36 1
v 2.5 39 2
v 2.5 39 1
v 2.5 41 2
v 2.5 41 1
v 2.5 41 -2
v 2.5 41 -3
v 2.5 42 1
v 2.5 42 -2
v 3.5 34 2
v 3.5 34 -1
v 3.5 35 2
v 3.5 35 1
v 3.5 35 -1
v 3.5 35 -2
v 3.5 41 1
v 3.5 41 -2
v 4.5 18 2
v 4.5 18 -1
v 4.5 20 2
v 4.5 20 1
v 4.5 20 -0
v 4.5 20 -1
v 4.5 21 2
v 4.5 21 1
v 4.5 21 -0
v 4.5 21 -1
v 4.5 33 2
v 4.5 33 -1
v -1.5 36 3
v -1.5 38 3
v -1.5 39 3
v -1.5 40 3
v -1.5 42 3
v -0.5 23 3
v -0.5 34 3
v -0.5 38 3
v -0.5 39 3
v -0.5 40 3
v -0.5 41 3
v 0.5 23 3
v 0.5 34 3
v 0.5 38 3
v 0.5 39 3
v 0.5 40 3
v 0.5 41 3
v 1.5 36 3
v 1.5 38 3
v 1.5 39 3
v 1.5 40 3
v 1.5 42 3
v -4.5 18 2
v -4.5 20 2
v -4.5 21 2
v -4.5 33 2
v -3.5 21 2
v -3.5 31 2
v -3.5 34 2
v -3.5 35 2
v -2.5 0 2
v -2.5 1 2
v -2.5 2 2
v -2.5 18 2
v -2.5 20 2
v -2.5 21 2
v -2.5 22 2
v -2.5 31 2
v -2.5 33 2
v -2.5 34 2
v -2.5 35 2
v -2.5 36 2
v -2.5 39 2
v -2.5 41 2
v -1.5 2 2
v -1.5 21 2
v -1.5 36 2
v -1.5 38 2
v -1.5 39 2
v -1.5 40 2
v -1.5 41 2
v -0.5 0 2
v -0.5 1 2
v -0.5 2 2
v -0.5 18 2
v -0.5 23 2
v -0.5 34 2
v -0.5 35 2
v 0.5 0 2
v 0.5 1 2
v 0.5 2 2
v 0.5 18 2
v 0.5 23 2
v 0.5 34 2
v 0.5 35 2
v 1.5 2 2
v 1.5 18 2
v 1.5 36 2
v 1.5 38 2
v 1.5 39 2
v 1.5 40 2
v 1.5 41 2
v 2.5 0 2
v 2.5 1 2
v 2.5 2 2
v 2.5 18 2
v 2.5 20 2
v 2.5 21 2
v 2.5 22 2
v 2.5 31 2
v 2.5 33 2
v 2.5 34 2
v 2.5 35 2
v 2.5 36 2
v 2.5 39 2
v 2.5 41 2
v 3.5 21 2
v 3.5 31 2
v 3.5 34 2
v 3.5 35 2
v 4.5 18 2
v 4.5 20 2
v 4.5 21 2
v 4.5 33 2
v -4.5 20 1
v -4.5 21 1
v -3.5 20 1
v -3.5 21 1
v -3.5 35 1
v -3.5 41 1
v -2.5 1 1
v -2.5 2 1
v -2.5 35 1
v -2.5 36 1
v -2.5 39 1
v -2.5 41 1
v -2.5 42 1
v -1.5 2 1
v -1.5 34 1
v -1.5 35 1
v -1.5 41 1
v -1.5 42 1
v -0.5 1 1
v -0.5 2 1
v -0.5 34 1
v -0.5 35 1
v -0.5 36 1
v 0.5 1 1
v 0.5 2 1
v 0.5 34 1
v 0.5 35 1
v 0.5 36 1
v 1.5 2 1
v 1.5 34 1
v 1.5 35 1
v 1.5 41 1
v 1.5 42 1
v 2.5 1 1
v 2.5 2 1
v 2.5 35 1
v 2.5 36 1
v 2.5 39 1
v 2.5 41 1
v 2.5 42 1
v 3.5 20 1
v 3.5 21 1
v 3.5 35 1
v 3.5 41 1
v 4.5 20 1
v 4.5 21 1
v -2.5 35 -2
v -2.5 36 -2
v -1.5 34 -2
v -1.5 35 -2
v 1.5 34 -2
v 1.5 35 -2
v 2.5 35 -2
v 2.5 36 -2
v -4.5 20 -0
v -4.5 21 -0
v -3.5 20 -0
v -3.5 21 -0
v -1.5 34 -0
v -1.5 35 -0
v -0.5 34 -0
v -0.5 35 -0
v -0.5 36 -0
v 0.5 34 -0
v 0.5 35 -0
v 0.5 36 -0
v 1.5 34 -0
v 1.5 35 -0
v 3.5 20 -0
v 3.5 21 -0
v 4.5 20 -0
v 4.5 21 -0
v -4.5 18 -1
v -4.5 20 -1
v -4.5 21 -1
v -4.5 33 -1
v -3.5 21 -1
v -3.5 31 -1
v -3.5 34 -1
v -3.5 35 -1
v -2.5 0 -1
v -2.5 18 -1
v -2.5 20 -1
v -2.5 21 -1
v -2.5 22 -1
v -2.5 31 -1
v -2.5 33 -1
v -2.5 34 -1
v -2.5 35 -1
v -0.5 0 -1
v -0.5 18 -1
v -0.5 34 -1
v -0.5 35 -1
v 0.5 0 -1
v 0.5 18 -1
v 0.5 34 -1
v 0.5 35 -1
v 2.5 0 -1
v 2.5 18 -1
v 2.5 20 -1
v 2.5 21 -1
v 2.5 22 -1
v 2.5 31 -1
v 2.5 33 -1
v 2.5 34 -1
v 2.5 35 -1
v 3.5 21 -1
v 3.5 31 -1
v 3.5 34 -1
v 3.5 35 -1
v 4.5 18 -1
v 4.5 20 -1
v 4.5 21 -1
v 4.5 33 -1
v -3.5 35 -2
v -3.5 41 -2
v -2.5 35 -2
v -2.5 41 -2
v -2.5 42 -2
v 2.5 35 -2
v 2.5 41 -2
v 2.5 42 -2
v 3.5 35 -2
v 3.5 41 -2
v -2.5 35 -3
v -2.5 41 -3
v -1.5 34 -3
v -1.5 35 -3
v 1.5 34 -3
v 1.5 35 -3
v 2.5 35 -3
v 2.5 41 -3
v -2.5 0 2
v -0.5 0 2
v 0.5 0 2
v 2.5 0 2
v -2.5 0 -1
v -0.5 0 -1
v 0.5 0 -1
v 2.5 0 -1
v -2.5 2 2
v -1.5 2 2
v -0.5 2 2
v 0.5 2 2
v 1.5 2 2
v 2.5 2 2
v -2.5 2 1
v -1.5 2 1
v -0.5 2 1
v 0.5 2 1
v 1.5 2 1
v 2.5 2 1
v -4.5 18 2
v -2.5 18 2
v -0.5 18 2
v 0.5 18 2
v 2.5 18 2
v 4.5 18 2
v -2.5 18 1
v 0.5 18 1
v -4.5 18 -1
v -2.5 18 -1
v -0.5 18 -1
v 0.5 18 -1
v 2.5 18 -1
v 4.5 18 -1
v -4.5 21 2
v -3.5 21 2
v -2.5 21 2
v 2.5 21 2
v 3.5 21 2
v 4.5 21 2
v -4.5 21 1
v -3.5 21 1
v -2.5 21 1
v 2.5 21 1
v 3.5 21 1
v 4.5 21 1
v -4.5 21 -0
v -3.5 21 -0
v -2.5 21 -0
v 2.5 21 -0
v 3.5 21 -0
v 4.5 21 -0
v -4.5 21 -1
v -3.5 21 -1
v -2.5 21 -1
v 2.5 21 -1
v 3.5 21 -1
v 4.5 21 -1
v -0.5 23 3
v 0.5 23 3
v -0.5 23 2
v 0.5 23 2
v -3.5 34 2
v -2.5 34 2
v 2.5 34 2
v 3.5 34 2
v -3.5 34 -1
v -2.5 34 -1
v 2.5 34 -1
v 3.5 34 -1
v -1.5 34 -2
v 1.5 34 -2
v -1.5 34 -3
v 1.5 34 -3
v -3.5 35 -1
v -2.5 35 -1
v 2.5 35 -1
v 3.5 35 -1
v -3.5 35 -2
v -2.5 35 -2
v -1.5 35 -2
v 1.5 35 -2
v 2.5 35 -2
v 3.5 35 -2
v -2.5 35 -3
v -1.5 35 -3
v 1.5 35 -3
v 2.5 35 -3
v -1.5 36 3
v 1.5 36 3
v -2.5 36 2
v -1.5 36 2
v 1.5 36 2
v 2.5 36 2
v -2.5 36 1
v -0.5 36 1
v 0.5 36 1
v 2.5 36 1
v -0.5 36 -0
v 0.5 36 -0
v -2.5 36 -2
v 2.5 36 -2
v -2.5 1 2
v -0.5 1 2
v 0.5 1 2
v 2.5 1 2
v -2.5 1 1
v -0.5 1 1
v 0.5 1 1
v 2.5 1 1
v -4.5 20 2
v -2.5 20 2
v 2.5 20 2
v 4.5 20 2
v -4.5 20 1
v -3.5 20 1
v -2.5 20 1
v 3.5 20 1
v 4.5 20 1
v -4.5 20 -0
v -3.5 20 -0
v 3.5 20 -0
v 4.5 20 -0
v -4.5 20 -1
v -2.5 20 -1
v 2.5 20 -1
v 4.5 20 -1
v -4.5 33 2
v -2.5 33 2
v 2.5 33 2
v 4.5 33 2
v -4.5 33 -1
v -2.5 33 -1
v 2.5 33 -1
v 4.5 33 -1
v -0.5 34 3
v 0.5 34 3
v -2.5 34 2
v -0.5 34 2
v 0.5 34 2
v 2.5 34 2
v -1.5 34 1
v -0.5 34 1
v 0.5 34 1
v 1.5 34 1
v -1.5 34 -0
v -0.5 34 -0
v 0.5 34 -0
v 1.5 34 -0
v -2.5 34 -1
v -0.5 34 -1
v 0.5 34 -1
v 2.5 34 -1
v -3.5 35 2
v -2.5 35 2
v -0.5 35 2
v 0.5 35 2
v 2.5 35 2
v 3.5 35 2
v -3.5 35 1
v -2.5 35 1
v -1.5 35 1
v -0.5 35 1
v 0.5 35 1
v 1.5 35 1
v 2.5 35 1
v 3.5 35 1
v -1.5 35 -0
v -0.5 35 -0
v 0.5 35 -0
v 1.5 35 -0
v -0.5 35 -1
v 0.5 35 -1
v -2.5 41 2
v -1.5 41 2
v 1.5 41 2
v 2.5 41 2
v -3.5 41 1
v -2.5 41 1
v -1.5 41 1
v 1.5 41 1
v 2.5 41 1
v 3.5 41 1
v -3.5 41 -2
v -2.5 41 -2
v 2.5 41 -2
v 3.5 41 -2
v -2.5 41 -3
v 2.5 41 -3
v -1.5 42 3
v 1.5 42 3
v -2.5 42 1
v -1.5 42 1
v 1.5 42 1
v 2.5 42 1
v -2.5 42 -2
v 2.5 42 -2

# faces
f 3/1/1 2/1/1 1/1/1
f 4/1/1 2/1/1 3/1/1
f 5/1/1 2/1/1 4/1/1
f 6/1/1 2/1/1 5/1/1
f 8/1/1 5/1/1 4/1/1
f 9/1/1 5/1/1 8/1/1
f 11/5/1 8/5/1 7/5/1
f 11/5/1 10/5/1 9/5/1
f 11/5/1 9/5/1 8/5/1
f 12/5/1 10/5/1 11/5/1
f 15/7/1 14/7/1 13/7/1
f 16/7/1 14/7/1 15/7/1
f 17/7/1 14/7/1 16/7/1
f 19/7/1 18/7/1 17/7/1
f 19/7/1 17/7/1 16/7/1
f 20/7/1 18/7/1 19/7/1
f 23/10/1 22/10/1 21/10/1
f 24/10/1 22/10/1 23/10/1
f 26/10/1 22/10/1 24/10/1
f 27/9/1 26/9/1 25/9/1
f 28/10/1 22/10/1 26/10/1
f 28/9/1 26/9/1 27/9/1
f 29/10/1 22/10/1 28/10/1
f 33/9/1 31/9/1 30/9/1
f 34/10/1 32/10/1 31/10/1
f 34/9/1 31/9/1 33/9/1
f 35/10/1 32/10/1 34/10/1
f 36/10/1 32/10/1 35/10/1
f 39/5/1 38/5/1 37/5/1
f 40/5/1 38/5/1 39/5/1
f 45/1/1 44/1/1 43/1/1
f 46/1/1 44/1/1 45/1/1
f 47/7/1 46/7/1 45/7/1
f 48/7/1 46/7/1 47/7/1
f 49/7/1 42/7/1 41/7/1
f 50/7/1 42/7/1 49/7/1
f 51/7/1 49/7/1 48/7/1
f 52/7/1 49/7/1 51/7/1
f 57/5/1 54/5/1 53/5/1
f 58/5/1 54/5/1 57/5/1
f 59/7/1 56/7/1 55/7/1
f 60/7/1 56/7/1 59/7/1
f 63/1/1 62/1/1 61/1/1
f 64/1/1 62/1/1 63/1/1
f 65/10/1 64/10/1 63/10/1
f 66/10/1 64/10/1 65/10/1
f 67/1/1 66/1/1 65/1/1
f 68/1/1 66/1/1 67/1/1
f 69/7/1 68/7/1 67/7/1
f 71/7/1 69/7/1 67/7/1
f 71/7/1 70/7/1 69/7/1
f 72/7/1 70/7/1 71/7/1
f 75/4/1 74/4/1 73/4/1
f 76/4/1 74/4/1 75/4/1
f 80/4/1 77/4/1 76/4/1
f 81/4/1 77/4/1 80/4/1
f 82/5/1 79/5/1 78/5/1
f 83/5/1 79/5/1 82/5/1
f 84/1/1 82/1/1 81/1/1
f 85/1/1 82/1/1 84/1/1
f 88/10/1 87/10/1 86/10/1
f 89/10/1 87/10/1 88/10/1
f 91/10/1 87/10/1 89/10/1
f 92/9/1 91/9/1 90/9/1
f 93/10/1 87/10/1 91/10/1
f 93/9/1 91/9/1 92/9/1
f 94/10/1 87/10/1 93/10/1
f 97/7/1 96/7/1 95/7/1
f 98/7/1 96/7/1 97/7/1
f 99/7/1 96/7/1 98/7/1
f 101/7/1 100/7/1 99/7/1
f 101/7/1 99/7/1 98/7/1
f 102/7/1 100/7/1 101/7/1
f 105/1/1 104/1/1 103/1/1
f 106/1/1 104/1/1 105/1/1
f 107/1/2 108/1/2 109/1/2
f 109/1/2 108/1/2 110/1/2
f 111/7/2 112/7/2 113/7/2
f 113/7/2 112/7/2 114/7/2
f 114/7/2 112/7/2 115/7/2
f 115/7/2 116/7/2 117/7/2
f 114/7/2 115/7/2 117/7/2
f 117/7/2 116/7/2 118/7/2
f 119/10/2 120/10/2 121/10/2
f 121/10/2 120/10/2 122/10/2
f 122/10/2 120/10/2 124/10/2
f 123/10/2 124/10/2 125/10/2
f 124/10/2 120/10/2 126/10/2
f 125/10/2 124/10/2 126/10/2
f 127/4/2 128/4/2 129/4/2
f 129/4/2 128/4/2 130/4/2
f 130/4/2 131/4/2 134/4/2
f 134/4/2 131/4/2 135/4/2
f 132/5/2 133/5/2 136/5/2
f 136/5/2 133/5/2 137/5/2
f 135/1/2 136/1/2 138/1/2
f 138/1/2 136/1/2 139/1/2
f 140/5/2 141/5/2 144/5/2
f 144/5/2 141/5/2 145/5/2
f 142/7/2 143/7/2 146/7/2
f 146/7/2 143/7/2 147/7/2
f 148/1/2 149/1/2 150/1/2
f 150/1/2 149/1/2 151/1/2
f 150/10/2 151/10/2 152/10/2
f 152/10/2 151/10/2 153/10/2
f 152/1/2 153/1/2 154/1/2
f 154/1/2 153/1/2 155/1/2
f 154/7/2 155/7/2 156/7/2
f 154/7/2 156/7/2 158/7/2
f 156/7/2 157/7/2 158/7/2
f 158/7/2 157/7/2 159/7/2
f 160/10/2 161/10/2 162/10/2
f 162/10/2 161/10/2 163/10/2
f 163/10/2 161/10/2 165/10/2
f 164/10/2 165/10/2 166/10/2
f 165/10/2 161/10/2 167/10/2
f 166/10/2 165/10/2 167/10/2
f 168/10/2 169/10/2 170/10/2
f 170/10/2 169/10/2 171/10/2
f 171/10/2 169/10/2 172/10/2
f 172/10/2 169/10/2 173/10/2
f 174/5/2 175/5/2 176/5/2
f 176/5/2 175/5/2 177/5/2
f 180/1/2 181/1/2 182/1/2
f 182/1/2 181/1/2 183/1/2
f 182/7/2 183/7/2 184/7/2
f 184/7/2 183/7/2 185/7/2
f 178/7/2 179/7/2 186/7/2
f 186/7/2 179/7/2 187/7/2
f 185/7/2 186/7/2 188/7/2
f 188/7/2 186/7/2 189/7/2
f 190/7/2 191/7/2 192/7/2
f 192/7/2 191/7/2 193/7/2
f 193/7/2 191/7/2 194/7/2
f 194/7/2 195/7/2 196/7/2
f 193/7/2 194/7/2 196/7/2
f 196/7/2 195/7/2 197/7/2
f 198/1/2 199/1/2 200/1/2
f 200/1/2 199/1/2 201/1/2
f 201/1/2 199/1/2 202/1/2
f 202/1/2 199/1/2 203/1/2
f 201/1/2 202/1/2 205/1/2
f 205/1/2 202/1/2 206/1/2
f 204/5/2 205/5/2 208/5/2
f 206/5/2 207/5/2 208/5/2
f 205/5/2 206/5/2 208/5/2
f 208/5/2 207/5/2 209/5/2
f 217/1/3 211/1/3 210/1/3
f 217/10/3 212/10/3 211/10/3
f 218/1/3 213/1/3 212/1/3
f 218/10/3 212/10/3 217/10/3
f 219/7/3 214/7/3 213/7/3
f 219/1/3 213/1/3 218/1/3
f 220/7/3 214/7/3 219/7/3
f 221/4/3 216/4/3 215/4/3
f 222/4/3 216/4/3 221/4/3
f 223/1/3 218/1/3 217/1/3
f 223/1/3 217/1/3 210/1/3
f 223/1/3 219/1/3 218/1/3
f 223/1/3 220/1/3 219/1/3
f 224/1/3 220/1/3 223/1/3
f 225/1/3 220/1/3 224/1/3
f 226/7/3 214/7/3 220/7/3
f 226/1/3 220/1/3 225/1/3
f 227/1/3 223/1/3 210/1/3
f 228/10/3 224/10/3 223/10/3
f 228/1/3 223/1/3 227/1/3
f 229/1/3 225/1/3 224/1/3
f 229/10/3 224/10/3 228/10/3
f 230/7/3 226/7/3 225/7/3
f 230/1/3 225/1/3 229/1/3
f 231/7/3 214/7/3 226/7/3
f 231/7/3 226/7/3 230/7/3
f 236/5/3 235/5/3 234/5/3
f 237/5/3 235/5/3 236/5/3
f 243/1/3 233/1/3 232/1/3
f 244/1/3 233/1/3 243/1/3
f 245/6/3 237/6/3 236/6/3
f 246/6/3 237/6/3 245/6/3
f 247/5/3 235/5/3 237/5/3
f 247/6/3 237/6/3 246/6/3
f 248/5/3 235/5/3 247/5/3
f 249/7/3 239/7/3 238/7/3
f 250/7/3 239/7/3 249/7/3
f 254/9/3 244/9/3 243/9/3
f 254/9/3 243/9/3 242/9/3
f 254/9/3 245/9/3 244/9/3
f 255/10/3 246/10/3 245/10/3
f 255/9/3 245/9/3 254/9/3
f 256/1/3 252/1/3 251/1/3
f 257/1/3 252/1/3 256/1/3
f 258/7/3 253/7/3 252/7/3
f 258/1/3 252/1/3 257/1/3
f 259/7/3 253/7/3 258/7/3
f 260/7/3 253/7/3 259/7/3
f 261/10/3 241/10/3 240/10/3
f 262/10/3 241/10/3 261/10/3
f 263/10/3 255/10/3 254/10/3
f 264/10/3 255/10/3 263/10/3
f 265/5/3 248/5/3 247/5/3
f 265/5/3 249/5/3 248/5/3
f 265/5/3 247/5/3 246/5/3
f 266/5/3 249/5/3 265/5/3
f 271/10/3 255/10/3 264/10/3
f 272/5/3 265/5/3 246/5/3
f 273/4/3 267/4/3 266/4/3
f 274/4/3 267/4/3 273/4/3
f 275/9/3 271/9/3 270/9/3
f 276/10/3 255/10/3 271/10/3
f 276/9/3 271/9/3 275/9/3
f 282/10/3 269/10/3 268/10/3
f 283/10/3 269/10/3 282/10/3
f 284/10/3 276/10/3 275/10/3
f 285/10/3 255/10/3 276/10/3
f 285/10/3 276/10/3 284/10/3
f 286/10/3 255/10/3 285/10/3
f 287/10/3 246/10/3 255/10/3
f 287/10/3 255/10/3 286/10/3
f 288/5/3 272/5/3 246/5/3
f 288/10/3 246/10/3 287/10/3
f 288/5/3 273/5/3 272/5/3
f 289/5/3 273/5/3 288/5/3
f 290/5/3 273/5/3 289/5/3
f 291/5/3 273/5/3 290/5/3
f 293/1/3 278/1/3 277/1/3
f 293/1/3 279/1/3 278/1/3
f 294/7/3 281/7/3 280/7/3
f 294/1/3 279/1/3 293/1/3
f 294/7/3 280/7/3 279/7/3
f 295/7/3 281/7/3 294/7/3
f 296/6/3 289/6/3 288/6/3
f 296/6/3 288/6/3 287/6/3
f 297/5/3 290/5/3 289/5/3
f 297/6/3 289/6/3 296/6/3
f 298/7/3 292/7/3 291/7/3
f 299/7/3 292/7/3 298/7/3
f 300/1/3 286/1/3 285/1/3
f 301/1/3 286/1/3 300/1/3
f 302/5/3 297/5/3 296/5/3
f 303/5/3 290/5/3 297/5/3
f 303/5/3 297/5/3 302/5/3
f 306/1/3 305/1/3 304/1/3
f 307/1/3 305/1/3 306/1/3
f 312/7/3 309/7/3 308/7/3
f 313/7/3 309/7/3 312/7/3
f 314/7/3 309/7/3 313/7/3
f 315/7/3 309/7/3 314/7/3
f 317/10/3 311/10/3 310/10/3
f 320/7/3 316/7/3 315/7/3
f 321/7/3 316/7/3 320/7/3
f 322/10/3 317/10/3 310/10/3
f 323/10/3 317/10/3 322/10/3
f 324/5/3 319/5/3 318/5/3
f 325/5/3 319/5/3 324/5/3
f 330/1/3 326/1/3 325/1/3
f 331/1/3 326/1/3 330/1/3
f 332/10/3 328/10/3 327/10/3
f 333/5/3 330/5/3 329/5/3
f 334/5/3 330/5/3 333/5/3
f 337/10/3 332/10/3 327/10/3
f 338/10/3 332/10/3 337/10/3
f 342/7/3 336/7/3 335/7/3
f 343/7/3 336/7/3 342/7/3
f 346/7/3 341/7/3 340/7/3
f 346/7/3 340/7/3 339/7/3
f 346/7/3 342/7/3 341/7/3
f 347/7/3 342/7/3 346/7/3
f 348/1/3 345/1/3 344/1/3
f 349/1/3 345/1/3 348/1/3
f 353/7/3 351/7/3 350/7/3
f 354/7/3 353/7/3 352/7/3
f 355/7/3 351/7/3 353/7/3
f 355/7/3 353/7/3 354/7/3
f 356/7/3 351/7/3 355/7/3
f 357/7/3 351/7/3 356/7/3
f 358/1/4 359/1/4 360/1/4
f 360/1/4 359/1/4 361/1/4
f 362/5/4 363/5/4 364/5/4
f 364/5/4 363/5/4 365/5/4
f 365/1/4 366/1/4 368/1/4
f 368/1/4 366/1/4 369/1/4
f 367/5/4 368/5/4 370/5/4
f 370/5/4 368/5/4 371/5/4
f 372/1/4 373/1/4 374/1/4
f 374/1/4 373/1/4 375/1/4
f 378/5/4 379/5/4 380/5/4
f 380/5/4 379/5/4 381/5/4
f 376/1/4 377/1/4 385/1/4
f 385/1/4 377/1/4 386/1/4
f 380/6/4 381/6/4 387/6/4
f 387/6/4 381/6/4 388/6/4
f 381/5/4 379/5/4 389/5/4
f 388/6/4 381/6/4 389/6/4
f 389/5/4 379/5/4 390/5/4
f 382/7/4 383/7/4 391/7/4
f 391/7/4 383/7/4 392/7/4
f 385/10/4 386/10/4 393/10/4
f 387/10/4 388/10/4 393/10/4
f 384/10/4 385/10/4 393/10/4
f 386/10/4 387/10/4 393/10/4
f 393/10/4 388/10/4 394/10/4
f 389/5/4 390/5/4 395/5/4
f 390/5/4 391/5/4 395/5/4
f 388/5/4 389/5/4 395/5/4
f 394/10/4 388/10/4 398/10/4
f 388/5/4 395/5/4 399/5/4
f 395/5/4 396/5/4 399/5/4
f 399/5/4 396/5/4 400/5/4
f 397/10/4 398/10/4 401/10/4
f 398/10/4 388/10/4 402/10/4
f 401/10/4 398/10/4 402/10/4
f 402/10/4 388/10/4 403/10/4
f 403/10/4 388/10/4 404/10/4
f 388/5/4 399/5/4 405/5/4
f 404/10/4 388/10/4 405/10/4
f 405/5/4 399/5/4 406/5/4
f 406/5/4 399/5/4 407/5/4
f 407/5/4 399/5/4 408/5/4
f 404/6/4 405/6/4 410/6/4
f 405/6/4 406/6/4 410/6/4
f 406/5/4 407/5/4 411/5/4
f 410/6/4 406/6/4 411/6/4
f 408/7/4 409/7/4 412/7/4
f 412/7/4 409/7/4 413/7/4
f 402/1/4 403/1/4 414/1/4
f 414/1/4 403/1/4 415/1/4
f 410/5/4 411/5/4 416/5/4
f 411/5/4 407/5/4 417/5/4
f 416/5/4 411/5/4 417/5/4
f 418/7/4 419/7/4 420/7/4
f 420/7/4 419/7/4 421/7/4
f 421/7/4 422/7/4 424/7/4
f 424/7/4 422/7/4 425/7/4
f 423/7/4 424/7/4 426/7/4
f 426/7/4 424/7/4 427/7/4
f 428/7/4 429/7/4 431/7/4
f 430/7/4 431/7/4 432/7/4
f 431/7/4 429/7/4 433/7/4
f 432/7/4 431/7/4 433/7/4
f 433/7/4 429/7/4 434/7/4
f 434/7/4 429/7/4 435/7/4
f 440/10/5 437/10/5 436/10/5
f 441/10/5 437/10/5 440/10/5
f 442/10/5 439/10/5 438/10/5
f 443/10/5 439/10/5 442/10/5
f 450/9/5 445/9/5 444/9/5
f 451/10/5 446/10/5 445/10/5
f 451/9/5 445/9/5 450/9/5
f 452/10/5 446/10/5 451/10/5
f 453/9/5 448/9/5 447/9/5
f 454/10/5 449/10/5 448/10/5
f 454/9/5 448/9/5 453/9/5
f 455/10/5 449/10/5 454/10/5
f 462/1/5 457/1/5 456/1/5
f 463/10/5 459/10/5 458/10/5
f 464/1/5 462/1/5 456/1/5
f 465/1/5 462/1/5 464/1/5
f 466/10/5 463/10/5 458/10/5
f 467/10/5 463/10/5 466/10/5
f 468/1/5 461/1/5 460/1/5
f 469/1/5 461/1/5 468/1/5
f 476/5/5 471/5/5 470/5/5
f 477/6/5 472/6/5 471/6/5
f 477/5/5 471/5/5 476/5/5
f 478/6/5 472/6/5 477/6/5
f 479/6/5 474/6/5 473/6/5
f 480/5/5 475/5/5 474/5/5
f 480/6/5 474/6/5 479/6/5
f 481/5/5 475/5/5 480/5/5
f 483/5/5 478/5/5 477/5/5
f 484/5/5 478/5/5 483/5/5
f 485/5/5 480/5/5 479/5/5
f 486/5/5 480/5/5 485/5/5
f 488/5/5 483/5/5 482/5/5
f 489/6/5 484/6/5 483/6/5
f 489/5/5 483/5/5 488/5/5
f 490/6/5 484/6/5 489/6/5
f 491/6/5 486/6/5 485/6/5
f 492/5/5 487/5/5 486/5/5
f 492/6/5 486/6/5 491/6/5
f 493/5/5 487/5/5 492/5/5
f 496/4/5 495/4/5 494/4/5
f 497/4/5 495/4/5 496/4/5
f 502/7/5 499/7/5 498/7/5
f 503/7/5 499/7/5 502/7/5
f 504/7/5 501/7/5 500/7/5
f 505/7/5 501/7/5 504/7/5
f 508/7/5 507/7/5 506/7/5
f 509/7/5 507/7/5 508/7/5
f 514/7/5 511/7/5 510/7/5
f 515/7/5 511/7/5 514/7/5
f 518/7/5 513/7/5 512/7/5
f 519/7/5 513/7/5 518/7/5
f 520/7/5 516/7/5 515/7/5
f 521/7/5 516/7/5 520/7/5
f 522/7/5 518/7/5 517/7/5
f 523/7/5 518/7/5 522/7/5
f 527/1/5 525/1/5 524/1/5
f 528/1/5 525/1/5 527/1/5
f 530/1/5 527/1/5 526/1/5
f 530/1/5 529/1/5 528/1/5
f 530/1/5 528/1/5 527/1/5
f 531/1/5 529/1/5 530/1/5
f 532/1/5 529/1/5 531/1/5
f 533/1/5 529/1/5 532/1/5
f 534/1/5 531/1/5 530/1/5
f 535/1/5 533/1/5 532/1/5
f 536/1/5 534/1/5 530/1/5
f 536/1/5 535/1/5 534/1/5
f 537/1/5 533/1/5 535/1/5
f 537/1/5 535/1/5 536/1/5
f 538/10/6 539/10/6 542/10/6
f 542/10/6 539/10/6 543/10/6
f 540/10/6 541/10/6 544/10/6
f 544/10/6 541/10/6 545/10/6
f 546/1/6 547/1/6 550/1/6
f 550/1/6 547/1/6 551/1/6
f 551/1/6 547/1/6 552/1/6
f 548/1/6 549/1/6 553/1/6
f 553/1/6 549/1/6 554/1/6
f 551/1/6 552/1/6 556/1/6
f 548/1/6 553/1/6 557/1/6
f 555/1/6 556/1/6 559/1/6
f 556/1/6 552/1/6 560/1/6
f 559/1/6 556/1/6 560/1/6
f 557/1/6 558/1/6 561/1/6
f 548/1/6 557/1/6 561/1/6
f 561/1/6 558/1/6 562/1/6
f 563/5/6 564/5/6 567/5/6
f 567/5/6 564/5/6 568/5/6
f 565/5/6 566/5/6 569/5/6
f 569/5/6 566/5/6 570/5/6
f 571/4/6 572/4/6 574/4/6
f 574/4/6 572/4/6 575/4/6
f 573/5/6 574/5/6 577/5/6
f 577/5/6 574/5/6 578/5/6
f 575/5/6 576/5/6 579/5/6
f 579/5/6 576/5/6 580/5/6
f 573/5/6 577/5/6 581/5/6
f 580/5/6 576/5/6 584/5/6
f 581/5/6 582/5/6 585/5/6
f 573/5/6 581/5/6 585/5/6
f 585/5/6 582/5/6 586/5/6
f 583/5/6 584/5/6 587/5/6
f 584/5/6 576/5/6 588/5/6
f 587/5/6 584/5/6 588/5/6
f 589/7/6 590/7/6 595/7/6
f 595/7/6 590/7/6 596/7/6
f 591/4/6 592/4/6 598/4/6
f 598/4/6 592/4/6 599/4/6
f 593/7/6 594/7/6 601/7/6
f 601/7/6 594/7/6 602/7/6
f 597/5/6 598/5/6 603/5/6
f 603/5/6 598/5/6 604/5/6
f 599/5/6 600/5/6 605/5/6
f 605/5/6 600/5/6 606/5/6
f 604/5/6 605/5/6 607/5/6
f 607/5/6 605/5/6 608/5/6
f 609/7/6 610/7/6 614/7/6
f 614/7/6 610/7/6 615/7/6
f 611/7/6 612/7/6 616/7/6
f 616/7/6 612/7/6 617/7/6
f 613/7/6 614/7/6 619/7/6
f 619/7/6 614/7/6 620/7/6
f 617/7/6 618/7/6 621/7/6
f 621/7/6 618/7/6 622/7/6
f 620/7/6 621/7/6 623/7/6
f 623/7/6 621/7/6 624/7/6
f 625/7/6 626/7/6 628/7/6
f 628/7/6 626/7/6 629/7/6
f 627/7/6 628/7/6 631/7/6
f 629/7/6 630/7/6 631/7/6
f 628/7/6 629/7/6 631/7/6
f 631/7/6 630/7/6 632/7/6
