# MagicaVoxel @ Ephtracy

# group
g Tony_Ethn1_Walking1

# material
mtllib Tony_Ethn1_Walking1.mtl
usemtl palette

# normals
vn -1 0 0
vn 1 0 0
vn 0 0 1
vn 0 0 -1
vn 0 -1 0
vn 0 1 0

# texcoords
vt 0.00585938 0.5
vt 0.146484 0.5
vt 0.306641 0.5
vt 0.314453 0.5
vt 0.759766 0.5
vt 0.775391 0.5
vt 0.779297 0.5
vt 0.931641 0.5
vt 0.939453 0.5
vt 0.994141 0.5

# verts
v -4.5 18 3
v -4.5 18 -0
v -4.5 21 3
v -4.5 21 -0
v -4.5 34 3
v -4.5 34 -0
v -3.5 38 -0
v -3.5 38 -3
v -3.5 39 2
v -3.5 39 -0
v -3.5 41 2
v -3.5 41 -3
v -2.5 0 1
v -2.5 0 -2
v -2.5 1 1
v -2.5 1 -0
v -2.5 2 1
v -2.5 2 -0
v -2.5 2 -2
v -2.5 18 1
v -2.5 18 -0
v -2.5 18 -1
v -2.5 18 -2
v -2.5 20 2
v -2.5 20 1
v -2.5 20 -0
v -2.5 21 2
v -2.5 21 1
v -2.5 21 -0
v -2.5 21 -1
v -2.5 22 -0
v -2.5 22 -1
v -2.5 31 -0
v -2.5 34 -0
v -2.5 34 -1
v -2.5 36 3
v -2.5 36 -2
v -2.5 38 -0
v -2.5 38 -2
v -2.5 39 3
v -2.5 39 2
v -2.5 39 -0
v -2.5 41 3
v -2.5 41 2
v -2.5 41 -2
v -2.5 42 2
v -2.5 42 -2
v -1.5 34 2
v -1.5 34 -1
v -1.5 35 2
v -1.5 35 -1
v -0.5 23 3
v -0.5 23 2
v -0.5 34 3
v -0.5 34 2
v -0.5 35 1
v -0.5 35 -0
v -0.5 36 1
v -0.5 36 -0
v 0.5 0 3
v 0.5 0 -0
v 0.5 1 3
v 0.5 1 2
v 0.5 2 3
v 0.5 2 2
v 0.5 2 -0
v 0.5 18 3
v 0.5 18 2
v 0.5 18 -0
v 2.5 18 -1
v 2.5 18 -2
v 2.5 20 -1
v 2.5 20 -2
v 2.5 21 -1
v 2.5 21 -2
v 2.5 22 -1
v 2.5 31 -1
v 2.5 31 -2
v 2.5 34 -1
v 2.5 34 -2
v 3.5 20 1
v 3.5 20 -2
v 3.5 21 1
v 3.5 21 -0
v 3.5 21 -1
v 3.5 21 -2
v -3.5 20 3
v -3.5 20 -0
v -3.5 21 3
v -3.5 21 2
v -3.5 21 1
v -3.5 21 -0
v -2.5 18 3
v -2.5 18 2
v -2.5 20 3
v -2.5 20 2
v -2.5 21 3
v -2.5 21 2
v -2.5 22 2
v -2.5 31 3
v -2.5 31 2
v -2.5 34 3
v -2.5 34 2
v -0.5 0 1
v -0.5 0 -2
v -0.5 1 1
v -0.5 1 -0
v -0.5 2 1
v -0.5 2 -0
v -0.5 2 -2
v -0.5 18 1
v -0.5 18 -1
v -0.5 18 -2
v 0.5 23 3
v 0.5 23 2
v 0.5 34 3
v 0.5 34 2
v 0.5 35 1
v 0.5 35 -0
v 0.5 36 1
v 0.5 36 -0
v 1.5 34 2
v 1.5 34 -1
v 1.5 35 2
v 1.5 35 -1
v 2.5 0 3
v 2.5 0 -0
v 2.5 1 3
v 2.5 1 2
v 2.5 2 3
v 2.5 2 2
v 2.5 2 -0
v 2.5 18 3
v 2.5 18 2
v 2.5 18 1
v 2.5 18 -0
v 2.5 20 1
v 2.5 20 -1
v 2.5 21 2
v 2.5 21 1
v 2.5 21 -0
v 2.5 21 -1
v 2.5 22 2
v 2.5 22 1
v 2.5 31 1
v 2.5 34 2
v 2.5 34 1
v 2.5 36 3
v 2.5 36 -2
v 2.5 38 -0
v 2.5 38 -2
v 2.5 39 3
v 2.5 39 2
v 2.5 39 -0
v 2.5 41 3
v 2.5 41 2
v 2.5 41 -2
v 2.5 42 2
v 2.5 42 -2
v 3.5 38 -0
v 3.5 38 -3
v 3.5 39 2
v 3.5 39 -0
v 3.5 41 2
v 3.5 41 -3
v 4.5 18 1
v 4.5 18 -2
v 4.5 21 1
v 4.5 21 -2
v 4.5 34 1
v 4.5 34 -2
v -4.5 18 3
v -4.5 21 3
v -4.5 34 3
v -3.5 20 3
v -3.5 21 3
v -3.5 31 3
v -2.5 18 3
v -2.5 20 3
v -2.5 21 3
v -2.5 31 3
v -2.5 34 3
v -2.5 36 3
v -2.5 39 3
v -2.5 41 3
v -1.5 38 3
v -1.5 39 3
v -1.5 40 3
v -0.5 23 3
v -0.5 34 3
v -0.5 38 3
v -0.5 39 3
v -0.5 40 3
v 0.5 0 3
v 0.5 1 3
v 0.5 2 3
v 0.5 18 3
v 0.5 23 3
v 0.5 34 3
v 0.5 38 3
v 0.5 39 3
v 0.5 40 3
v 1.5 2 3
v 1.5 18 3
v 1.5 38 3
v 1.5 39 3
v 1.5 40 3
v 2.5 0 3
v 2.5 1 3
v 2.5 2 3
v 2.5 18 3
v 2.5 36 3
v 2.5 39 3
v 2.5 41 3
v -3.5 39 2
v -3.5 41 2
v -2.5 18 2
v -2.5 20 2
v -2.5 21 2
v -2.5 22 2
v -2.5 31 2
v -2.5 34 2
v -2.5 39 2
v -2.5 41 2
v -2.5 42 2
v -1.5 18 2
v -1.5 21 2
v -1.5 34 2
v -1.5 35 2
v -0.5 23 2
v -0.5 34 2
v -0.5 35 2
v 0.5 1 2
v 0.5 2 2
v 0.5 18 2
v 0.5 23 2
v 0.5 34 2
v 0.5 35 2
v 1.5 2 2
v 1.5 18 2
v 1.5 34 2
v 1.5 35 2
v 2.5 1 2
v 2.5 2 2
v 2.5 18 2
v 2.5 21 2
v 2.5 22 2
v 2.5 34 2
v 2.5 39 2
v 2.5 41 2
v 2.5 42 2
v 3.5 39 2
v 3.5 41 2
v -2.5 0 1
v -2.5 1 1
v -2.5 2 1
v -2.5 18 1
v -1.5 2 1
v -1.5 18 1
v -0.5 0 1
v -0.5 1 1
v -0.5 2 1
v -0.5 18 1
v -0.5 35 1
v -0.5 36 1
v 0.5 35 1
v 0.5 36 1
v 2.5 18 1
v 2.5 20 1
v 2.5 21 1
v 2.5 22 1
v 2.5 31 1
v 2.5 34 1
v 3.5 20 1
v 3.5 21 1
v 3.5 31 1
v 4.5 18 1
v 4.5 21 1
v 4.5 34 1
v -3.5 38 -0
v -3.5 39 -0
v -2.5 1 -0
v -2.5 2 -0
v -2.5 38 -0
v -2.5 39 -0
v -1.5 2 -0
v -0.5 1 -0
v -0.5 2 -0
v 2.5 38 -0
v 2.5 39 -0
v 3.5 38 -0
v 3.5 39 -0
v -4.5 18 -0
v -4.5 21 -0
v -4.5 34 -0
v -3.5 20 -0
v -3.5 21 -0
v -3.5 31 -0
v -2.5 18 -0
v -2.5 20 -0
v -2.5 21 -0
v -2.5 22 -0
v -2.5 31 -0
v -2.5 34 -0
v -0.5 35 -0
v -0.5 36 -0
v 0.5 0 -0
v 0.5 2 -0
v 0.5 18 -0
v 0.5 35 -0
v 0.5 36 -0
v 2.5 0 -0
v 2.5 2 -0
v 2.5 18 -0
v -2.5 18 -1
v -2.5 21 -1
v -2.5 22 -1
v -2.5 34 -1
v -1.5 34 -1
v -1.5 35 -1
v -0.5 18 -1
v 1.5 34 -1
v 1.5 35 -1
v 2.5 18 -1
v 2.5 20 -1
v 2.5 21 -1
v 2.5 22 -1
v 2.5 31 -1
v 2.5 34 -1
v -2.5 0 -2
v -2.5 2 -2
v -2.5 18 -2
v -2.5 36 -2
v -2.5 38 -2
v -2.5 41 -2
v -2.5 42 -2
v -0.5 0 -2
v -0.5 2 -2
v -0.5 18 -2
v 2.5 18 -2
v 2.5 20 -2
v 2.5 21 -2
v 2.5 31 -2
v 2.5 34 -2
v 2.5 36 -2
v 2.5 38 -2
v 2.5 41 -2
v 2.5 42 -2
v 3.5 20 -2
v 3.5 21 -2
v 3.5 31 -2
v 4.5 18 -2
v 4.5 21 -2
v 4.5 34 -2
v -3.5 38 -3
v -3.5 41 -3
v 3.5 38 -3
v 3.5 41 -3
v 0.5 0 3
v 2.5 0 3
v -2.5 0 1
v -0.5 0 1
v 0.5 0 -0
v 2.5 0 -0
v -2.5 0 -2
v -0.5 0 -2
v 0.5 2 3
v 1.5 2 3
v 2.5 2 3
v 0.5 2 2
v 1.5 2 2
v 2.5 2 2
v -2.5 2 1
v -1.5 2 1
v -0.5 2 1
v -2.5 2 -0
v -1.5 2 -0
v -0.5 2 -0
v -4.5 18 3
v -2.5 18 3
v -2.5 18 2
v -1.5 18 2
v 0.5 18 2
v -2.5 18 1
v -1.5 18 1
v -0.5 18 1
v 2.5 18 1
v 4.5 18 1
v -4.5 18 -0
v -2.5 18 -0
v 0.5 18 -0
v 2.5 18 -0
v -0.5 18 -1
v 2.5 18 -1
v 2.5 18 -2
v 4.5 18 -2
v -3.5 21 3
v -2.5 21 3
v -3.5 21 2
v -2.5 21 2
v -3.5 21 1
v -2.5 21 1
v 2.5 21 1
v 3.5 21 1
v -3.5 21 -0
v -2.5 21 -0
v 2.5 21 -0
v 3.5 21 -0
v 2.5 21 -1
v 3.5 21 -1
v 2.5 21 -2
v 3.5 21 -2
v -0.5 23 3
v 0.5 23 3
v -0.5 23 2
v 0.5 23 2
v -2.5 36 3
v 2.5 36 3
v -0.5 36 1
v 0.5 36 1
v -0.5 36 -0
v 0.5 36 -0
v -2.5 36 -2
v 2.5 36 -2
v -3.5 38 -0
v -2.5 38 -0
v 2.5 38 -0
v 3.5 38 -0
v -2.5 38 -2
v 2.5 38 -2
v -3.5 38 -3
v 3.5 38 -3
v -3.5 39 2
v -2.5 39 2
v 2.5 39 2
v 3.5 39 2
v -3.5 39 -0
v -2.5 39 -0
v 2.5 39 -0
v 3.5 39 -0
v 0.5 1 3
v 2.5 1 3
v 0.5 1 2
v 2.5 1 2
v -2.5 1 1
v -0.5 1 1
v -2.5 1 -0
v -0.5 1 -0
v 0.5 18 3
v 1.5 18 3
v 2.5 18 3
v 0.5 18 2
v 1.5 18 2
v 2.5 18 2
v -2.5 18 -1
v -0.5 18 -1
v -2.5 18 -2
v -0.5 18 -2
v -3.5 20 3
v -2.5 20 3
v -2.5 20 2
v -2.5 20 1
v 2.5 20 1
v 3.5 20 1
v -3.5 20 -0
v -2.5 20 -0
v 2.5 20 -1
v 2.5 20 -2
v 3.5 20 -2
v -4.5 34 3
v -2.5 34 3
v -0.5 34 3
v 0.5 34 3
v -2.5 34 2
v -1.5 34 2
v -0.5 34 2
v 0.5 34 2
v 1.5 34 2
v 2.5 34 2
v 2.5 34 1
v 4.5 34 1
v -4.5 34 -0
v -2.5 34 -0
v -2.5 34 -1
v -1.5 34 -1
v 1.5 34 -1
v 2.5 34 -1
v 2.5 34 -2
v 4.5 34 -2
v -1.5 35 2
v -0.5 35 2
v 0.5 35 2
v 1.5 35 2
v -0.5 35 1
v 0.5 35 1
v -0.5 35 -0
v 0.5 35 -0
v -1.5 35 -1
v 1.5 35 -1
v -2.5 41 3
v 2.5 41 3
v -3.5 41 2
v -2.5 41 2
v 2.5 41 2
v 3.5 41 2
v -2.5 41 -2
v 2.5 41 -2
v -3.5 41 -3
v 3.5 41 -3
v -2.5 42 2
v 2.5 42 2
v -2.5 42 -2
v 2.5 42 -2

# faces
f 3/4/1 2/4/1 1/4/1
f 4/4/1 2/4/1 3/4/1
f 5/6/1 4/6/1 3/6/1
f 6/6/1 4/6/1 5/6/1
f 10/1/1 8/1/1 7/1/1
f 11/1/1 10/1/1 9/1/1
f 12/1/1 8/1/1 10/1/1
f 12/1/1 10/1/1 11/1/1
f 15/10/1 14/10/1 13/10/1
f 16/10/1 14/10/1 15/10/1
f 18/10/1 14/10/1 16/10/1
f 19/10/1 14/10/1 18/10/1
f 20/8/1 18/8/1 17/8/1
f 21/9/1 19/9/1 18/9/1
f 21/8/1 18/8/1 20/8/1
f 22/9/1 19/9/1 21/9/1
f 23/9/1 19/9/1 22/9/1
f 26/9/1 22/9/1 21/9/1
f 27/8/1 25/8/1 24/8/1
f 28/9/1 26/9/1 25/9/1
f 28/8/1 25/8/1 27/8/1
f 29/9/1 22/9/1 26/9/1
f 29/9/1 26/9/1 28/9/1
f 30/9/1 22/9/1 29/9/1
f 31/10/1 30/10/1 29/10/1
f 32/10/1 30/10/1 31/10/1
f 33/6/1 32/6/1 31/6/1
f 34/6/1 32/6/1 33/6/1
f 35/6/1 32/6/1 34/6/1
f 38/4/1 37/4/1 36/4/1
f 39/4/1 37/4/1 38/4/1
f 40/4/1 38/4/1 36/4/1
f 41/4/1 38/4/1 40/4/1
f 42/4/1 38/4/1 41/4/1
f 43/1/1 41/1/1 40/1/1
f 44/1/1 41/1/1 43/1/1
f 46/1/1 45/1/1 44/1/1
f 47/1/1 45/1/1 46/1/1
f 50/6/1 49/6/1 48/6/1
f 51/6/1 49/6/1 50/6/1
f 54/2/1 53/2/1 52/2/1
f 55/2/1 53/2/1 54/2/1
f 58/4/1 57/4/1 56/4/1
f 59/4/1 57/4/1 58/4/1
f 62/10/1 61/10/1 60/10/1
f 63/10/1 61/10/1 62/10/1
f 65/10/1 61/10/1 63/10/1
f 66/10/1 61/10/1 65/10/1
f 67/8/1 65/8/1 64/8/1
f 68/9/1 66/9/1 65/9/1
f 68/8/1 65/8/1 67/8/1
f 69/9/1 66/9/1 68/9/1
f 72/4/1 71/4/1 70/4/1
f 73/4/1 71/4/1 72/4/1
f 76/7/1 75/7/1 74/7/1
f 77/7/1 75/7/1 76/7/1
f 78/7/1 75/7/1 77/7/1
f 79/6/1 78/6/1 77/6/1
f 80/6/1 78/6/1 79/6/1
f 83/4/1 82/4/1 81/4/1
f 84/4/1 82/4/1 83/4/1
f 85/4/1 82/4/1 84/4/1
f 86/4/1 82/4/1 85/4/1
f 87/4/2 88/4/2 89/4/2
f 89/4/2 88/4/2 90/4/2
f 90/4/2 88/4/2 91/4/2
f 91/4/2 88/4/2 92/4/2
f 93/4/2 94/4/2 95/4/2
f 95/4/2 94/4/2 96/4/2
f 97/7/2 98/7/2 99/7/2
f 97/7/2 99/7/2 100/7/2
f 100/7/2 99/7/2 101/7/2
f 100/6/2 101/6/2 102/6/2
f 102/6/2 101/6/2 103/6/2
f 104/10/2 105/10/2 106/10/2
f 106/10/2 105/10/2 107/10/2
f 107/10/2 105/10/2 109/10/2
f 109/10/2 105/10/2 110/10/2
f 108/9/2 109/9/2 111/9/2
f 109/9/2 110/9/2 111/9/2
f 111/9/2 110/9/2 112/9/2
f 112/9/2 110/9/2 113/9/2
f 114/2/2 115/2/2 116/2/2
f 116/2/2 115/2/2 117/2/2
f 118/4/2 119/4/2 120/4/2
f 120/4/2 119/4/2 121/4/2
f 122/6/2 123/6/2 124/6/2
f 124/6/2 123/6/2 125/6/2
f 126/10/2 127/10/2 128/10/2
f 128/10/2 127/10/2 129/10/2
f 129/10/2 127/10/2 131/10/2
f 131/10/2 127/10/2 132/10/2
f 130/9/2 131/9/2 133/9/2
f 131/9/2 132/9/2 133/9/2
f 133/9/2 132/9/2 134/9/2
f 134/9/2 132/9/2 135/9/2
f 135/9/2 132/9/2 136/9/2
f 134/9/2 135/9/2 137/9/2
f 134/9/2 137/9/2 139/9/2
f 137/9/2 138/9/2 139/9/2
f 139/9/2 138/9/2 140/9/2
f 140/9/2 138/9/2 141/9/2
f 141/9/2 138/9/2 142/9/2
f 139/5/2 140/5/2 143/5/2
f 143/5/2 140/5/2 144/5/2
f 143/6/2 144/6/2 145/6/2
f 143/6/2 145/6/2 146/6/2
f 146/6/2 145/6/2 147/6/2
f 148/4/2 149/4/2 150/4/2
f 150/4/2 149/4/2 151/4/2
f 148/4/2 150/4/2 152/4/2
f 152/4/2 150/4/2 153/4/2
f 153/4/2 150/4/2 154/4/2
f 152/1/2 153/1/2 155/1/2
f 155/1/2 153/1/2 156/1/2
f 156/1/2 157/1/2 158/1/2
f 158/1/2 157/1/2 159/1/2
f 160/1/2 161/1/2 163/1/2
f 162/1/2 163/1/2 164/1/2
f 163/1/2 161/1/2 165/1/2
f 164/1/2 163/1/2 165/1/2
f 166/4/2 167/4/2 168/4/2
f 168/4/2 167/4/2 169/4/2
f 168/6/2 169/6/2 170/6/2
f 170/6/2 169/6/2 171/6/2
f 175/4/3 173/4/3 172/4/3
f 176/6/3 174/6/3 173/6/3
f 176/4/3 173/4/3 175/4/3
f 177/6/3 174/6/3 176/6/3
f 178/4/3 175/4/3 172/4/3
f 179/4/3 175/4/3 178/4/3
f 180/7/3 177/7/3 176/7/3
f 181/6/3 174/6/3 177/6/3
f 181/7/3 177/7/3 180/7/3
f 182/6/3 174/6/3 181/6/3
f 186/4/3 184/4/3 183/4/3
f 187/1/3 185/1/3 184/1/3
f 187/4/3 184/4/3 186/4/3
f 188/1/3 185/1/3 187/1/3
f 191/4/3 186/4/3 183/4/3
f 191/10/3 187/10/3 186/10/3
f 192/4/3 188/4/3 187/4/3
f 192/10/3 187/10/3 191/10/3
f 193/1/3 185/1/3 188/1/3
f 193/4/3 188/4/3 192/4/3
f 198/2/3 190/2/3 189/2/3
f 199/2/3 190/2/3 198/2/3
f 200/4/3 192/4/3 191/4/3
f 200/4/3 191/4/3 183/4/3
f 201/1/3 193/1/3 192/1/3
f 201/4/3 192/4/3 200/4/3
f 202/1/3 185/1/3 193/1/3
f 202/1/3 193/1/3 201/1/3
f 203/8/3 197/8/3 196/8/3
f 204/8/3 197/8/3 203/8/3
f 205/4/3 200/4/3 183/4/3
f 205/10/3 201/10/3 200/10/3
f 206/4/3 202/4/3 201/4/3
f 206/10/3 201/10/3 205/10/3
f 207/1/3 185/1/3 202/1/3
f 207/4/3 202/4/3 206/4/3
f 208/10/3 195/10/3 194/10/3
f 209/10/3 195/10/3 208/10/3
f 210/9/3 204/9/3 203/9/3
f 211/9/3 204/9/3 210/9/3
f 212/4/3 206/4/3 205/4/3
f 212/4/3 205/4/3 183/4/3
f 213/1/3 207/1/3 206/1/3
f 213/4/3 206/4/3 212/4/3
f 214/1/3 185/1/3 207/1/3
f 214/1/3 207/1/3 213/1/3
f 223/1/3 216/1/3 215/1/3
f 224/1/3 216/1/3 223/1/3
f 226/8/3 218/8/3 217/8/3
f 226/8/3 219/8/3 218/8/3
f 227/5/3 220/5/3 219/5/3
f 227/8/3 219/8/3 226/8/3
f 228/6/3 222/6/3 221/6/3
f 228/6/3 221/6/3 220/6/3
f 230/6/3 228/6/3 220/6/3
f 230/6/3 229/6/3 228/6/3
f 231/6/3 229/6/3 230/6/3
f 232/6/3 229/6/3 231/6/3
f 235/9/3 227/9/3 226/9/3
f 236/6/3 230/6/3 220/6/3
f 237/2/3 232/2/3 231/2/3
f 238/2/3 232/2/3 237/2/3
f 239/10/3 234/10/3 233/10/3
f 240/9/3 227/9/3 235/9/3
f 241/6/3 237/6/3 236/6/3
f 241/6/3 238/6/3 237/6/3
f 242/6/3 238/6/3 241/6/3
f 243/10/3 239/10/3 233/10/3
f 244/10/3 239/10/3 243/10/3
f 245/9/3 227/9/3 240/9/3
f 246/5/3 220/5/3 227/5/3
f 246/9/3 227/9/3 245/9/3
f 247/6/3 236/6/3 220/6/3
f 247/5/3 220/5/3 246/5/3
f 247/6/3 241/6/3 236/6/3
f 248/6/3 241/6/3 247/6/3
f 250/1/3 225/1/3 224/1/3
f 251/1/3 225/1/3 250/1/3
f 252/1/3 250/1/3 249/1/3
f 253/1/3 250/1/3 252/1/3
f 258/8/3 257/8/3 256/8/3
f 259/8/3 257/8/3 258/8/3
f 260/10/3 255/10/3 254/10/3
f 261/10/3 255/10/3 260/10/3
f 262/9/3 259/9/3 258/9/3
f 263/9/3 259/9/3 262/9/3
f 266/4/3 265/4/3 264/4/3
f 267/4/3 265/4/3 266/4/3
f 274/4/3 269/4/3 268/4/3
f 275/7/3 271/7/3 270/7/3
f 275/7/3 272/7/3 271/7/3
f 276/6/3 273/6/3 272/6/3
f 276/7/3 272/7/3 275/7/3
f 277/4/3 275/4/3 274/4/3
f 277/4/3 274/4/3 268/4/3
f 278/6/3 276/6/3 275/6/3
f 278/4/3 275/4/3 277/4/3
f 279/6/3 273/6/3 276/6/3
f 279/6/3 276/6/3 278/6/3
f 284/1/3 281/1/3 280/1/3
f 285/1/3 281/1/3 284/1/3
f 286/10/3 283/10/3 282/10/3
f 287/10/3 286/10/3 282/10/3
f 288/10/3 286/10/3 287/10/3
f 291/1/3 290/1/3 289/1/3
f 292/1/3 290/1/3 291/1/3
f 293/4/4 294/4/4 296/4/4
f 294/6/4 295/6/4 297/6/4
f 296/4/4 294/4/4 297/4/4
f 297/6/4 295/6/4 298/6/4
f 293/4/4 296/4/4 299/4/4
f 299/4/4 296/4/4 300/4/4
f 297/7/4 298/7/4 301/7/4
f 301/7/4 298/7/4 302/7/4
f 298/6/4 295/6/4 303/6/4
f 302/7/4 298/7/4 303/7/4
f 303/6/4 295/6/4 304/6/4
f 305/4/4 306/4/4 310/4/4
f 310/4/4 306/4/4 311/4/4
f 307/10/4 308/10/4 312/10/4
f 308/9/4 309/9/4 313/9/4
f 312/10/4 308/10/4 313/10/4
f 313/9/4 309/9/4 314/9/4
f 317/6/4 318/6/4 319/6/4
f 315/9/4 316/9/4 321/9/4
f 319/6/4 320/6/4 322/6/4
f 317/6/4 319/6/4 322/6/4
f 322/6/4 320/6/4 323/6/4
f 321/9/4 316/9/4 324/9/4
f 324/9/4 316/9/4 325/9/4
f 316/10/4 317/10/4 326/10/4
f 325/9/4 316/9/4 326/9/4
f 317/6/4 322/6/4 327/6/4
f 326/10/4 317/10/4 327/10/4
f 327/6/4 322/6/4 328/6/4
f 328/6/4 322/6/4 329/6/4
f 330/10/4 331/10/4 337/10/4
f 331/9/4 332/9/4 338/9/4
f 337/10/4 331/10/4 338/10/4
f 338/9/4 332/9/4 339/9/4
f 333/4/4 334/4/4 345/4/4
f 345/4/4 334/4/4 346/4/4
f 335/1/4 336/1/4 347/1/4
f 347/1/4 336/1/4 348/1/4
f 340/4/4 341/4/4 349/4/4
f 342/7/4 343/7/4 350/7/4
f 343/6/4 344/6/4 351/6/4
f 350/7/4 343/7/4 351/7/4
f 349/4/4 350/4/4 352/4/4
f 340/4/4 349/4/4 352/4/4
f 350/6/4 351/6/4 353/6/4
f 352/4/4 350/4/4 353/4/4
f 351/6/4 344/6/4 354/6/4
f 353/6/4 351/6/4 354/6/4
f 355/1/4 356/1/4 357/1/4
f 357/1/4 356/1/4 358/1/4
f 363/10/5 360/10/5 359/10/5
f 364/10/5 360/10/5 363/10/5
f 365/10/5 362/10/5 361/10/5
f 366/10/5 362/10/5 365/10/5
f 370/8/5 368/8/5 367/8/5
f 371/9/5 369/9/5 368/9/5
f 371/8/5 368/8/5 370/8/5
f 372/9/5 369/9/5 371/9/5
f 376/8/5 374/8/5 373/8/5
f 377/9/5 375/9/5 374/9/5
f 377/8/5 374/8/5 376/8/5
f 378/9/5 375/9/5 377/9/5
f 381/4/5 380/4/5 379/4/5
f 384/4/5 381/4/5 379/4/5
f 384/8/5 382/8/5 381/8/5
f 385/9/5 383/9/5 382/9/5
f 385/8/5 382/8/5 384/8/5
f 386/9/5 383/9/5 385/9/5
f 389/4/5 384/4/5 379/4/5
f 390/4/5 384/4/5 389/4/5
f 391/9/5 383/9/5 386/9/5
f 392/4/5 388/4/5 387/4/5
f 393/9/5 391/9/5 386/9/5
f 393/9/5 392/9/5 391/9/5
f 394/4/5 388/4/5 392/4/5
f 394/9/5 392/9/5 393/9/5
f 395/4/5 388/4/5 394/4/5
f 396/4/5 388/4/5 395/4/5
f 399/7/5 398/7/5 397/7/5
f 400/7/5 398/7/5 399/7/5
f 401/6/5 400/6/5 399/6/5
f 402/6/5 400/6/5 401/6/5
f 405/7/5 402/7/5 401/7/5
f 406/7/5 402/7/5 405/7/5
f 407/7/5 404/7/5 403/7/5
f 408/7/5 404/7/5 407/7/5
f 409/6/5 408/6/5 407/6/5
f 410/6/5 408/6/5 409/6/5
f 411/7/5 410/7/5 409/7/5
f 412/7/5 410/7/5 411/7/5
f 415/2/5 414/2/5 413/2/5
f 416/2/5 414/2/5 415/2/5
f 419/4/5 418/4/5 417/4/5
f 420/4/5 418/4/5 419/4/5
f 421/4/5 419/4/5 417/4/5
f 422/4/5 418/4/5 420/4/5
f 423/4/5 421/4/5 417/4/5
f 423/4/5 422/4/5 421/4/5
f 424/4/5 418/4/5 422/4/5
f 424/4/5 422/4/5 423/4/5
f 429/1/5 426/1/5 425/1/5
f 430/1/5 428/1/5 427/1/5
f 431/1/5 429/1/5 425/1/5
f 431/1/5 430/1/5 429/1/5
f 432/1/5 428/1/5 430/1/5
f 432/1/5 430/1/5 431/1/5
f 437/1/5 434/1/5 433/1/5
f 438/1/5 434/1/5 437/1/5
f 439/1/5 436/1/5 435/1/5
f 440/1/5 436/1/5 439/1/5
f 441/10/6 442/10/6 443/10/6
f 443/10/6 442/10/6 444/10/6
f 445/10/6 446/10/6 447/10/6
f 447/10/6 446/10/6 448/10/6
f 449/8/6 450/8/6 452/8/6
f 450/9/6 451/9/6 453/9/6
f 452/8/6 450/8/6 453/8/6
f 453/9/6 451/9/6 454/9/6
f 455/9/6 456/9/6 457/9/6
f 457/9/6 456/9/6 458/9/6
f 459/4/6 460/4/6 461/4/6
f 459/4/6 461/4/6 462/4/6
f 459/4/6 462/4/6 465/4/6
f 465/4/6 462/4/6 466/4/6
f 463/4/6 464/4/6 467/4/6
f 467/4/6 464/4/6 468/4/6
f 468/4/6 464/4/6 469/4/6
f 470/6/6 471/6/6 474/6/6
f 472/2/6 473/2/6 476/2/6
f 476/2/6 473/2/6 477/2/6
f 478/6/6 479/6/6 480/6/6
f 474/6/6 475/6/6 482/6/6
f 470/6/6 474/6/6 482/6/6
f 482/6/6 475/6/6 483/6/6
f 483/6/6 475/6/6 484/6/6
f 484/6/6 475/6/6 485/6/6
f 480/6/6 481/6/6 486/6/6
f 478/6/6 480/6/6 486/6/6
f 486/6/6 481/6/6 487/6/6
f 487/6/6 481/6/6 488/6/6
f 488/6/6 481/6/6 489/6/6
f 490/6/6 491/6/6 494/6/6
f 491/2/6 492/2/6 494/2/6
f 492/6/6 493/6/6 495/6/6
f 494/2/6 492/2/6 495/2/6
f 490/6/6 494/6/6 496/6/6
f 495/6/6 493/6/6 497/6/6
f 490/6/6 496/6/6 498/6/6
f 496/6/6 497/6/6 498/6/6
f 497/6/6 493/6/6 499/6/6
f 498/6/6 497/6/6 499/6/6
f 500/1/6 501/1/6 503/1/6
f 503/1/6 501/1/6 504/1/6
f 502/1/6 503/1/6 506/1/6
f 504/1/6 505/1/6 507/1/6
f 502/1/6 506/1/6 508/1/6
f 506/1/6 507/1/6 508/1/6
f 507/1/6 505/1/6 509/1/6
f 508/1/6 507/1/6 509/1/6
f 510/1/6 511/1/6 512/1/6
f 512/1/6 511/1/6 513/1/6
