# MagicaVoxel @ Ephtracy

# group
g Tony_Ethn2_Standing

# material
mtllib Tony_Ethn2_Standing.mtl
usemtl palette

# normals
vn -1 0 0
vn 1 0 0
vn 0 0 1
vn 0 0 -1
vn 0 -1 0
vn 0 1 0

# texcoords
vt 0.0136719 0.5
vt 0.0175781 0.5
vt 0.146484 0.5
vt 0.306641 0.5
vt 0.759766 0.5
vt 0.775391 0.5
vt 0.779297 0.5
vt 0.931641 0.5
vt 0.939453 0.5
vt 0.994141 0.5

# verts
v -4.5 18 2
v -4.5 18 -1
v -4.5 21 2
v -4.5 21 -1
v -4.5 34 2
v -4.5 34 -1
v -3.5 38 -0
v -3.5 38 -3
v -3.5 39 2
v -3.5 39 -0
v -3.5 41 2
v -3.5 41 -3
v -2.5 0 2
v -2.5 0 -1
v -2.5 1 2
v -2.5 1 1
v -2.5 2 2
v -2.5 2 1
v -2.5 2 -1
v -2.5 18 2
v -2.5 18 1
v -2.5 18 -1
v -2.5 20 2
v -2.5 20 1
v -2.5 20 -1
v -2.5 21 2
v -2.5 21 1
v -2.5 21 -0
v -2.5 21 -1
v -2.5 36 3
v -2.5 36 -2
v -2.5 38 -0
v -2.5 38 -2
v -2.5 39 3
v -2.5 39 2
v -2.5 39 -0
v -2.5 41 3
v -2.5 41 2
v -2.5 41 -2
v -2.5 42 2
v -2.5 42 -2
v -1.5 34 2
v -1.5 34 -1
v -1.5 35 2
v -1.5 35 -1
v -0.5 23 3
v -0.5 23 2
v -0.5 34 3
v -0.5 34 2
v -0.5 35 1
v -0.5 35 -0
v -0.5 36 1
v -0.5 36 -0
v 0.5 0 2
v 0.5 0 -1
v 0.5 1 2
v 0.5 1 1
v 0.5 2 2
v 0.5 2 1
v 0.5 2 -1
v 0.5 18 2
v 0.5 18 1
v 0.5 18 -1
v 3.5 20 2
v 3.5 20 -1
v 3.5 21 2
v 3.5 21 1
v 3.5 21 -0
v 3.5 21 -1
v -3.5 20 2
v -3.5 20 -1
v -3.5 21 2
v -3.5 21 1
v -3.5 21 -0
v -3.5 21 -1
v -0.5 0 2
v -0.5 0 -1
v -0.5 1 2
v -0.5 1 1
v -0.5 2 2
v -0.5 2 1
v -0.5 2 -1
v -0.5 18 2
v -0.5 18 -1
v 0.5 23 3
v 0.5 23 2
v 0.5 34 3
v 0.5 34 2
v 0.5 35 1
v 0.5 35 -0
v 0.5 36 1
v 0.5 36 -0
v 1.5 34 2
v 1.5 34 -1
v 1.5 35 2
v 1.5 35 -1
v 2.5 0 2
v 2.5 0 -1
v 2.5 1 2
v 2.5 1 1
v 2.5 2 2
v 2.5 2 1
v 2.5 2 -1
v 2.5 18 2
v 2.5 18 -1
v 2.5 20 2
v 2.5 20 -1
v 2.5 21 2
v 2.5 21 1
v 2.5 21 -0
v 2.5 21 -1
v 2.5 36 3
v 2.5 36 -2
v 2.5 38 -0
v 2.5 38 -2
v 2.5 39 3
v 2.5 39 2
v 2.5 39 -0
v 2.5 41 3
v 2.5 41 2
v 2.5 41 -2
v 2.5 42 2
v 2.5 42 -2
v 3.5 38 -0
v 3.5 38 -3
v 3.5 39 2
v 3.5 39 -0
v 3.5 41 2
v 3.5 41 -3
v 4.5 18 2
v 4.5 18 -1
v 4.5 21 2
v 4.5 21 -1
v 4.5 34 2
v 4.5 34 -1
v -2.5 36 3
v -2.5 39 3
v -2.5 41 3
v -1.5 38 3
v -1.5 39 3
v -1.5 40 3
v -0.5 23 3
v -0.5 34 3
v -0.5 38 3
v -0.5 39 3
v -0.5 40 3
v 0.5 23 3
v 0.5 34 3
v 0.5 38 3
v 0.5 39 3
v 0.5 40 3
v 1.5 38 3
v 1.5 39 3
v 1.5 40 3
v 2.5 36 3
v 2.5 39 3
v 2.5 41 3
v -4.5 18 2
v -4.5 21 2
v -4.5 34 2
v -3.5 20 2
v -3.5 21 2
v -3.5 31 2
v -3.5 39 2
v -3.5 41 2
v -2.5 0 2
v -2.5 1 2
v -2.5 2 2
v -2.5 18 2
v -2.5 20 2
v -2.5 21 2
v -2.5 22 2
v -2.5 31 2
v -2.5 39 2
v -2.5 41 2
v -2.5 42 2
v -1.5 2 2
v -1.5 21 2
v -1.5 34 2
v -1.5 35 2
v -0.5 0 2
v -0.5 1 2
v -0.5 2 2
v -0.5 18 2
v -0.5 23 2
v -0.5 34 2
v -0.5 35 2
v 0.5 0 2
v 0.5 1 2
v 0.5 2 2
v 0.5 18 2
v 0.5 23 2
v 0.5 34 2
v 0.5 35 2
v 1.5 2 2
v 1.5 18 2
v 1.5 34 2
v 1.5 35 2
v 2.5 0 2
v 2.5 1 2
v 2.5 2 2
v 2.5 18 2
v 2.5 20 2
v 2.5 21 2
v 2.5 22 2
v 2.5 31 2
v 2.5 39 2
v 2.5 41 2
v 2.5 42 2
v 3.5 20 2
v 3.5 21 2
v 3.5 31 2
v 3.5 39 2
v 3.5 41 2
v 4.5 18 2
v 4.5 21 2
v 4.5 34 2
v -2.5 1 1
v -2.5 2 1
v -1.5 2 1
v -0.5 1 1
v -0.5 2 1
v -0.5 35 1
v -0.5 36 1
v 0.5 1 1
v 0.5 2 1
v 0.5 35 1
v 0.5 36 1
v 1.5 2 1
v 2.5 1 1
v 2.5 2 1
v -3.5 38 -0
v -3.5 39 -0
v -2.5 38 -0
v -2.5 39 -0
v 2.5 38 -0
v 2.5 39 -0
v 3.5 38 -0
v 3.5 39 -0
v -0.5 35 -0
v -0.5 36 -0
v 0.5 35 -0
v 0.5 36 -0
v -4.5 18 -1
v -4.5 21 -1
v -4.5 34 -1
v -3.5 20 -1
v -3.5 21 -1
v -3.5 31 -1
v -2.5 0 -1
v -2.5 2 -1
v -2.5 18 -1
v -2.5 20 -1
v -2.5 21 -1
v -2.5 22 -1
v -2.5 31 -1
v -1.5 34 -1
v -1.5 35 -1
v -0.5 0 -1
v -0.5 2 -1
v -0.5 18 -1
v 0.5 0 -1
v 0.5 2 -1
v 0.5 18 -1
v 1.5 34 -1
v 1.5 35 -1
v 2.5 0 -1
v 2.5 2 -1
v 2.5 18 -1
v 2.5 20 -1
v 2.5 21 -1
v 2.5 22 -1
v 2.5 31 -1
v 3.5 20 -1
v 3.5 21 -1
v 3.5 31 -1
v 4.5 18 -1
v 4.5 21 -1
v 4.5 34 -1
v -2.5 36 -2
v -2.5 38 -2
v -2.5 41 -2
v -2.5 42 -2
v 2.5 36 -2
v 2.5 38 -2
v 2.5 41 -2
v 2.5 42 -2
v -3.5 38 -3
v -3.5 41 -3
v 3.5 38 -3
v 3.5 41 -3
v -2.5 0 2
v -0.5 0 2
v 0.5 0 2
v 2.5 0 2
v -2.5 0 -1
v -0.5 0 -1
v 0.5 0 -1
v 2.5 0 -1
v -2.5 2 2
v -1.5 2 2
v -0.5 2 2
v 0.5 2 2
v 1.5 2 2
v 2.5 2 2
v -2.5 2 1
v -1.5 2 1
v -0.5 2 1
v 0.5 2 1
v 1.5 2 1
v 2.5 2 1
v -4.5 18 2
v -2.5 18 2
v -0.5 18 2
v 0.5 18 2
v 2.5 18 2
v 4.5 18 2
v -2.5 18 1
v 0.5 18 1
v -4.5 18 -1
v -2.5 18 -1
v -0.5 18 -1
v 0.5 18 -1
v 2.5 18 -1
v 4.5 18 -1
v -3.5 21 2
v -2.5 21 2
v 2.5 21 2
v 3.5 21 2
v -3.5 21 1
v -2.5 21 1
v 2.5 21 1
v 3.5 21 1
v -3.5 21 -0
v -2.5 21 -0
v 2.5 21 -0
v 3.5 21 -0
v -3.5 21 -1
v -2.5 21 -1
v 2.5 21 -1
v 3.5 21 -1
v -0.5 23 3
v 0.5 23 3
v -0.5 23 2
v 0.5 23 2
v -2.5 36 3
v 2.5 36 3
v -0.5 36 1
v 0.5 36 1
v -0.5 36 -0
v 0.5 36 -0
v -2.5 36 -2
v 2.5 36 -2
v -3.5 38 -0
v -2.5 38 -0
v 2.5 38 -0
v 3.5 38 -0
v -2.5 38 -2
v 2.5 38 -2
v -3.5 38 -3
v 3.5 38 -3
v -3.5 39 2
v -2.5 39 2
v 2.5 39 2
v 3.5 39 2
v -3.5 39 -0
v -2.5 39 -0
v 2.5 39 -0
v 3.5 39 -0
v -2.5 1 2
v -0.5 1 2
v 0.5 1 2
v 2.5 1 2
v -2.5 1 1
v -0.5 1 1
v 0.5 1 1
v 2.5 1 1
v -3.5 20 2
v -2.5 20 2
v 2.5 20 2
v 3.5 20 2
v -2.5 20 1
v -3.5 20 -1
v -2.5 20 -1
v 2.5 20 -1
v 3.5 20 -1
v -0.5 34 3
v 0.5 34 3
v -4.5 34 2
v -1.5 34 2
v -0.5 34 2
v 0.5 34 2
v 1.5 34 2
v 4.5 34 2
v -4.5 34 -1
v -1.5 34 -1
v 1.5 34 -1
v 4.5 34 -1
v -1.5 35 2
v -0.5 35 2
v 0.5 35 2
v 1.5 35 2
v -0.5 35 1
v 0.5 35 1
v -0.5 35 -0
v 0.5 35 -0
v -1.5 35 -1
v 1.5 35 -1
v -2.5 41 3
v 2.5 41 3
v -3.5 41 2
v -2.5 41 2
v 2.5 41 2
v 3.5 41 2
v -2.5 41 -2
v 2.5 41 -2
v -3.5 41 -3
v 3.5 41 -3
v -2.5 42 2
v 2.5 42 2
v -2.5 42 -2
v 2.5 42 -2

# faces
f 3/2/1 2/2/1 1/2/1
f 4/2/1 2/2/1 3/2/1
f 5/6/1 4/6/1 3/6/1
f 6/6/1 4/6/1 5/6/1
f 10/1/1 8/1/1 7/1/1
f 11/1/1 10/1/1 9/1/1
f 12/1/1 8/1/1 10/1/1
f 12/1/1 10/1/1 11/1/1
f 15/10/1 14/10/1 13/10/1
f 16/10/1 14/10/1 15/10/1
f 18/10/1 14/10/1 16/10/1
f 19/10/1 14/10/1 18/10/1
f 20/8/1 18/8/1 17/8/1
f 21/9/1 19/9/1 18/9/1
f 21/8/1 18/8/1 20/8/1
f 22/9/1 19/9/1 21/9/1
f 26/8/1 24/8/1 23/8/1
f 27/9/1 25/9/1 24/9/1
f 27/8/1 24/8/1 26/8/1
f 28/9/1 25/9/1 27/9/1
f 29/9/1 25/9/1 28/9/1
f 32/2/1 31/2/1 30/2/1
f 33/2/1 31/2/1 32/2/1
f 34/2/1 32/2/1 30/2/1
f 35/2/1 32/2/1 34/2/1
f 36/2/1 32/2/1 35/2/1
f 37/1/1 35/1/1 34/1/1
f 38/1/1 35/1/1 37/1/1
f 40/1/1 39/1/1 38/1/1
f 41/1/1 39/1/1 40/1/1
f 44/6/1 43/6/1 42/6/1
f 45/6/1 43/6/1 44/6/1
f 48/3/1 47/3/1 46/3/1
f 49/3/1 47/3/1 48/3/1
f 52/2/1 51/2/1 50/2/1
f 53/2/1 51/2/1 52/2/1
f 56/10/1 55/10/1 54/10/1
f 57/10/1 55/10/1 56/10/1
f 59/10/1 55/10/1 57/10/1
f 60/10/1 55/10/1 59/10/1
f 61/8/1 59/8/1 58/8/1
f 62/9/1 60/9/1 59/9/1
f 62/8/1 59/8/1 61/8/1
f 63/9/1 60/9/1 62/9/1
f 66/2/1 65/2/1 64/2/1
f 67/2/1 65/2/1 66/2/1
f 68/2/1 65/2/1 67/2/1
f 69/2/1 65/2/1 68/2/1
f 70/2/2 71/2/2 72/2/2
f 72/2/2 71/2/2 73/2/2
f 73/2/2 71/2/2 74/2/2
f 74/2/2 71/2/2 75/2/2
f 76/10/2 77/10/2 78/10/2
f 78/10/2 77/10/2 79/10/2
f 79/10/2 77/10/2 81/10/2
f 81/10/2 77/10/2 82/10/2
f 80/9/2 81/9/2 83/9/2
f 81/9/2 82/9/2 83/9/2
f 83/9/2 82/9/2 84/9/2
f 85/3/2 86/3/2 87/3/2
f 87/3/2 86/3/2 88/3/2
f 89/2/2 90/2/2 91/2/2
f 91/2/2 90/2/2 92/2/2
f 93/6/2 94/6/2 95/6/2
f 95/6/2 94/6/2 96/6/2
f 97/10/2 98/10/2 99/10/2
f 99/10/2 98/10/2 100/10/2
f 100/10/2 98/10/2 102/10/2
f 102/10/2 98/10/2 103/10/2
f 101/9/2 102/9/2 104/9/2
f 102/9/2 103/9/2 104/9/2
f 104/9/2 103/9/2 105/9/2
f 106/9/2 107/9/2 108/9/2
f 108/9/2 107/9/2 109/9/2
f 109/9/2 107/9/2 110/9/2
f 110/9/2 107/9/2 111/9/2
f 112/2/2 113/2/2 114/2/2
f 114/2/2 113/2/2 115/2/2
f 112/2/2 114/2/2 116/2/2
f 116/2/2 114/2/2 117/2/2
f 117/2/2 114/2/2 118/2/2
f 116/1/2 117/1/2 119/1/2
f 119/1/2 117/1/2 120/1/2
f 120/1/2 121/1/2 122/1/2
f 122/1/2 121/1/2 123/1/2
f 124/1/2 125/1/2 127/1/2
f 126/1/2 127/1/2 128/1/2
f 127/1/2 125/1/2 129/1/2
f 128/1/2 127/1/2 129/1/2
f 130/2/2 131/2/2 132/2/2
f 132/2/2 131/2/2 133/2/2
f 132/6/2 133/6/2 134/6/2
f 134/6/2 133/6/2 135/6/2
f 139/2/3 137/2/3 136/2/3
f 140/1/3 138/1/3 137/1/3
f 140/2/3 137/2/3 139/2/3
f 141/1/3 138/1/3 140/1/3
f 144/2/3 139/2/3 136/2/3
f 144/10/3 140/10/3 139/10/3
f 145/2/3 141/2/3 140/2/3
f 145/10/3 140/10/3 144/10/3
f 146/1/3 138/1/3 141/1/3
f 146/2/3 141/2/3 145/2/3
f 147/3/3 143/3/3 142/3/3
f 148/3/3 143/3/3 147/3/3
f 149/2/3 145/2/3 144/2/3
f 149/2/3 144/2/3 136/2/3
f 150/1/3 146/1/3 145/1/3
f 150/2/3 145/2/3 149/2/3
f 151/1/3 138/1/3 146/1/3
f 151/1/3 146/1/3 150/1/3
f 152/10/3 150/10/3 149/10/3
f 152/2/3 149/2/3 136/2/3
f 153/2/3 151/2/3 150/2/3
f 153/10/3 150/10/3 152/10/3
f 154/1/3 138/1/3 151/1/3
f 154/2/3 151/2/3 153/2/3
f 155/2/3 153/2/3 152/2/3
f 155/2/3 152/2/3 136/2/3
f 156/1/3 154/1/3 153/1/3
f 156/2/3 153/2/3 155/2/3
f 157/1/3 138/1/3 154/1/3
f 157/1/3 154/1/3 156/1/3
f 161/2/3 159/2/3 158/2/3
f 162/6/3 160/6/3 159/6/3
f 162/2/3 159/2/3 161/2/3
f 163/6/3 160/6/3 162/6/3
f 169/2/3 161/2/3 158/2/3
f 170/2/3 161/2/3 169/2/3
f 171/7/3 163/7/3 162/7/3
f 172/7/3 163/7/3 171/7/3
f 173/6/3 160/6/3 163/6/3
f 173/7/3 163/7/3 172/7/3
f 174/1/3 165/1/3 164/1/3
f 175/1/3 165/1/3 174/1/3
f 177/8/3 170/8/3 169/8/3
f 177/8/3 169/8/3 168/8/3
f 177/8/3 171/8/3 170/8/3
f 178/5/3 172/5/3 171/5/3
f 178/8/3 171/8/3 177/8/3
f 179/6/3 160/6/3 173/6/3
f 179/6/3 173/6/3 172/6/3
f 181/10/3 167/10/3 166/10/3
f 182/10/3 167/10/3 181/10/3
f 183/9/3 178/9/3 177/9/3
f 184/9/3 178/9/3 183/9/3
f 185/6/3 180/6/3 179/6/3
f 185/6/3 179/6/3 172/6/3
f 186/6/3 180/6/3 185/6/3
f 187/6/3 180/6/3 186/6/3
f 191/9/3 178/9/3 184/9/3
f 192/6/3 185/6/3 172/6/3
f 193/3/3 187/3/3 186/3/3
f 194/3/3 187/3/3 193/3/3
f 195/8/3 191/8/3 190/8/3
f 196/9/3 178/9/3 191/9/3
f 196/8/3 191/8/3 195/8/3
f 197/6/3 193/6/3 192/6/3
f 197/6/3 194/6/3 193/6/3
f 198/6/3 194/6/3 197/6/3
f 199/10/3 189/10/3 188/10/3
f 200/10/3 189/10/3 199/10/3
f 201/9/3 196/9/3 195/9/3
f 202/9/3 178/9/3 196/9/3
f 202/9/3 196/9/3 201/9/3
f 203/9/3 178/9/3 202/9/3
f 204/5/3 172/5/3 178/5/3
f 204/9/3 178/9/3 203/9/3
f 205/6/3 192/6/3 172/6/3
f 205/5/3 172/5/3 204/5/3
f 205/6/3 197/6/3 192/6/3
f 206/6/3 197/6/3 205/6/3
f 208/1/3 176/1/3 175/1/3
f 209/1/3 176/1/3 208/1/3
f 210/2/3 203/2/3 202/2/3
f 211/7/3 206/7/3 205/7/3
f 211/7/3 205/7/3 204/7/3
f 212/6/3 197/6/3 206/6/3
f 212/7/3 206/7/3 211/7/3
f 213/1/3 208/1/3 207/1/3
f 214/1/3 208/1/3 213/1/3
f 215/2/3 211/2/3 210/2/3
f 215/2/3 210/2/3 202/2/3
f 216/6/3 212/6/3 211/6/3
f 216/2/3 211/2/3 215/2/3
f 217/6/3 197/6/3 212/6/3
f 217/6/3 212/6/3 216/6/3
f 220/10/3 219/10/3 218/10/3
f 221/10/3 220/10/3 218/10/3
f 222/10/3 220/10/3 221/10/3
f 227/2/3 224/2/3 223/2/3
f 228/2/3 224/2/3 227/2/3
f 229/10/3 226/10/3 225/10/3
f 230/10/3 229/10/3 225/10/3
f 231/10/3 229/10/3 230/10/3
f 234/1/3 233/1/3 232/1/3
f 235/1/3 233/1/3 234/1/3
f 238/1/3 237/1/3 236/1/3
f 239/1/3 237/1/3 238/1/3
f 240/2/4 241/2/4 242/2/4
f 242/2/4 241/2/4 243/2/4
f 244/2/4 245/2/4 247/2/4
f 245/6/4 246/6/4 248/6/4
f 247/2/4 245/2/4 248/2/4
f 248/6/4 246/6/4 249/6/4
f 244/2/4 247/2/4 252/2/4
f 252/2/4 247/2/4 253/2/4
f 248/7/4 249/7/4 254/7/4
f 254/7/4 249/7/4 255/7/4
f 249/6/4 246/6/4 256/6/4
f 255/7/4 249/7/4 256/7/4
f 255/6/4 256/6/4 257/6/4
f 256/6/4 246/6/4 257/6/4
f 250/10/4 251/10/4 259/10/4
f 252/9/4 253/9/4 260/9/4
f 259/10/4 251/10/4 260/10/4
f 251/9/4 252/9/4 260/9/4
f 253/9/4 254/9/4 260/9/4
f 260/9/4 254/9/4 261/9/4
f 261/9/4 254/9/4 264/9/4
f 257/6/4 258/6/4 265/6/4
f 255/6/4 257/6/4 265/6/4
f 265/6/4 258/6/4 266/6/4
f 262/10/4 263/10/4 267/10/4
f 263/9/4 264/9/4 268/9/4
f 267/10/4 263/10/4 268/10/4
f 264/9/4 254/9/4 269/9/4
f 268/9/4 264/9/4 269/9/4
f 269/9/4 254/9/4 270/9/4
f 254/10/4 255/10/4 271/10/4
f 270/9/4 254/9/4 271/9/4
f 255/6/4 265/6/4 272/6/4
f 271/10/4 255/10/4 272/10/4
f 272/6/4 265/6/4 273/6/4
f 269/2/4 270/2/4 274/2/4
f 272/7/4 273/7/4 275/7/4
f 271/7/4 272/7/4 275/7/4
f 273/6/4 265/6/4 276/6/4
f 275/7/4 273/7/4 276/7/4
f 274/2/4 275/2/4 277/2/4
f 269/2/4 274/2/4 277/2/4
f 275/6/4 276/6/4 278/6/4
f 277/2/4 275/2/4 278/2/4
f 276/6/4 265/6/4 279/6/4
f 278/6/4 276/6/4 279/6/4
f 280/2/4 281/2/4 284/2/4
f 284/2/4 281/2/4 285/2/4
f 282/1/4 283/1/4 286/1/4
f 286/1/4 283/1/4 287/1/4
f 288/1/4 289/1/4 290/1/4
f 290/1/4 289/1/4 291/1/4
f 296/10/5 293/10/5 292/10/5
f 297/10/5 293/10/5 296/10/5
f 298/10/5 295/10/5 294/10/5
f 299/10/5 295/10/5 298/10/5
f 306/8/5 301/8/5 300/8/5
f 307/9/5 302/9/5 301/9/5
f 307/8/5 301/8/5 306/8/5
f 308/9/5 302/9/5 307/9/5
f 309/8/5 304/8/5 303/8/5
f 310/9/5 305/9/5 304/9/5
f 310/8/5 304/8/5 309/8/5
f 311/9/5 305/9/5 310/9/5
f 318/2/5 313/2/5 312/2/5
f 319/9/5 315/9/5 314/9/5
f 320/2/5 318/2/5 312/2/5
f 321/2/5 318/2/5 320/2/5
f 322/9/5 319/9/5 314/9/5
f 323/9/5 319/9/5 322/9/5
f 324/2/5 317/2/5 316/2/5
f 325/2/5 317/2/5 324/2/5
f 330/7/5 327/7/5 326/7/5
f 331/7/5 327/7/5 330/7/5
f 332/7/5 329/7/5 328/7/5
f 333/7/5 329/7/5 332/7/5
f 334/6/5 331/6/5 330/6/5
f 335/6/5 331/6/5 334/6/5
f 336/6/5 333/6/5 332/6/5
f 337/6/5 333/6/5 336/6/5
f 338/7/5 335/7/5 334/7/5
f 339/7/5 335/7/5 338/7/5
f 340/7/5 337/7/5 336/7/5
f 341/7/5 337/7/5 340/7/5
f 344/3/5 343/3/5 342/3/5
f 345/3/5 343/3/5 344/3/5
f 348/2/5 347/2/5 346/2/5
f 349/2/5 347/2/5 348/2/5
f 350/2/5 348/2/5 346/2/5
f 351/2/5 347/2/5 349/2/5
f 352/2/5 350/2/5 346/2/5
f 352/2/5 351/2/5 350/2/5
f 353/2/5 347/2/5 351/2/5
f 353/2/5 351/2/5 352/2/5
f 358/1/5 355/1/5 354/1/5
f 359/1/5 357/1/5 356/1/5
f 360/1/5 358/1/5 354/1/5
f 360/1/5 359/1/5 358/1/5
f 361/1/5 357/1/5 359/1/5
f 361/1/5 359/1/5 360/1/5
f 366/1/5 363/1/5 362/1/5
f 367/1/5 363/1/5 366/1/5
f 368/1/5 365/1/5 364/1/5
f 369/1/5 365/1/5 368/1/5
f 370/10/6 371/10/6 374/10/6
f 374/10/6 371/10/6 375/10/6
f 372/10/6 373/10/6 376/10/6
f 376/10/6 373/10/6 377/10/6
f 378/2/6 379/2/6 382/2/6
f 378/2/6 382/2/6 383/2/6
f 383/2/6 382/2/6 384/2/6
f 380/2/6 381/2/6 385/2/6
f 385/2/6 381/2/6 386/2/6
f 387/3/6 388/3/6 391/3/6
f 391/3/6 388/3/6 392/3/6
f 389/6/6 390/6/6 395/6/6
f 395/6/6 390/6/6 396/6/6
f 393/6/6 394/6/6 397/6/6
f 397/6/6 394/6/6 398/6/6
f 399/6/6 400/6/6 403/6/6
f 400/3/6 401/3/6 403/3/6
f 401/6/6 402/6/6 404/6/6
f 403/3/6 401/3/6 404/3/6
f 399/6/6 403/6/6 405/6/6
f 404/6/6 402/6/6 406/6/6
f 399/6/6 405/6/6 407/6/6
f 405/6/6 406/6/6 407/6/6
f 406/6/6 402/6/6 408/6/6
f 407/6/6 406/6/6 408/6/6
f 409/1/6 410/1/6 412/1/6
f 412/1/6 410/1/6 413/1/6
f 411/1/6 412/1/6 415/1/6
f 413/1/6 414/1/6 416/1/6
f 411/1/6 415/1/6 417/1/6
f 415/1/6 416/1/6 417/1/6
f 416/1/6 414/1/6 418/1/6
f 417/1/6 416/1/6 418/1/6
f 419/1/6 420/1/6 421/1/6
f 421/1/6 420/1/6 422/1/6
