# MagicaVoxel @ Ephtracy

# group
g Tony_Ethn3_Walking2

# material
mtllib Tony_Ethn3_Walking2.mtl
usemtl palette

# normals
vn -1 0 0
vn 1 0 0
vn 0 0 1
vn 0 0 -1
vn 0 -1 0
vn 0 1 0

# texcoords
vt 0.0214844 0.5
vt 0.0253906 0.5
vt 0.146484 0.5
vt 0.306641 0.5
vt 0.759766 0.5
vt 0.775391 0.5
vt 0.779297 0.5
vt 0.931641 0.5
vt 0.939453 0.5
vt 0.994141 0.5

# verts
v -4.5 18 1
v -4.5 18 -2
v -4.5 21 1
v -4.5 21 -2
v -4.5 34 1
v -4.5 34 -2
v -3.5 38 -0
v -3.5 38 -3
v -3.5 39 2
v -3.5 39 -0
v -3.5 41 2
v -3.5 41 -3
v -2.5 0 3
v -2.5 0 -0
v -2.5 1 3
v -2.5 1 2
v -2.5 2 3
v -2.5 2 2
v -2.5 2 -0
v -2.5 18 3
v -2.5 18 2
v -2.5 18 1
v -2.5 18 -0
v -2.5 20 1
v -2.5 20 -1
v -2.5 21 2
v -2.5 21 1
v -2.5 21 -0
v -2.5 21 -1
v -2.5 22 2
v -2.5 22 1
v -2.5 31 1
v -2.5 34 2
v -2.5 34 1
v -2.5 36 3
v -2.5 36 -2
v -2.5 38 -0
v -2.5 38 -2
v -2.5 39 3
v -2.5 39 2
v -2.5 39 -0
v -2.5 41 3
v -2.5 41 2
v -2.5 41 -2
v -2.5 42 2
v -2.5 42 -2
v -1.5 34 1
v -1.5 34 -0
v -1.5 35 1
v -1.5 35 -0
v -0.5 23 3
v -0.5 23 2
v -0.5 34 3
v -0.5 34 2
v -0.5 34 1
v -0.5 34 -0
v -0.5 34 -1
v -0.5 35 2
v -0.5 35 1
v -0.5 35 -0
v -0.5 35 -1
v -0.5 36 1
v -0.5 36 -0
v 0.5 0 1
v 0.5 0 -2
v 0.5 1 1
v 0.5 1 -0
v 0.5 2 1
v 0.5 2 -0
v 0.5 2 -2
v 0.5 18 1
v 0.5 18 -0
v 0.5 18 -1
v 0.5 18 -2
v 2.5 18 3
v 2.5 18 2
v 2.5 20 3
v 2.5 20 2
v 2.5 21 3
v 2.5 21 2
v 2.5 22 2
v 2.5 31 3
v 2.5 31 2
v 2.5 34 3
v 2.5 34 2
v 3.5 20 3
v 3.5 20 -0
v 3.5 21 3
v 3.5 21 2
v 3.5 21 1
v 3.5 21 -0
v -3.5 20 1
v -3.5 20 -2
v -3.5 21 1
v -3.5 21 -0
v -3.5 21 -1
v -3.5 21 -2
v -2.5 18 -1
v -2.5 18 -2
v -2.5 20 -1
v -2.5 20 -2
v -2.5 21 -1
v -2.5 21 -2
v -2.5 22 -1
v -2.5 31 -1
v -2.5 31 -2
v -2.5 34 -1
v -2.5 34 -2
v -0.5 0 3
v -0.5 0 -0
v -0.5 1 3
v -0.5 1 2
v -0.5 2 3
v -0.5 2 2
v -0.5 2 -0
v -0.5 18 3
v -0.5 18 2
v -0.5 18 -0
v 0.5 23 3
v 0.5 23 2
v 0.5 34 3
v 0.5 34 2
v 0.5 34 1
v 0.5 34 -0
v 0.5 34 -1
v 0.5 35 2
v 0.5 35 1
v 0.5 35 -0
v 0.5 35 -1
v 0.5 36 1
v 0.5 36 -0
v 1.5 34 1
v 1.5 34 -0
v 1.5 35 1
v 1.5 35 -0
v 2.5 0 1
v 2.5 0 -2
v 2.5 1 1
v 2.5 1 -0
v 2.5 2 1
v 2.5 2 -0
v 2.5 2 -2
v 2.5 18 1
v 2.5 18 -0
v 2.5 18 -1
v 2.5 18 -2
v 2.5 20 2
v 2.5 20 -0
v 2.5 21 2
v 2.5 21 1
v 2.5 21 -0
v 2.5 21 -1
v 2.5 22 -0
v 2.5 22 -1
v 2.5 31 -0
v 2.5 34 -0
v 2.5 34 -1
v 2.5 36 3
v 2.5 36 -2
v 2.5 38 -0
v 2.5 38 -2
v 2.5 39 3
v 2.5 39 2
v 2.5 39 -0
v 2.5 41 3
v 2.5 41 2
v 2.5 41 -2
v 2.5 42 2
v 2.5 42 -2
v 3.5 38 -0
v 3.5 38 -3
v 3.5 39 2
v 3.5 39 -0
v 3.5 41 2
v 3.5 41 -3
v 4.5 18 3
v 4.5 18 -0
v 4.5 21 3
v 4.5 21 -0
v 4.5 34 3
v 4.5 34 -0
v -2.5 0 3
v -2.5 1 3
v -2.5 2 3
v -2.5 18 3
v -2.5 36 3
v -2.5 39 3
v -2.5 41 3
v -1.5 2 3
v -1.5 18 3
v -1.5 38 3
v -1.5 39 3
v -1.5 40 3
v -0.5 0 3
v -0.5 1 3
v -0.5 2 3
v -0.5 18 3
v -0.5 23 3
v -0.5 34 3
v -0.5 38 3
v -0.5 39 3
v -0.5 40 3
v 0.5 23 3
v 0.5 34 3
v 0.5 38 3
v 0.5 39 3
v 0.5 40 3
v 1.5 38 3
v 1.5 39 3
v 1.5 40 3
v 2.5 18 3
v 2.5 20 3
v 2.5 21 3
v 2.5 31 3
v 2.5 34 3
v 2.5 36 3
v 2.5 39 3
v 2.5 41 3
v 3.5 20 3
v 3.5 21 3
v 3.5 31 3
v 4.5 18 3
v 4.5 21 3
v 4.5 34 3
v -3.5 39 2
v -3.5 41 2
v -2.5 1 2
v -2.5 2 2
v -2.5 18 2
v -2.5 21 2
v -2.5 22 2
v -2.5 34 2
v -2.5 39 2
v -2.5 41 2
v -2.5 42 2
v -1.5 2 2
v -1.5 18 2
v -1.5 21 2
v -0.5 1 2
v -0.5 2 2
v -0.5 18 2
v -0.5 23 2
v -0.5 34 2
v -0.5 35 2
v 0.5 23 2
v 0.5 34 2
v 0.5 35 2
v 2.5 18 2
v 2.5 20 2
v 2.5 21 2
v 2.5 22 2
v 2.5 31 2
v 2.5 34 2
v 2.5 39 2
v 2.5 41 2
v 2.5 42 2
v 3.5 39 2
v 3.5 41 2
v -4.5 18 1
v -4.5 21 1
v -4.5 34 1
v -3.5 20 1
v -3.5 21 1
v -3.5 31 1
v -2.5 18 1
v -2.5 20 1
v -2.5 21 1
v -2.5 22 1
v -2.5 31 1
v -2.5 34 1
v -1.5 34 1
v -1.5 35 1
v -0.5 34 1
v -0.5 35 1
v -0.5 36 1
v 0.5 0 1
v 0.5 1 1
v 0.5 2 1
v 0.5 18 1
v 0.5 34 1
v 0.5 35 1
v 0.5 36 1
v 1.5 2 1
v 1.5 18 1
v 1.5 34 1
v 1.5 35 1
v 2.5 0 1
v 2.5 1 1
v 2.5 2 1
v 2.5 18 1
v -3.5 38 -0
v -3.5 39 -0
v -2.5 38 -0
v -2.5 39 -0
v 0.5 1 -0
v 0.5 2 -0
v 1.5 2 -0
v 2.5 1 -0
v 2.5 2 -0
v 2.5 38 -0
v 2.5 39 -0
v 3.5 38 -0
v 3.5 39 -0
v -2.5 0 -0
v -2.5 2 -0
v -2.5 18 -0
v -1.5 34 -0
v -1.5 35 -0
v -0.5 0 -0
v -0.5 2 -0
v -0.5 18 -0
v -0.5 34 -0
v -0.5 35 -0
v -0.5 36 -0
v 0.5 34 -0
v 0.5 35 -0
v 0.5 36 -0
v 1.5 34 -0
v 1.5 35 -0
v 2.5 18 -0
v 2.5 20 -0
v 2.5 21 -0
v 2.5 22 -0
v 2.5 31 -0
v 2.5 34 -0
v 3.5 20 -0
v 3.5 21 -0
v 3.5 31 -0
v 4.5 18 -0
v 4.5 21 -0
v 4.5 34 -0
v -2.5 18 -1
v -2.5 20 -1
v -2.5 21 -1
v -2.5 22 -1
v -2.5 31 -1
v -2.5 34 -1
v -0.5 34 -1
v -0.5 35 -1
v 0.5 18 -1
v 0.5 34 -1
v 0.5 35 -1
v 2.5 18 -1
v 2.5 21 -1
v 2.5 22 -1
v 2.5 34 -1
v -4.5 18 -2
v -4.5 21 -2
v -4.5 34 -2
v -3.5 20 -2
v -3.5 21 -2
v -3.5 31 -2
v -2.5 18 -2
v -2.5 20 -2
v -2.5 21 -2
v -2.5 31 -2
v -2.5 34 -2
v -2.5 36 -2
v -2.5 38 -2
v -2.5 41 -2
v -2.5 42 -2
v 0.5 0 -2
v 0.5 2 -2
v 0.5 18 -2
v 2.5 0 -2
v 2.5 2 -2
v 2.5 18 -2
v 2.5 36 -2
v 2.5 38 -2
v 2.5 41 -2
v 2.5 42 -2
v -3.5 38 -3
v -3.5 41 -3
v 3.5 38 -3
v 3.5 41 -3
v -2.5 0 3
v -0.5 0 3
v 0.5 0 1
v 2.5 0 1
v -2.5 0 -0
v -0.5 0 -0
v 0.5 0 -2
v 2.5 0 -2
v -2.5 2 3
v -1.5 2 3
v -0.5 2 3
v -2.5 2 2
v -1.5 2 2
v -0.5 2 2
v 0.5 2 1
v 1.5 2 1
v 2.5 2 1
v 0.5 2 -0
v 1.5 2 -0
v 2.5 2 -0
v 2.5 18 3
v 4.5 18 3
v -0.5 18 2
v 2.5 18 2
v -4.5 18 1
v -2.5 18 1
v 0.5 18 1
v 1.5 18 1
v 2.5 18 1
v -2.5 18 -0
v -0.5 18 -0
v 0.5 18 -0
v 2.5 18 -0
v 4.5 18 -0
v -2.5 18 -1
v 0.5 18 -1
v -4.5 18 -2
v -2.5 18 -2
v 2.5 21 3
v 3.5 21 3
v 2.5 21 2
v 3.5 21 2
v -3.5 21 1
v -2.5 21 1
v 2.5 21 1
v 3.5 21 1
v -3.5 21 -0
v -2.5 21 -0
v 2.5 21 -0
v 3.5 21 -0
v -3.5 21 -1
v -2.5 21 -1
v -3.5 21 -2
v -2.5 21 -2
v -0.5 23 3
v 0.5 23 3
v -0.5 23 2
v 0.5 23 2
v -2.5 36 3
v 2.5 36 3
v -0.5 36 1
v 0.5 36 1
v -0.5 36 -0
v 0.5 36 -0
v -2.5 36 -2
v 2.5 36 -2
v -3.5 38 -0
v -2.5 38 -0
v 2.5 38 -0
v 3.5 38 -0
v -2.5 38 -2
v 2.5 38 -2
v -3.5 38 -3
v 3.5 38 -3
v -3.5 39 2
v -2.5 39 2
v 2.5 39 2
v 3.5 39 2
v -3.5 39 -0
v -2.5 39 -0
v 2.5 39 -0
v 3.5 39 -0
v -2.5 1 3
v -0.5 1 3
v -2.5 1 2
v -0.5 1 2
v 0.5 1 1
v 2.5 1 1
v 0.5 1 -0
v 2.5 1 -0
v -2.5 18 3
v -1.5 18 3
v -0.5 18 3
v -2.5 18 2
v -1.5 18 2
v -0.5 18 2
v 0.5 18 -1
v 2.5 18 -1
v 0.5 18 -2
v 2.5 18 -2
v 2.5 20 3
v 3.5 20 3
v 2.5 20 2
v -3.5 20 1
v -2.5 20 1
v 2.5 20 -0
v 3.5 20 -0
v -2.5 20 -1
v -3.5 20 -2
v -2.5 20 -2
v -0.5 34 3
v 0.5 34 3
v 2.5 34 3
v 4.5 34 3
v -2.5 34 2
v -0.5 34 2
v 0.5 34 2
v 2.5 34 2
v -4.5 34 1
v -2.5 34 1
v -1.5 34 1
v -0.5 34 1
v 0.5 34 1
v 1.5 34 1
v -1.5 34 -0
v -0.5 34 -0
v 0.5 34 -0
v 1.5 34 -0
v 2.5 34 -0
v 4.5 34 -0
v -2.5 34 -1
v -0.5 34 -1
v 0.5 34 -1
v 2.5 34 -1
v -4.5 34 -2
v -2.5 34 -2
v -0.5 35 2
v 0.5 35 2
v -1.5 35 1
v -0.5 35 1
v 0.5 35 1
v 1.5 35 1
v -1.5 35 -0
v -0.5 35 -0
v 0.5 35 -0
v 1.5 35 -0
v -0.5 35 -1
v 0.5 35 -1
v -2.5 41 3
v 2.5 41 3
v -3.5 41 2
v -2.5 41 2
v 2.5 41 2
v 3.5 41 2
v -2.5 41 -2
v 2.5 41 -2
v -3.5 41 -3
v 3.5 41 -3
v -2.5 42 2
v 2.5 42 2
v -2.5 42 -2
v 2.5 42 -2

# faces
f 3/2/1 2/2/1 1/2/1
f 4/2/1 2/2/1 3/2/1
f 5/6/1 4/6/1 3/6/1
f 6/6/1 4/6/1 5/6/1
f 10/1/1 8/1/1 7/1/1
f 11/1/1 10/1/1 9/1/1
f 12/1/1 8/1/1 10/1/1
f 12/1/1 10/1/1 11/1/1
f 15/10/1 14/10/1 13/10/1
f 16/10/1 14/10/1 15/10/1
f 18/10/1 14/10/1 16/10/1
f 19/10/1 14/10/1 18/10/1
f 20/8/1 18/8/1 17/8/1
f 21/9/1 19/9/1 18/9/1
f 21/8/1 18/8/1 20/8/1
f 22/9/1 19/9/1 21/9/1
f 23/9/1 19/9/1 22/9/1
f 24/8/1 22/8/1 21/8/1
f 26/8/1 24/8/1 21/8/1
f 27/9/1 25/9/1 24/9/1
f 27/8/1 24/8/1 26/8/1
f 28/9/1 25/9/1 27/9/1
f 29/9/1 25/9/1 28/9/1
f 30/5/1 27/5/1 26/5/1
f 31/5/1 27/5/1 30/5/1
f 32/6/1 31/6/1 30/6/1
f 33/6/1 32/6/1 30/6/1
f 34/6/1 32/6/1 33/6/1
f 37/2/1 36/2/1 35/2/1
f 38/2/1 36/2/1 37/2/1
f 39/2/1 37/2/1 35/2/1
f 40/2/1 37/2/1 39/2/1
f 41/2/1 37/2/1 40/2/1
f 42/1/1 40/1/1 39/1/1
f 43/1/1 40/1/1 42/1/1
f 45/1/1 44/1/1 43/1/1
f 46/1/1 44/1/1 45/1/1
f 49/6/1 48/6/1 47/6/1
f 50/6/1 48/6/1 49/6/1
f 53/3/1 52/3/1 51/3/1
f 54/3/1 52/3/1 53/3/1
f 58/3/1 55/3/1 54/3/1
f 59/3/1 55/3/1 58/3/1
f 60/6/1 57/6/1 56/6/1
f 61/6/1 57/6/1 60/6/1
f 62/2/1 60/2/1 59/2/1
f 63/2/1 60/2/1 62/2/1
f 66/10/1 65/10/1 64/10/1
f 67/10/1 65/10/1 66/10/1
f 69/10/1 65/10/1 67/10/1
f 70/10/1 65/10/1 69/10/1
f 71/8/1 69/8/1 68/8/1
f 72/9/1 70/9/1 69/9/1
f 72/8/1 69/8/1 71/8/1
f 73/9/1 70/9/1 72/9/1
f 74/9/1 70/9/1 73/9/1
f 77/2/1 76/2/1 75/2/1
f 78/2/1 76/2/1 77/2/1
f 81/7/1 80/7/1 79/7/1
f 82/7/1 81/7/1 79/7/1
f 83/7/1 81/7/1 82/7/1
f 84/6/1 83/6/1 82/6/1
f 85/6/1 83/6/1 84/6/1
f 88/2/1 87/2/1 86/2/1
f 89/2/1 87/2/1 88/2/1
f 90/2/1 87/2/1 89/2/1
f 91/2/1 87/2/1 90/2/1
f 92/2/2 93/2/2 94/2/2
f 94/2/2 93/2/2 95/2/2
f 95/2/2 93/2/2 96/2/2
f 96/2/2 93/2/2 97/2/2
f 98/2/2 99/2/2 100/2/2
f 100/2/2 99/2/2 101/2/2
f 102/7/2 103/7/2 104/7/2
f 104/7/2 103/7/2 105/7/2
f 105/7/2 103/7/2 106/7/2
f 105/6/2 106/6/2 107/6/2
f 107/6/2 106/6/2 108/6/2
f 109/10/2 110/10/2 111/10/2
f 111/10/2 110/10/2 112/10/2
f 112/10/2 110/10/2 114/10/2
f 114/10/2 110/10/2 115/10/2
f 113/9/2 114/9/2 116/9/2
f 114/9/2 115/9/2 116/9/2
f 116/9/2 115/9/2 117/9/2
f 117/9/2 115/9/2 118/9/2
f 119/3/2 120/3/2 121/3/2
f 121/3/2 120/3/2 122/3/2
f 122/3/2 123/3/2 126/3/2
f 126/3/2 123/3/2 127/3/2
f 124/6/2 125/6/2 128/6/2
f 128/6/2 125/6/2 129/6/2
f 127/2/2 128/2/2 130/2/2
f 130/2/2 128/2/2 131/2/2
f 132/6/2 133/6/2 134/6/2
f 134/6/2 133/6/2 135/6/2
f 136/10/2 137/10/2 138/10/2
f 138/10/2 137/10/2 139/10/2
f 139/10/2 137/10/2 141/10/2
f 141/10/2 137/10/2 142/10/2
f 140/9/2 141/9/2 143/9/2
f 141/9/2 142/9/2 143/9/2
f 143/9/2 142/9/2 144/9/2
f 144/9/2 142/9/2 145/9/2
f 145/9/2 142/9/2 146/9/2
f 144/9/2 145/9/2 148/9/2
f 147/9/2 148/9/2 149/9/2
f 149/9/2 148/9/2 150/9/2
f 148/9/2 145/9/2 151/9/2
f 150/9/2 148/9/2 151/9/2
f 151/9/2 145/9/2 152/9/2
f 151/10/2 152/10/2 153/10/2
f 153/10/2 152/10/2 154/10/2
f 153/6/2 154/6/2 155/6/2
f 155/6/2 154/6/2 156/6/2
f 156/6/2 154/6/2 157/6/2
f 158/2/2 159/2/2 160/2/2
f 160/2/2 159/2/2 161/2/2
f 158/2/2 160/2/2 162/2/2
f 162/2/2 160/2/2 163/2/2
f 163/2/2 160/2/2 164/2/2
f 162/1/2 163/1/2 165/1/2
f 165/1/2 163/1/2 166/1/2
f 166/1/2 167/1/2 168/1/2
f 168/1/2 167/1/2 169/1/2
f 170/1/2 171/1/2 173/1/2
f 172/1/2 173/1/2 174/1/2
f 173/1/2 171/1/2 175/1/2
f 174/1/2 173/1/2 175/1/2
f 176/2/2 177/2/2 178/2/2
f 178/2/2 177/2/2 179/2/2
f 178/6/2 179/6/2 180/6/2
f 180/6/2 179/6/2 181/6/2
f 189/8/3 185/8/3 184/8/3
f 190/8/3 185/8/3 189/8/3
f 191/2/3 187/2/3 186/2/3
f 192/1/3 188/1/3 187/1/3
f 192/2/3 187/2/3 191/2/3
f 193/1/3 188/1/3 192/1/3
f 194/10/3 183/10/3 182/10/3
f 195/10/3 183/10/3 194/10/3
f 196/9/3 190/9/3 189/9/3
f 197/9/3 190/9/3 196/9/3
f 200/2/3 191/2/3 186/2/3
f 200/10/3 192/10/3 191/10/3
f 201/2/3 193/2/3 192/2/3
f 201/10/3 192/10/3 200/10/3
f 202/1/3 188/1/3 193/1/3
f 202/2/3 193/2/3 201/2/3
f 203/3/3 199/3/3 198/3/3
f 204/3/3 199/3/3 203/3/3
f 205/2/3 201/2/3 200/2/3
f 205/2/3 200/2/3 186/2/3
f 206/1/3 202/1/3 201/1/3
f 206/2/3 201/2/3 205/2/3
f 207/1/3 188/1/3 202/1/3
f 207/1/3 202/1/3 206/1/3
f 208/10/3 206/10/3 205/10/3
f 208/2/3 205/2/3 186/2/3
f 209/2/3 207/2/3 206/2/3
f 209/10/3 206/10/3 208/10/3
f 210/1/3 188/1/3 207/1/3
f 210/2/3 207/2/3 209/2/3
f 216/2/3 209/2/3 208/2/3
f 216/2/3 208/2/3 186/2/3
f 217/1/3 210/1/3 209/1/3
f 217/2/3 209/2/3 216/2/3
f 218/1/3 188/1/3 210/1/3
f 218/1/3 210/1/3 217/1/3
f 219/2/3 212/2/3 211/2/3
f 220/7/3 214/7/3 213/7/3
f 221/6/3 215/6/3 214/6/3
f 221/7/3 214/7/3 220/7/3
f 222/2/3 220/2/3 219/2/3
f 222/2/3 219/2/3 211/2/3
f 223/6/3 221/6/3 220/6/3
f 223/2/3 220/2/3 222/2/3
f 224/6/3 215/6/3 221/6/3
f 224/6/3 221/6/3 223/6/3
f 233/1/3 226/1/3 225/1/3
f 234/1/3 226/1/3 233/1/3
f 236/10/3 228/10/3 227/10/3
f 237/8/3 230/8/3 229/8/3
f 238/5/3 231/5/3 230/5/3
f 238/8/3 230/8/3 237/8/3
f 239/10/3 236/10/3 227/10/3
f 240/10/3 236/10/3 239/10/3
f 241/9/3 238/9/3 237/9/3
f 242/6/3 232/6/3 231/6/3
f 243/6/3 232/6/3 242/6/3
f 245/6/3 242/6/3 231/6/3
f 246/3/3 244/3/3 243/3/3
f 247/3/3 244/3/3 246/3/3
f 248/9/3 238/9/3 241/9/3
f 249/9/3 238/9/3 248/9/3
f 250/5/3 231/5/3 238/5/3
f 250/9/3 238/9/3 249/9/3
f 251/6/3 245/6/3 231/6/3
f 251/5/3 231/5/3 250/5/3
f 251/6/3 246/6/3 245/6/3
f 252/6/3 246/6/3 251/6/3
f 253/6/3 246/6/3 252/6/3
f 255/1/3 235/1/3 234/1/3
f 256/1/3 235/1/3 255/1/3
f 257/1/3 255/1/3 254/1/3
f 258/1/3 255/1/3 257/1/3
f 262/2/3 260/2/3 259/2/3
f 263/6/3 261/6/3 260/6/3
f 263/2/3 260/2/3 262/2/3
f 264/6/3 261/6/3 263/6/3
f 265/2/3 262/2/3 259/2/3
f 266/2/3 262/2/3 265/2/3
f 267/7/3 264/7/3 263/7/3
f 268/7/3 264/7/3 267/7/3
f 269/6/3 261/6/3 264/6/3
f 269/7/3 264/7/3 268/7/3
f 270/6/3 261/6/3 269/6/3
f 273/6/3 272/6/3 271/6/3
f 274/6/3 272/6/3 273/6/3
f 281/2/3 275/2/3 274/2/3
f 282/2/3 275/2/3 281/2/3
f 283/8/3 279/8/3 278/8/3
f 284/8/3 279/8/3 283/8/3
f 285/6/3 281/6/3 280/6/3
f 286/6/3 281/6/3 285/6/3
f 287/10/3 277/10/3 276/10/3
f 288/10/3 277/10/3 287/10/3
f 289/9/3 284/9/3 283/9/3
f 290/9/3 284/9/3 289/9/3
f 293/1/3 292/1/3 291/1/3
f 294/1/3 292/1/3 293/1/3
f 297/10/3 296/10/3 295/10/3
f 298/10/3 297/10/3 295/10/3
f 299/10/3 297/10/3 298/10/3
f 302/1/3 301/1/3 300/1/3
f 303/1/3 301/1/3 302/1/3
f 304/10/4 305/10/4 309/10/4
f 305/9/4 306/9/4 310/9/4
f 309/10/4 305/10/4 310/10/4
f 310/9/4 306/9/4 311/9/4
f 307/6/4 308/6/4 312/6/4
f 312/6/4 308/6/4 313/6/4
f 313/2/4 314/2/4 316/2/4
f 316/2/4 314/2/4 317/2/4
f 315/6/4 316/6/4 318/6/4
f 318/6/4 316/6/4 319/6/4
f 320/2/4 321/2/4 326/2/4
f 322/7/4 323/7/4 327/7/4
f 323/7/4 324/7/4 327/7/4
f 324/6/4 325/6/4 328/6/4
f 327/7/4 324/7/4 328/7/4
f 326/2/4 327/2/4 329/2/4
f 320/2/4 326/2/4 329/2/4
f 327/6/4 328/6/4 330/6/4
f 329/2/4 327/2/4 330/2/4
f 328/6/4 325/6/4 331/6/4
f 330/6/4 328/6/4 331/6/4
f 335/6/4 336/6/4 338/6/4
f 336/6/4 337/6/4 338/6/4
f 332/9/4 333/9/4 340/9/4
f 333/9/4 334/9/4 340/9/4
f 338/6/4 339/6/4 341/6/4
f 335/6/4 338/6/4 341/6/4
f 341/6/4 339/6/4 342/6/4
f 340/9/4 334/9/4 343/9/4
f 334/10/4 335/10/4 344/10/4
f 343/9/4 334/9/4 344/9/4
f 335/6/4 341/6/4 345/6/4
f 344/10/4 335/10/4 345/10/4
f 345/6/4 341/6/4 346/6/4
f 347/2/4 348/2/4 350/2/4
f 348/6/4 349/6/4 351/6/4
f 350/2/4 348/2/4 351/2/4
f 351/6/4 349/6/4 352/6/4
f 347/2/4 350/2/4 353/2/4
f 353/2/4 350/2/4 354/2/4
f 351/7/4 352/7/4 355/7/4
f 352/6/4 349/6/4 356/6/4
f 355/7/4 352/7/4 356/7/4
f 356/6/4 349/6/4 357/6/4
f 362/10/4 363/10/4 365/10/4
f 363/9/4 364/9/4 366/9/4
f 365/10/4 363/10/4 366/10/4
f 366/9/4 364/9/4 367/9/4
f 358/2/4 359/2/4 368/2/4
f 368/2/4 359/2/4 369/2/4
f 360/1/4 361/1/4 370/1/4
f 370/1/4 361/1/4 371/1/4
f 372/1/4 373/1/4 374/1/4
f 374/1/4 373/1/4 375/1/4
f 380/10/5 377/10/5 376/10/5
f 381/10/5 377/10/5 380/10/5
f 382/10/5 379/10/5 378/10/5
f 383/10/5 379/10/5 382/10/5
f 387/8/5 385/8/5 384/8/5
f 388/9/5 386/9/5 385/9/5
f 388/8/5 385/8/5 387/8/5
f 389/9/5 386/9/5 388/9/5
f 393/8/5 391/8/5 390/8/5
f 394/9/5 392/9/5 391/9/5
f 394/8/5 391/8/5 393/8/5
f 395/9/5 392/9/5 394/9/5
f 399/2/5 397/2/5 396/2/5
f 402/9/5 399/9/5 398/9/5
f 403/9/5 399/9/5 402/9/5
f 404/2/5 397/2/5 399/2/5
f 404/9/5 399/9/5 403/9/5
f 405/2/5 401/2/5 400/2/5
f 406/9/5 402/9/5 398/9/5
f 407/9/5 402/9/5 406/9/5
f 408/2/5 397/2/5 404/2/5
f 409/2/5 397/2/5 408/2/5
f 410/9/5 407/9/5 406/9/5
f 410/2/5 405/2/5 400/2/5
f 410/9/5 406/9/5 405/9/5
f 411/9/5 407/9/5 410/9/5
f 412/2/5 410/2/5 400/2/5
f 413/2/5 410/2/5 412/2/5
f 416/7/5 415/7/5 414/7/5
f 417/7/5 415/7/5 416/7/5
f 420/6/5 417/6/5 416/6/5
f 421/6/5 417/6/5 420/6/5
f 422/7/5 419/7/5 418/7/5
f 423/7/5 419/7/5 422/7/5
f 424/7/5 421/7/5 420/7/5
f 425/7/5 421/7/5 424/7/5
f 426/6/5 423/6/5 422/6/5
f 427/6/5 423/6/5 426/6/5
f 428/7/5 427/7/5 426/7/5
f 429/7/5 427/7/5 428/7/5
f 432/3/5 431/3/5 430/3/5
f 433/3/5 431/3/5 432/3/5
f 436/2/5 435/2/5 434/2/5
f 437/2/5 435/2/5 436/2/5
f 438/2/5 436/2/5 434/2/5
f 439/2/5 435/2/5 437/2/5
f 440/2/5 438/2/5 434/2/5
f 440/2/5 439/2/5 438/2/5
f 441/2/5 435/2/5 439/2/5
f 441/2/5 439/2/5 440/2/5
f 446/1/5 443/1/5 442/1/5
f 447/1/5 445/1/5 444/1/5
f 448/1/5 446/1/5 442/1/5
f 448/1/5 447/1/5 446/1/5
f 449/1/5 445/1/5 447/1/5
f 449/1/5 447/1/5 448/1/5
f 454/1/5 451/1/5 450/1/5
f 455/1/5 451/1/5 454/1/5
f 456/1/5 453/1/5 452/1/5
f 457/1/5 453/1/5 456/1/5
f 458/10/6 459/10/6 460/10/6
f 460/10/6 459/10/6 461/10/6
f 462/10/6 463/10/6 464/10/6
f 464/10/6 463/10/6 465/10/6
f 466/8/6 467/8/6 469/8/6
f 467/9/6 468/9/6 470/9/6
f 469/8/6 467/8/6 470/8/6
f 470/9/6 468/9/6 471/9/6
f 472/9/6 473/9/6 474/9/6
f 474/9/6 473/9/6 475/9/6
f 476/2/6 477/2/6 478/2/6
f 478/2/6 477/2/6 481/2/6
f 481/2/6 477/2/6 482/2/6
f 479/2/6 480/2/6 483/2/6
f 479/2/6 483/2/6 484/2/6
f 484/2/6 483/2/6 485/2/6
f 486/3/6 487/3/6 491/3/6
f 491/3/6 487/3/6 492/3/6
f 488/6/6 489/6/6 493/6/6
f 490/6/6 491/6/6 495/6/6
f 495/6/6 491/6/6 496/6/6
f 496/6/6 491/6/6 497/6/6
f 492/6/6 493/6/6 498/6/6
f 498/6/6 493/6/6 499/6/6
f 494/6/6 495/6/6 500/6/6
f 495/6/6 496/6/6 500/6/6
f 499/6/6 493/6/6 503/6/6
f 493/6/6 489/6/6 504/6/6
f 503/6/6 493/6/6 504/6/6
f 504/6/6 489/6/6 505/6/6
f 500/6/6 501/6/6 506/6/6
f 494/6/6 500/6/6 506/6/6
f 506/6/6 501/6/6 507/6/6
f 502/6/6 503/6/6 508/6/6
f 503/6/6 504/6/6 508/6/6
f 508/6/6 504/6/6 509/6/6
f 494/6/6 506/6/6 510/6/6
f 510/6/6 506/6/6 511/6/6
f 512/3/6 513/3/6 515/3/6
f 515/3/6 513/3/6 516/3/6
f 514/6/6 515/6/6 518/6/6
f 518/6/6 515/6/6 519/6/6
f 516/6/6 517/6/6 520/6/6
f 520/6/6 517/6/6 521/6/6
f 519/6/6 520/6/6 522/6/6
f 522/6/6 520/6/6 523/6/6
f 524/1/6 525/1/6 527/1/6
f 527/1/6 525/1/6 528/1/6
f 526/1/6 527/1/6 530/1/6
f 528/1/6 529/1/6 531/1/6
f 526/1/6 530/1/6 532/1/6
f 530/1/6 531/1/6 532/1/6
f 531/1/6 529/1/6 533/1/6
f 532/1/6 531/1/6 533/1/6
f 534/1/6 535/1/6 536/1/6
f 536/1/6 535/1/6 537/1/6
