# MagicaVoxel @ Ephtracy

# group
g Tony_Ethn2_Walking2

# material
mtllib Tony_Ethn2_Walking2.mtl
usemtl palette

# normals
vn -1 0 0
vn 1 0 0
vn 0 0 1
vn 0 0 -1
vn 0 -1 0
vn 0 1 0

# texcoords
vt 0.0136719 0.5
vt 0.0175781 0.5
vt 0.146484 0.5
vt 0.306641 0.5
vt 0.759766 0.5
vt 0.775391 0.5
vt 0.779297 0.5
vt 0.931641 0.5
vt 0.939453 0.5
vt 0.994141 0.5

# verts
v -4.5 18 1
v -4.5 18 -2
v -4.5 21 1
v -4.5 21 -2
v -4.5 34 1
v -4.5 34 -2
v -3.5 38 -0
v -3.5 38 -3
v -3.5 39 2
v -3.5 39 -0
v -3.5 41 2
v -3.5 41 -3
v -2.5 0 3
v -2.5 0 -0
v -2.5 1 3
v -2.5 1 2
v -2.5 2 3
v -2.5 2 2
v -2.5 2 -0
v -2.5 18 3
v -2.5 18 2
v -2.5 18 1
v -2.5 18 -0
v -2.5 20 1
v -2.5 20 -1
v -2.5 21 2
v -2.5 21 1
v -2.5 21 -0
v -2.5 21 -1
v -2.5 22 2
v -2.5 22 1
v -2.5 31 1
v -2.5 34 2
v -2.5 34 1
v -2.5 36 3
v -2.5 36 -2
v -2.5 38 -0
v -2.5 38 -2
v -2.5 39 3
v -2.5 39 2
v -2.5 39 -0
v -2.5 41 3
v -2.5 41 2
v -2.5 41 -2
v -2.5 42 2
v -2.5 42 -2
v -1.5 34 2
v -1.5 34 -1
v -1.5 35 2
v -1.5 35 -1
v -0.5 23 3
v -0.5 23 2
v -0.5 34 3
v -0.5 34 2
v -0.5 35 1
v -0.5 35 -0
v -0.5 36 1
v -0.5 36 -0
v 0.5 0 1
v 0.5 0 -2
v 0.5 1 1
v 0.5 1 -0
v 0.5 2 1
v 0.5 2 -0
v 0.5 2 -2
v 0.5 18 1
v 0.5 18 -0
v 0.5 18 -1
v 0.5 18 -2
v 2.5 18 3
v 2.5 18 2
v 2.5 20 3
v 2.5 20 2
v 2.5 21 3
v 2.5 21 2
v 2.5 22 2
v 2.5 31 3
v 2.5 31 2
v 2.5 34 3
v 2.5 34 2
v 3.5 20 3
v 3.5 20 -0
v 3.5 21 3
v 3.5 21 2
v 3.5 21 1
v 3.5 21 -0
v -3.5 20 1
v -3.5 20 -2
v -3.5 21 1
v -3.5 21 -0
v -3.5 21 -1
v -3.5 21 -2
v -2.5 18 -1
v -2.5 18 -2
v -2.5 20 -1
v -2.5 20 -2
v -2.5 21 -1
v -2.5 21 -2
v -2.5 22 -1
v -2.5 31 -1
v -2.5 31 -2
v -2.5 34 -1
v -2.5 34 -2
v -0.5 0 3
v -0.5 0 -0
v -0.5 1 3
v -0.5 1 2
v -0.5 2 3
v -0.5 2 2
v -0.5 2 -0
v -0.5 18 3
v -0.5 18 2
v -0.5 18 -0
v 0.5 23 3
v 0.5 23 2
v 0.5 34 3
v 0.5 34 2
v 0.5 35 1
v 0.5 35 -0
v 0.5 36 1
v 0.5 36 -0
v 1.5 34 2
v 1.5 34 -1
v 1.5 35 2
v 1.5 35 -1
v 2.5 0 1
v 2.5 0 -2
v 2.5 1 1
v 2.5 1 -0
v 2.5 2 1
v 2.5 2 -0
v 2.5 2 -2
v 2.5 18 1
v 2.5 18 -0
v 2.5 18 -1
v 2.5 18 -2
v 2.5 20 2
v 2.5 20 -0
v 2.5 21 2
v 2.5 21 1
v 2.5 21 -0
v 2.5 21 -1
v 2.5 22 -0
v 2.5 22 -1
v 2.5 31 -0
v 2.5 34 -0
v 2.5 34 -1
v 2.5 36 3
v 2.5 36 -2
v 2.5 38 -0
v 2.5 38 -2
v 2.5 39 3
v 2.5 39 2
v 2.5 39 -0
v 2.5 41 3
v 2.5 41 2
v 2.5 41 -2
v 2.5 42 2
v 2.5 42 -2
v 3.5 38 -0
v 3.5 38 -3
v 3.5 39 2
v 3.5 39 -0
v 3.5 41 2
v 3.5 41 -3
v 4.5 18 3
v 4.5 18 -0
v 4.5 21 3
v 4.5 21 -0
v 4.5 34 3
v 4.5 34 -0
v -2.5 0 3
v -2.5 1 3
v -2.5 2 3
v -2.5 18 3
v -2.5 36 3
v -2.5 39 3
v -2.5 41 3
v -1.5 2 3
v -1.5 18 3
v -1.5 38 3
v -1.5 39 3
v -1.5 40 3
v -0.5 0 3
v -0.5 1 3
v -0.5 2 3
v -0.5 18 3
v -0.5 23 3
v -0.5 34 3
v -0.5 38 3
v -0.5 39 3
v -0.5 40 3
v 0.5 23 3
v 0.5 34 3
v 0.5 38 3
v 0.5 39 3
v 0.5 40 3
v 1.5 38 3
v 1.5 39 3
v 1.5 40 3
v 2.5 18 3
v 2.5 20 3
v 2.5 21 3
v 2.5 31 3
v 2.5 34 3
v 2.5 36 3
v 2.5 39 3
v 2.5 41 3
v 3.5 20 3
v 3.5 21 3
v 3.5 31 3
v 4.5 18 3
v 4.5 21 3
v 4.5 34 3
v -3.5 39 2
v -3.5 41 2
v -2.5 1 2
v -2.5 2 2
v -2.5 18 2
v -2.5 21 2
v -2.5 22 2
v -2.5 34 2
v -2.5 39 2
v -2.5 41 2
v -2.5 42 2
v -1.5 2 2
v -1.5 18 2
v -1.5 21 2
v -1.5 34 2
v -1.5 35 2
v -0.5 1 2
v -0.5 2 2
v -0.5 18 2
v -0.5 23 2
v -0.5 34 2
v -0.5 35 2
v 0.5 23 2
v 0.5 34 2
v 0.5 35 2
v 1.5 34 2
v 1.5 35 2
v 2.5 18 2
v 2.5 20 2
v 2.5 21 2
v 2.5 22 2
v 2.5 31 2
v 2.5 34 2
v 2.5 39 2
v 2.5 41 2
v 2.5 42 2
v 3.5 39 2
v 3.5 41 2
v -4.5 18 1
v -4.5 21 1
v -4.5 34 1
v -3.5 20 1
v -3.5 21 1
v -3.5 31 1
v -2.5 18 1
v -2.5 20 1
v -2.5 21 1
v -2.5 22 1
v -2.5 31 1
v -2.5 34 1
v -0.5 35 1
v -0.5 36 1
v 0.5 0 1
v 0.5 1 1
v 0.5 2 1
v 0.5 18 1
v 0.5 35 1
v 0.5 36 1
v 1.5 2 1
v 1.5 18 1
v 2.5 0 1
v 2.5 1 1
v 2.5 2 1
v 2.5 18 1
v -3.5 38 -0
v -3.5 39 -0
v -2.5 38 -0
v -2.5 39 -0
v 0.5 1 -0
v 0.5 2 -0
v 1.5 2 -0
v 2.5 1 -0
v 2.5 2 -0
v 2.5 38 -0
v 2.5 39 -0
v 3.5 38 -0
v 3.5 39 -0
v -2.5 0 -0
v -2.5 2 -0
v -2.5 18 -0
v -0.5 0 -0
v -0.5 2 -0
v -0.5 18 -0
v -0.5 35 -0
v -0.5 36 -0
v 0.5 35 -0
v 0.5 36 -0
v 2.5 18 -0
v 2.5 20 -0
v 2.5 21 -0
v 2.5 22 -0
v 2.5 31 -0
v 2.5 34 -0
v 3.5 20 -0
v 3.5 21 -0
v 3.5 31 -0
v 4.5 18 -0
v 4.5 21 -0
v 4.5 34 -0
v -2.5 18 -1
v -2.5 20 -1
v -2.5 21 -1
v -2.5 22 -1
v -2.5 31 -1
v -2.5 34 -1
v -1.5 34 -1
v -1.5 35 -1
v 0.5 18 -1
v 1.5 34 -1
v 1.5 35 -1
v 2.5 18 -1
v 2.5 21 -1
v 2.5 22 -1
v 2.5 34 -1
v -4.5 18 -2
v -4.5 21 -2
v -4.5 34 -2
v -3.5 20 -2
v -3.5 21 -2
v -3.5 31 -2
v -2.5 18 -2
v -2.5 20 -2
v -2.5 21 -2
v -2.5 31 -2
v -2.5 34 -2
v -2.5 36 -2
v -2.5 38 -2
v -2.5 41 -2
v -2.5 42 -2
v 0.5 0 -2
v 0.5 2 -2
v 0.5 18 -2
v 2.5 0 -2
v 2.5 2 -2
v 2.5 18 -2
v 2.5 36 -2
v 2.5 38 -2
v 2.5 41 -2
v 2.5 42 -2
v -3.5 38 -3
v -3.5 41 -3
v 3.5 38 -3
v 3.5 41 -3
v -2.5 0 3
v -0.5 0 3
v 0.5 0 1
v 2.5 0 1
v -2.5 0 -0
v -0.5 0 -0
v 0.5 0 -2
v 2.5 0 -2
v -2.5 2 3
v -1.5 2 3
v -0.5 2 3
v -2.5 2 2
v -1.5 2 2
v -0.5 2 2
v 0.5 2 1
v 1.5 2 1
v 2.5 2 1
v 0.5 2 -0
v 1.5 2 -0
v 2.5 2 -0
v 2.5 18 3
v 4.5 18 3
v -0.5 18 2
v 2.5 18 2
v -4.5 18 1
v -2.5 18 1
v 0.5 18 1
v 1.5 18 1
v 2.5 18 1
v -2.5 18 -0
v -0.5 18 -0
v 0.5 18 -0
v 2.5 18 -0
v 4.5 18 -0
v -2.5 18 -1
v 0.5 18 -1
v -4.5 18 -2
v -2.5 18 -2
v 2.5 21 3
v 3.5 21 3
v 2.5 21 2
v 3.5 21 2
v -3.5 21 1
v -2.5 21 1
v 2.5 21 1
v 3.5 21 1
v -3.5 21 -0
v -2.5 21 -0
v 2.5 21 -0
v 3.5 21 -0
v -3.5 21 -1
v -2.5 21 -1
v -3.5 21 -2
v -2.5 21 -2
v -0.5 23 3
v 0.5 23 3
v -0.5 23 2
v 0.5 23 2
v -2.5 36 3
v 2.5 36 3
v -0.5 36 1
v 0.5 36 1
v -0.5 36 -0
v 0.5 36 -0
v -2.5 36 -2
v 2.5 36 -2
v -3.5 38 -0
v -2.5 38 -0
v 2.5 38 -0
v 3.5 38 -0
v -2.5 38 -2
v 2.5 38 -2
v -3.5 38 -3
v 3.5 38 -3
v -3.5 39 2
v -2.5 39 2
v 2.5 39 2
v 3.5 39 2
v -3.5 39 -0
v -2.5 39 -0
v 2.5 39 -0
v 3.5 39 -0
v -2.5 1 3
v -0.5 1 3
v -2.5 1 2
v -0.5 1 2
v 0.5 1 1
v 2.5 1 1
v 0.5 1 -0
v 2.5 1 -0
v -2.5 18 3
v -1.5 18 3
v -0.5 18 3
v -2.5 18 2
v -1.5 18 2
v -0.5 18 2
v 0.5 18 -1
v 2.5 18 -1
v 0.5 18 -2
v 2.5 18 -2
v 2.5 20 3
v 3.5 20 3
v 2.5 20 2
v -3.5 20 1
v -2.5 20 1
v 2.5 20 -0
v 3.5 20 -0
v -2.5 20 -1
v -3.5 20 -2
v -2.5 20 -2
v -0.5 34 3
v 0.5 34 3
v 2.5 34 3
v 4.5 34 3
v -2.5 34 2
v -1.5 34 2
v -0.5 34 2
v 0.5 34 2
v 1.5 34 2
v 2.5 34 2
v -4.5 34 1
v -2.5 34 1
v 2.5 34 -0
v 4.5 34 -0
v -2.5 34 -1
v -1.5 34 -1
v 1.5 34 -1
v 2.5 34 -1
v -4.5 34 -2
v -2.5 34 -2
v -1.5 35 2
v -0.5 35 2
v 0.5 35 2
v 1.5 35 2
v -0.5 35 1
v 0.5 35 1
v -0.5 35 -0
v 0.5 35 -0
v -1.5 35 -1
v 1.5 35 -1
v -2.5 41 3
v 2.5 41 3
v -3.5 41 2
v -2.5 41 2
v 2.5 41 2
v 3.5 41 2
v -2.5 41 -2
v 2.5 41 -2
v -3.5 41 -3
v 3.5 41 -3
v -2.5 42 2
v 2.5 42 2
v -2.5 42 -2
v 2.5 42 -2

# faces
f 3/2/1 2/2/1 1/2/1
f 4/2/1 2/2/1 3/2/1
f 5/6/1 4/6/1 3/6/1
f 6/6/1 4/6/1 5/6/1
f 10/1/1 8/1/1 7/1/1
f 11/1/1 10/1/1 9/1/1
f 12/1/1 8/1/1 10/1/1
f 12/1/1 10/1/1 11/1/1
f 15/10/1 14/10/1 13/10/1
f 16/10/1 14/10/1 15/10/1
f 18/10/1 14/10/1 16/10/1
f 19/10/1 14/10/1 18/10/1
f 20/8/1 18/8/1 17/8/1
f 21/9/1 19/9/1 18/9/1
f 21/8/1 18/8/1 20/8/1
f 22/9/1 19/9/1 21/9/1
f 23/9/1 19/9/1 22/9/1
f 24/8/1 22/8/1 21/8/1
f 26/8/1 24/8/1 21/8/1
f 27/9/1 25/9/1 24/9/1
f 27/8/1 24/8/1 26/8/1
f 28/9/1 25/9/1 27/9/1
f 29/9/1 25/9/1 28/9/1
f 30/5/1 27/5/1 26/5/1
f 31/5/1 27/5/1 30/5/1
f 32/6/1 31/6/1 30/6/1
f 33/6/1 32/6/1 30/6/1
f 34/6/1 32/6/1 33/6/1
f 37/2/1 36/2/1 35/2/1
f 38/2/1 36/2/1 37/2/1
f 39/2/1 37/2/1 35/2/1
f 40/2/1 37/2/1 39/2/1
f 41/2/1 37/2/1 40/2/1
f 42/1/1 40/1/1 39/1/1
f 43/1/1 40/1/1 42/1/1
f 45/1/1 44/1/1 43/1/1
f 46/1/1 44/1/1 45/1/1
f 49/6/1 48/6/1 47/6/1
f 50/6/1 48/6/1 49/6/1
f 53/3/1 52/3/1 51/3/1
f 54/3/1 52/3/1 53/3/1
f 57/2/1 56/2/1 55/2/1
f 58/2/1 56/2/1 57/2/1
f 61/10/1 60/10/1 59/10/1
f 62/10/1 60/10/1 61/10/1
f 64/10/1 60/10/1 62/10/1
f 65/10/1 60/10/1 64/10/1
f 66/8/1 64/8/1 63/8/1
f 67/9/1 65/9/1 64/9/1
f 67/8/1 64/8/1 66/8/1
f 68/9/1 65/9/1 67/9/1
f 69/9/1 65/9/1 68/9/1
f 72/2/1 71/2/1 70/2/1
f 73/2/1 71/2/1 72/2/1
f 76/7/1 75/7/1 74/7/1
f 77/7/1 76/7/1 74/7/1
f 78/7/1 76/7/1 77/7/1
f 79/6/1 78/6/1 77/6/1
f 80/6/1 78/6/1 79/6/1
f 83/2/1 82/2/1 81/2/1
f 84/2/1 82/2/1 83/2/1
f 85/2/1 82/2/1 84/2/1
f 86/2/1 82/2/1 85/2/1
f 87/2/2 88/2/2 89/2/2
f 89/2/2 88/2/2 90/2/2
f 90/2/2 88/2/2 91/2/2
f 91/2/2 88/2/2 92/2/2
f 93/2/2 94/2/2 95/2/2
f 95/2/2 94/2/2 96/2/2
f 97/7/2 98/7/2 99/7/2
f 99/7/2 98/7/2 100/7/2
f 100/7/2 98/7/2 101/7/2
f 100/6/2 101/6/2 102/6/2
f 102/6/2 101/6/2 103/6/2
f 104/10/2 105/10/2 106/10/2
f 106/10/2 105/10/2 107/10/2
f 107/10/2 105/10/2 109/10/2
f 109/10/2 105/10/2 110/10/2
f 108/9/2 109/9/2 111/9/2
f 109/9/2 110/9/2 111/9/2
f 111/9/2 110/9/2 112/9/2
f 112/9/2 110/9/2 113/9/2
f 114/3/2 115/3/2 116/3/2
f 116/3/2 115/3/2 117/3/2
f 118/2/2 119/2/2 120/2/2
f 120/2/2 119/2/2 121/2/2
f 122/6/2 123/6/2 124/6/2
f 124/6/2 123/6/2 125/6/2
f 126/10/2 127/10/2 128/10/2
f 128/10/2 127/10/2 129/10/2
f 129/10/2 127/10/2 131/10/2
f 131/10/2 127/10/2 132/10/2
f 130/9/2 131/9/2 133/9/2
f 131/9/2 132/9/2 133/9/2
f 133/9/2 132/9/2 134/9/2
f 134/9/2 132/9/2 135/9/2
f 135/9/2 132/9/2 136/9/2
f 134/9/2 135/9/2 138/9/2
f 137/9/2 138/9/2 139/9/2
f 139/9/2 138/9/2 140/9/2
f 138/9/2 135/9/2 141/9/2
f 140/9/2 138/9/2 141/9/2
f 141/9/2 135/9/2 142/9/2
f 141/10/2 142/10/2 143/10/2
f 143/10/2 142/10/2 144/10/2
f 143/6/2 144/6/2 145/6/2
f 145/6/2 144/6/2 146/6/2
f 146/6/2 144/6/2 147/6/2
f 148/2/2 149/2/2 150/2/2
f 150/2/2 149/2/2 151/2/2
f 148/2/2 150/2/2 152/2/2
f 152/2/2 150/2/2 153/2/2
f 153/2/2 150/2/2 154/2/2
f 152/1/2 153/1/2 155/1/2
f 155/1/2 153/1/2 156/1/2
f 156/1/2 157/1/2 158/1/2
f 158/1/2 157/1/2 159/1/2
f 160/1/2 161/1/2 163/1/2
f 162/1/2 163/1/2 164/1/2
f 163/1/2 161/1/2 165/1/2
f 164/1/2 163/1/2 165/1/2
f 166/2/2 167/2/2 168/2/2
f 168/2/2 167/2/2 169/2/2
f 168/6/2 169/6/2 170/6/2
f 170/6/2 169/6/2 171/6/2
f 179/8/3 175/8/3 174/8/3
f 180/8/3 175/8/3 179/8/3
f 181/2/3 177/2/3 176/2/3
f 182/1/3 178/1/3 177/1/3
f 182/2/3 177/2/3 181/2/3
f 183/1/3 178/1/3 182/1/3
f 184/10/3 173/10/3 172/10/3
f 185/10/3 173/10/3 184/10/3
f 186/9/3 180/9/3 179/9/3
f 187/9/3 180/9/3 186/9/3
f 190/2/3 181/2/3 176/2/3
f 190/10/3 182/10/3 181/10/3
f 191/2/3 183/2/3 182/2/3
f 191/10/3 182/10/3 190/10/3
f 192/1/3 178/1/3 183/1/3
f 192/2/3 183/2/3 191/2/3
f 193/3/3 189/3/3 188/3/3
f 194/3/3 189/3/3 193/3/3
f 195/2/3 191/2/3 190/2/3
f 195/2/3 190/2/3 176/2/3
f 196/1/3 192/1/3 191/1/3
f 196/2/3 191/2/3 195/2/3
f 197/1/3 178/1/3 192/1/3
f 197/1/3 192/1/3 196/1/3
f 198/10/3 196/10/3 195/10/3
f 198/2/3 195/2/3 176/2/3
f 199/2/3 197/2/3 196/2/3
f 199/10/3 196/10/3 198/10/3
f 200/1/3 178/1/3 197/1/3
f 200/2/3 197/2/3 199/2/3
f 206/2/3 199/2/3 198/2/3
f 206/2/3 198/2/3 176/2/3
f 207/1/3 200/1/3 199/1/3
f 207/2/3 199/2/3 206/2/3
f 208/1/3 178/1/3 200/1/3
f 208/1/3 200/1/3 207/1/3
f 209/2/3 202/2/3 201/2/3
f 210/7/3 204/7/3 203/7/3
f 211/6/3 205/6/3 204/6/3
f 211/7/3 204/7/3 210/7/3
f 212/2/3 210/2/3 209/2/3
f 212/2/3 209/2/3 201/2/3
f 213/6/3 211/6/3 210/6/3
f 213/2/3 210/2/3 212/2/3
f 214/6/3 205/6/3 211/6/3
f 214/6/3 211/6/3 213/6/3
f 223/1/3 216/1/3 215/1/3
f 224/1/3 216/1/3 223/1/3
f 226/10/3 218/10/3 217/10/3
f 227/8/3 220/8/3 219/8/3
f 228/5/3 221/5/3 220/5/3
f 228/8/3 220/8/3 227/8/3
f 229/6/3 222/6/3 221/6/3
f 231/10/3 226/10/3 217/10/3
f 232/10/3 226/10/3 231/10/3
f 233/9/3 228/9/3 227/9/3
f 234/6/3 230/6/3 229/6/3
f 234/6/3 229/6/3 221/6/3
f 235/6/3 230/6/3 234/6/3
f 236/6/3 230/6/3 235/6/3
f 237/6/3 234/6/3 221/6/3
f 238/3/3 236/3/3 235/3/3
f 239/3/3 236/3/3 238/3/3
f 240/6/3 238/6/3 237/6/3
f 240/6/3 239/6/3 238/6/3
f 241/6/3 239/6/3 240/6/3
f 242/9/3 228/9/3 233/9/3
f 243/9/3 228/9/3 242/9/3
f 244/5/3 221/5/3 228/5/3
f 244/9/3 228/9/3 243/9/3
f 245/6/3 237/6/3 221/6/3
f 245/5/3 221/5/3 244/5/3
f 245/6/3 240/6/3 237/6/3
f 246/6/3 240/6/3 245/6/3
f 247/6/3 240/6/3 246/6/3
f 249/1/3 225/1/3 224/1/3
f 250/1/3 225/1/3 249/1/3
f 251/1/3 249/1/3 248/1/3
f 252/1/3 249/1/3 251/1/3
f 256/2/3 254/2/3 253/2/3
f 257/6/3 255/6/3 254/6/3
f 257/2/3 254/2/3 256/2/3
f 258/6/3 255/6/3 257/6/3
f 259/2/3 256/2/3 253/2/3
f 260/2/3 256/2/3 259/2/3
f 261/7/3 258/7/3 257/7/3
f 262/7/3 258/7/3 261/7/3
f 263/6/3 255/6/3 258/6/3
f 263/7/3 258/7/3 262/7/3
f 264/6/3 255/6/3 263/6/3
f 271/2/3 266/2/3 265/2/3
f 272/2/3 266/2/3 271/2/3
f 273/8/3 270/8/3 269/8/3
f 274/8/3 270/8/3 273/8/3
f 275/10/3 268/10/3 267/10/3
f 276/10/3 268/10/3 275/10/3
f 277/9/3 274/9/3 273/9/3
f 278/9/3 274/9/3 277/9/3
f 281/1/3 280/1/3 279/1/3
f 282/1/3 280/1/3 281/1/3
f 285/10/3 284/10/3 283/10/3
f 286/10/3 285/10/3 283/10/3
f 287/10/3 285/10/3 286/10/3
f 290/1/3 289/1/3 288/1/3
f 291/1/3 289/1/3 290/1/3
f 292/10/4 293/10/4 295/10/4
f 293/9/4 294/9/4 296/9/4
f 295/10/4 293/10/4 296/10/4
f 296/9/4 294/9/4 297/9/4
f 298/2/4 299/2/4 300/2/4
f 300/2/4 299/2/4 301/2/4
f 302/2/4 303/2/4 308/2/4
f 304/7/4 305/7/4 309/7/4
f 305/7/4 306/7/4 309/7/4
f 306/6/4 307/6/4 310/6/4
f 309/7/4 306/7/4 310/7/4
f 308/2/4 309/2/4 311/2/4
f 302/2/4 308/2/4 311/2/4
f 309/6/4 310/6/4 312/6/4
f 311/2/4 309/2/4 312/2/4
f 310/6/4 307/6/4 313/6/4
f 312/6/4 310/6/4 313/6/4
f 317/6/4 318/6/4 320/6/4
f 318/6/4 319/6/4 320/6/4
f 314/9/4 315/9/4 322/9/4
f 315/9/4 316/9/4 322/9/4
f 320/6/4 321/6/4 323/6/4
f 317/6/4 320/6/4 323/6/4
f 323/6/4 321/6/4 324/6/4
f 322/9/4 316/9/4 325/9/4
f 316/10/4 317/10/4 326/10/4
f 325/9/4 316/9/4 326/9/4
f 317/6/4 323/6/4 327/6/4
f 326/10/4 317/10/4 327/10/4
f 327/6/4 323/6/4 328/6/4
f 329/2/4 330/2/4 332/2/4
f 330/6/4 331/6/4 333/6/4
f 332/2/4 330/2/4 333/2/4
f 333/6/4 331/6/4 334/6/4
f 329/2/4 332/2/4 335/2/4
f 335/2/4 332/2/4 336/2/4
f 333/7/4 334/7/4 337/7/4
f 334/6/4 331/6/4 338/6/4
f 337/7/4 334/7/4 338/7/4
f 338/6/4 331/6/4 339/6/4
f 344/10/4 345/10/4 347/10/4
f 345/9/4 346/9/4 348/9/4
f 347/10/4 345/10/4 348/10/4
f 348/9/4 346/9/4 349/9/4
f 340/2/4 341/2/4 350/2/4
f 350/2/4 341/2/4 351/2/4
f 342/1/4 343/1/4 352/1/4
f 352/1/4 343/1/4 353/1/4
f 354/1/4 355/1/4 356/1/4
f 356/1/4 355/1/4 357/1/4
f 362/10/5 359/10/5 358/10/5
f 363/10/5 359/10/5 362/10/5
f 364/10/5 361/10/5 360/10/5
f 365/10/5 361/10/5 364/10/5
f 369/8/5 367/8/5 366/8/5
f 370/9/5 368/9/5 367/9/5
f 370/8/5 367/8/5 369/8/5
f 371/9/5 368/9/5 370/9/5
f 375/8/5 373/8/5 372/8/5
f 376/9/5 374/9/5 373/9/5
f 376/8/5 373/8/5 375/8/5
f 377/9/5 374/9/5 376/9/5
f 381/2/5 379/2/5 378/2/5
f 384/9/5 381/9/5 380/9/5
f 385/9/5 381/9/5 384/9/5
f 386/2/5 379/2/5 381/2/5
f 386/9/5 381/9/5 385/9/5
f 387/2/5 383/2/5 382/2/5
f 388/9/5 384/9/5 380/9/5
f 389/9/5 384/9/5 388/9/5
f 390/2/5 379/2/5 386/2/5
f 391/2/5 379/2/5 390/2/5
f 392/9/5 389/9/5 388/9/5
f 392/2/5 387/2/5 382/2/5
f 392/9/5 388/9/5 387/9/5
f 393/9/5 389/9/5 392/9/5
f 394/2/5 392/2/5 382/2/5
f 395/2/5 392/2/5 394/2/5
f 398/7/5 397/7/5 396/7/5
f 399/7/5 397/7/5 398/7/5
f 402/6/5 399/6/5 398/6/5
f 403/6/5 399/6/5 402/6/5
f 404/7/5 401/7/5 400/7/5
f 405/7/5 401/7/5 404/7/5
f 406/7/5 403/7/5 402/7/5
f 407/7/5 403/7/5 406/7/5
f 408/6/5 405/6/5 404/6/5
f 409/6/5 405/6/5 408/6/5
f 410/7/5 409/7/5 408/7/5
f 411/7/5 409/7/5 410/7/5
f 414/3/5 413/3/5 412/3/5
f 415/3/5 413/3/5 414/3/5
f 418/2/5 417/2/5 416/2/5
f 419/2/5 417/2/5 418/2/5
f 420/2/5 418/2/5 416/2/5
f 421/2/5 417/2/5 419/2/5
f 422/2/5 420/2/5 416/2/5
f 422/2/5 421/2/5 420/2/5
f 423/2/5 417/2/5 421/2/5
f 423/2/5 421/2/5 422/2/5
f 428/1/5 425/1/5 424/1/5
f 429/1/5 427/1/5 426/1/5
f 430/1/5 428/1/5 424/1/5
f 430/1/5 429/1/5 428/1/5
f 431/1/5 427/1/5 429/1/5
f 431/1/5 429/1/5 430/1/5
f 436/1/5 433/1/5 432/1/5
f 437/1/5 433/1/5 436/1/5
f 438/1/5 435/1/5 434/1/5
f 439/1/5 435/1/5 438/1/5
f 440/10/6 441/10/6 442/10/6
f 442/10/6 441/10/6 443/10/6
f 444/10/6 445/10/6 446/10/6
f 446/10/6 445/10/6 447/10/6
f 448/8/6 449/8/6 451/8/6
f 449/9/6 450/9/6 452/9/6
f 451/8/6 449/8/6 452/8/6
f 452/9/6 450/9/6 453/9/6
f 454/9/6 455/9/6 456/9/6
f 456/9/6 455/9/6 457/9/6
f 458/2/6 459/2/6 460/2/6
f 460/2/6 459/2/6 463/2/6
f 463/2/6 459/2/6 464/2/6
f 461/2/6 462/2/6 465/2/6
f 461/2/6 465/2/6 466/2/6
f 466/2/6 465/2/6 467/2/6
f 468/3/6 469/3/6 474/3/6
f 474/3/6 469/3/6 475/3/6
f 470/6/6 471/6/6 477/6/6
f 472/6/6 473/6/6 479/6/6
f 477/6/6 471/6/6 480/6/6
f 476/6/6 477/6/6 480/6/6
f 480/6/6 471/6/6 481/6/6
f 478/6/6 479/6/6 482/6/6
f 479/6/6 473/6/6 482/6/6
f 482/6/6 473/6/6 483/6/6
f 476/6/6 480/6/6 484/6/6
f 484/6/6 480/6/6 485/6/6
f 478/6/6 482/6/6 486/6/6
f 486/6/6 482/6/6 487/6/6
f 488/6/6 489/6/6 492/6/6
f 489/3/6 490/3/6 492/3/6
f 490/6/6 491/6/6 493/6/6
f 492/3/6 490/3/6 493/3/6
f 488/6/6 492/6/6 494/6/6
f 493/6/6 491/6/6 495/6/6
f 488/6/6 494/6/6 496/6/6
f 494/6/6 495/6/6 496/6/6
f 495/6/6 491/6/6 497/6/6
f 496/6/6 495/6/6 497/6/6
f 498/1/6 499/1/6 501/1/6
f 501/1/6 499/1/6 502/1/6
f 500/1/6 501/1/6 504/1/6
f 502/1/6 503/1/6 505/1/6
f 500/1/6 504/1/6 506/1/6
f 504/1/6 505/1/6 506/1/6
f 505/1/6 503/1/6 507/1/6
f 506/1/6 505/1/6 507/1/6
f 508/1/6 509/1/6 510/1/6
f 510/1/6 509/1/6 511/1/6
