# MagicaVoxel @ Ephtracy

# group
g Tony_Ethn3_Standing

# material
mtllib Tony_Ethn3_Standing.mtl
usemtl palette

# normals
vn -1 0 0
vn 1 0 0
vn 0 0 1
vn 0 0 -1
vn 0 -1 0
vn 0 1 0

# texcoords
vt 0.0214844 0.5
vt 0.0253906 0.5
vt 0.146484 0.5
vt 0.306641 0.5
vt 0.759766 0.5
vt 0.775391 0.5
vt 0.779297 0.5
vt 0.931641 0.5
vt 0.939453 0.5
vt 0.994141 0.5

# verts
v -4.5 18 2
v -4.5 18 -1
v -4.5 21 2
v -4.5 21 -1
v -4.5 34 2
v -4.5 34 -1
v -3.5 38 -0
v -3.5 38 -3
v -3.5 39 2
v -3.5 39 -0
v -3.5 41 2
v -3.5 41 -3
v -2.5 0 2
v -2.5 0 -1
v -2.5 1 2
v -2.5 1 1
v -2.5 2 2
v -2.5 2 1
v -2.5 2 -1
v -2.5 18 2
v -2.5 18 1
v -2.5 18 -1
v -2.5 20 2
v -2.5 20 1
v -2.5 20 -1
v -2.5 21 2
v -2.5 21 1
v -2.5 21 -0
v -2.5 21 -1
v -2.5 36 3
v -2.5 36 -2
v -2.5 38 -0
v -2.5 38 -2
v -2.5 39 3
v -2.5 39 2
v -2.5 39 -0
v -2.5 41 3
v -2.5 41 2
v -2.5 41 -2
v -2.5 42 2
v -2.5 42 -2
v -1.5 34 1
v -1.5 34 -0
v -1.5 35 1
v -1.5 35 -0
v -0.5 23 3
v -0.5 23 2
v -0.5 34 3
v -0.5 34 2
v -0.5 34 1
v -0.5 34 -0
v -0.5 34 -1
v -0.5 35 2
v -0.5 35 1
v -0.5 35 -0
v -0.5 35 -1
v -0.5 36 1
v -0.5 36 -0
v 0.5 0 2
v 0.5 0 -1
v 0.5 1 2
v 0.5 1 1
v 0.5 2 2
v 0.5 2 1
v 0.5 2 -1
v 0.5 18 2
v 0.5 18 1
v 0.5 18 -1
v 3.5 20 2
v 3.5 20 -1
v 3.5 21 2
v 3.5 21 1
v 3.5 21 -0
v 3.5 21 -1
v -3.5 20 2
v -3.5 20 -1
v -3.5 21 2
v -3.5 21 1
v -3.5 21 -0
v -3.5 21 -1
v -0.5 0 2
v -0.5 0 -1
v -0.5 1 2
v -0.5 1 1
v -0.5 2 2
v -0.5 2 1
v -0.5 2 -1
v -0.5 18 2
v -0.5 18 -1
v 0.5 23 3
v 0.5 23 2
v 0.5 34 3
v 0.5 34 2
v 0.5 34 1
v 0.5 34 -0
v 0.5 34 -1
v 0.5 35 2
v 0.5 35 1
v 0.5 35 -0
v 0.5 35 -1
v 0.5 36 1
v 0.5 36 -0
v 1.5 34 1
v 1.5 34 -0
v 1.5 35 1
v 1.5 35 -0
v 2.5 0 2
v 2.5 0 -1
v 2.5 1 2
v 2.5 1 1
v 2.5 2 2
v 2.5 2 1
v 2.5 2 -1
v 2.5 18 2
v 2.5 18 -1
v 2.5 20 2
v 2.5 20 -1
v 2.5 21 2
v 2.5 21 1
v 2.5 21 -0
v 2.5 21 -1
v 2.5 36 3
v 2.5 36 -2
v 2.5 38 -0
v 2.5 38 -2
v 2.5 39 3
v 2.5 39 2
v 2.5 39 -0
v 2.5 41 3
v 2.5 41 2
v 2.5 41 -2
v 2.5 42 2
v 2.5 42 -2
v 3.5 38 -0
v 3.5 38 -3
v 3.5 39 2
v 3.5 39 -0
v 3.5 41 2
v 3.5 41 -3
v 4.5 18 2
v 4.5 18 -1
v 4.5 21 2
v 4.5 21 -1
v 4.5 34 2
v 4.5 34 -1
v -2.5 36 3
v -2.5 39 3
v -2.5 41 3
v -1.5 38 3
v -1.5 39 3
v -1.5 40 3
v -0.5 23 3
v -0.5 34 3
v -0.5 38 3
v -0.5 39 3
v -0.5 40 3
v 0.5 23 3
v 0.5 34 3
v 0.5 38 3
v 0.5 39 3
v 0.5 40 3
v 1.5 38 3
v 1.5 39 3
v 1.5 40 3
v 2.5 36 3
v 2.5 39 3
v 2.5 41 3
v -4.5 18 2
v -4.5 21 2
v -4.5 34 2
v -3.5 20 2
v -3.5 21 2
v -3.5 31 2
v -3.5 39 2
v -3.5 41 2
v -2.5 0 2
v -2.5 1 2
v -2.5 2 2
v -2.5 18 2
v -2.5 20 2
v -2.5 21 2
v -2.5 22 2
v -2.5 31 2
v -2.5 39 2
v -2.5 41 2
v -2.5 42 2
v -1.5 2 2
v -1.5 21 2
v -0.5 0 2
v -0.5 1 2
v -0.5 2 2
v -0.5 18 2
v -0.5 23 2
v -0.5 34 2
v -0.5 35 2
v 0.5 0 2
v 0.5 1 2
v 0.5 2 2
v 0.5 18 2
v 0.5 23 2
v 0.5 34 2
v 0.5 35 2
v 1.5 2 2
v 1.5 18 2
v 2.5 0 2
v 2.5 1 2
v 2.5 2 2
v 2.5 18 2
v 2.5 20 2
v 2.5 21 2
v 2.5 22 2
v 2.5 31 2
v 2.5 39 2
v 2.5 41 2
v 2.5 42 2
v 3.5 20 2
v 3.5 21 2
v 3.5 31 2
v 3.5 39 2
v 3.5 41 2
v 4.5 18 2
v 4.5 21 2
v 4.5 34 2
v -2.5 1 1
v -2.5 2 1
v -1.5 2 1
v -1.5 34 1
v -1.5 35 1
v -0.5 1 1
v -0.5 2 1
v -0.5 34 1
v -0.5 35 1
v -0.5 36 1
v 0.5 1 1
v 0.5 2 1
v 0.5 34 1
v 0.5 35 1
v 0.5 36 1
v 1.5 2 1
v 1.5 34 1
v 1.5 35 1
v 2.5 1 1
v 2.5 2 1
v -3.5 38 -0
v -3.5 39 -0
v -2.5 38 -0
v -2.5 39 -0
v 2.5 38 -0
v 2.5 39 -0
v 3.5 38 -0
v 3.5 39 -0
v -1.5 34 -0
v -1.5 35 -0
v -0.5 34 -0
v -0.5 35 -0
v -0.5 36 -0
v 0.5 34 -0
v 0.5 35 -0
v 0.5 36 -0
v 1.5 34 -0
v 1.5 35 -0
v -4.5 18 -1
v -4.5 21 -1
v -4.5 34 -1
v -3.5 20 -1
v -3.5 21 -1
v -3.5 31 -1
v -2.5 0 -1
v -2.5 2 -1
v -2.5 18 -1
v -2.5 20 -1
v -2.5 21 -1
v -2.5 22 -1
v -2.5 31 -1
v -0.5 0 -1
v -0.5 2 -1
v -0.5 18 -1
v -0.5 34 -1
v -0.5 35 -1
v 0.5 0 -1
v 0.5 2 -1
v 0.5 18 -1
v 0.5 34 -1
v 0.5 35 -1
v 2.5 0 -1
v 2.5 2 -1
v 2.5 18 -1
v 2.5 20 -1
v 2.5 21 -1
v 2.5 22 -1
v 2.5 31 -1
v 3.5 20 -1
v 3.5 21 -1
v 3.5 31 -1
v 4.5 18 -1
v 4.5 21 -1
v 4.5 34 -1
v -2.5 36 -2
v -2.5 38 -2
v -2.5 41 -2
v -2.5 42 -2
v 2.5 36 -2
v 2.5 38 -2
v 2.5 41 -2
v 2.5 42 -2
v -3.5 38 -3
v -3.5 41 -3
v 3.5 38 -3
v 3.5 41 -3
v -2.5 0 2
v -0.5 0 2
v 0.5 0 2
v 2.5 0 2
v -2.5 0 -1
v -0.5 0 -1
v 0.5 0 -1
v 2.5 0 -1
v -2.5 2 2
v -1.5 2 2
v -0.5 2 2
v 0.5 2 2
v 1.5 2 2
v 2.5 2 2
v -2.5 2 1
v -1.5 2 1
v -0.5 2 1
v 0.5 2 1
v 1.5 2 1
v 2.5 2 1
v -4.5 18 2
v -2.5 18 2
v -0.5 18 2
v 0.5 18 2
v 2.5 18 2
v 4.5 18 2
v -2.5 18 1
v 0.5 18 1
v -4.5 18 -1
v -2.5 18 -1
v -0.5 18 -1
v 0.5 18 -1
v 2.5 18 -1
v 4.5 18 -1
v -3.5 21 2
v -2.5 21 2
v 2.5 21 2
v 3.5 21 2
v -3.5 21 1
v -2.5 21 1
v 2.5 21 1
v 3.5 21 1
v -3.5 21 -0
v -2.5 21 -0
v 2.5 21 -0
v 3.5 21 -0
v -3.5 21 -1
v -2.5 21 -1
v 2.5 21 -1
v 3.5 21 -1
v -0.5 23 3
v 0.5 23 3
v -0.5 23 2
v 0.5 23 2
v -2.5 36 3
v 2.5 36 3
v -0.5 36 1
v 0.5 36 1
v -0.5 36 -0
v 0.5 36 -0
v -2.5 36 -2
v 2.5 36 -2
v -3.5 38 -0
v -2.5 38 -0
v 2.5 38 -0
v 3.5 38 -0
v -2.5 38 -2
v 2.5 38 -2
v -3.5 38 -3
v 3.5 38 -3
v -3.5 39 2
v -2.5 39 2
v 2.5 39 2
v 3.5 39 2
v -3.5 39 -0
v -2.5 39 -0
v 2.5 39 -0
v 3.5 39 -0
v -2.5 1 2
v -0.5 1 2
v 0.5 1 2
v 2.5 1 2
v -2.5 1 1
v -0.5 1 1
v 0.5 1 1
v 2.5 1 1
v -3.5 20 2
v -2.5 20 2
v 2.5 20 2
v 3.5 20 2
v -2.5 20 1
v -3.5 20 -1
v -2.5 20 -1
v 2.5 20 -1
v 3.5 20 -1
v -0.5 34 3
v 0.5 34 3
v -4.5 34 2
v -0.5 34 2
v 0.5 34 2
v 4.5 34 2
v -1.5 34 1
v -0.5 34 1
v 0.5 34 1
v 1.5 34 1
v -1.5 34 -0
v -0.5 34 -0
v 0.5 34 -0
v 1.5 34 -0
v -4.5 34 -1
v -0.5 34 -1
v 0.5 34 -1
v 4.5 34 -1
v -0.5 35 2
v 0.5 35 2
v -1.5 35 1
v -0.5 35 1
v 0.5 35 1
v 1.5 35 1
v -1.5 35 -0
v -0.5 35 -0
v 0.5 35 -0
v 1.5 35 -0
v -0.5 35 -1
v 0.5 35 -1
v -2.5 41 3
v 2.5 41 3
v -3.5 41 2
v -2.5 41 2
v 2.5 41 2
v 3.5 41 2
v -2.5 41 -2
v 2.5 41 -2
v -3.5 41 -3
v 3.5 41 -3
v -2.5 42 2
v 2.5 42 2
v -2.5 42 -2
v 2.5 42 -2

# faces
f 3/2/1 2/2/1 1/2/1
f 4/2/1 2/2/1 3/2/1
f 5/6/1 4/6/1 3/6/1
f 6/6/1 4/6/1 5/6/1
f 10/1/1 8/1/1 7/1/1
f 11/1/1 10/1/1 9/1/1
f 12/1/1 8/1/1 10/1/1
f 12/1/1 10/1/1 11/1/1
f 15/10/1 14/10/1 13/10/1
f 16/10/1 14/10/1 15/10/1
f 18/10/1 14/10/1 16/10/1
f 19/10/1 14/10/1 18/10/1
f 20/8/1 18/8/1 17/8/1
f 21/9/1 19/9/1 18/9/1
f 21/8/1 18/8/1 20/8/1
f 22/9/1 19/9/1 21/9/1
f 26/8/1 24/8/1 23/8/1
f 27/9/1 25/9/1 24/9/1
f 27/8/1 24/8/1 26/8/1
f 28/9/1 25/9/1 27/9/1
f 29/9/1 25/9/1 28/9/1
f 32/2/1 31/2/1 30/2/1
f 33/2/1 31/2/1 32/2/1
f 34/2/1 32/2/1 30/2/1
f 35/2/1 32/2/1 34/2/1
f 36/2/1 32/2/1 35/2/1
f 37/1/1 35/1/1 34/1/1
f 38/1/1 35/1/1 37/1/1
f 40/1/1 39/1/1 38/1/1
f 41/1/1 39/1/1 40/1/1
f 44/6/1 43/6/1 42/6/1
f 45/6/1 43/6/1 44/6/1
f 48/3/1 47/3/1 46/3/1
f 49/3/1 47/3/1 48/3/1
f 53/3/1 50/3/1 49/3/1
f 54/3/1 50/3/1 53/3/1
f 55/6/1 52/6/1 51/6/1
f 56/6/1 52/6/1 55/6/1
f 57/2/1 55/2/1 54/2/1
f 58/2/1 55/2/1 57/2/1
f 61/10/1 60/10/1 59/10/1
f 62/10/1 60/10/1 61/10/1
f 64/10/1 60/10/1 62/10/1
f 65/10/1 60/10/1 64/10/1
f 66/8/1 64/8/1 63/8/1
f 67/9/1 65/9/1 64/9/1
f 67/8/1 64/8/1 66/8/1
f 68/9/1 65/9/1 67/9/1
f 71/2/1 70/2/1 69/2/1
f 72/2/1 70/2/1 71/2/1
f 73/2/1 70/2/1 72/2/1
f 74/2/1 70/2/1 73/2/1
f 75/2/2 76/2/2 77/2/2
f 77/2/2 76/2/2 78/2/2
f 78/2/2 76/2/2 79/2/2
f 79/2/2 76/2/2 80/2/2
f 81/10/2 82/10/2 83/10/2
f 83/10/2 82/10/2 84/10/2
f 84/10/2 82/10/2 86/10/2
f 86/10/2 82/10/2 87/10/2
f 85/9/2 86/9/2 88/9/2
f 86/9/2 87/9/2 88/9/2
f 88/9/2 87/9/2 89/9/2
f 90/3/2 91/3/2 92/3/2
f 92/3/2 91/3/2 93/3/2
f 93/3/2 94/3/2 97/3/2
f 97/3/2 94/3/2 98/3/2
f 95/6/2 96/6/2 99/6/2
f 99/6/2 96/6/2 100/6/2
f 98/2/2 99/2/2 101/2/2
f 101/2/2 99/2/2 102/2/2
f 103/6/2 104/6/2 105/6/2
f 105/6/2 104/6/2 106/6/2
f 107/10/2 108/10/2 109/10/2
f 109/10/2 108/10/2 110/10/2
f 110/10/2 108/10/2 112/10/2
f 112/10/2 108/10/2 113/10/2
f 111/9/2 112/9/2 114/9/2
f 112/9/2 113/9/2 114/9/2
f 114/9/2 113/9/2 115/9/2
f 116/9/2 117/9/2 118/9/2
f 118/9/2 117/9/2 119/9/2
f 119/9/2 117/9/2 120/9/2
f 120/9/2 117/9/2 121/9/2
f 122/2/2 123/2/2 124/2/2
f 124/2/2 123/2/2 125/2/2
f 122/2/2 124/2/2 126/2/2
f 126/2/2 124/2/2 127/2/2
f 127/2/2 124/2/2 128/2/2
f 126/1/2 127/1/2 129/1/2
f 129/1/2 127/1/2 130/1/2
f 130/1/2 131/1/2 132/1/2
f 132/1/2 131/1/2 133/1/2
f 134/1/2 135/1/2 137/1/2
f 136/1/2 137/1/2 138/1/2
f 137/1/2 135/1/2 139/1/2
f 138/1/2 137/1/2 139/1/2
f 140/2/2 141/2/2 142/2/2
f 142/2/2 141/2/2 143/2/2
f 142/6/2 143/6/2 144/6/2
f 144/6/2 143/6/2 145/6/2
f 149/2/3 147/2/3 146/2/3
f 150/1/3 148/1/3 147/1/3
f 150/2/3 147/2/3 149/2/3
f 151/1/3 148/1/3 150/1/3
f 154/2/3 149/2/3 146/2/3
f 154/10/3 150/10/3 149/10/3
f 155/2/3 151/2/3 150/2/3
f 155/10/3 150/10/3 154/10/3
f 156/1/3 148/1/3 151/1/3
f 156/2/3 151/2/3 155/2/3
f 157/3/3 153/3/3 152/3/3
f 158/3/3 153/3/3 157/3/3
f 159/2/3 155/2/3 154/2/3
f 159/2/3 154/2/3 146/2/3
f 160/1/3 156/1/3 155/1/3
f 160/2/3 155/2/3 159/2/3
f 161/1/3 148/1/3 156/1/3
f 161/1/3 156/1/3 160/1/3
f 162/10/3 160/10/3 159/10/3
f 162/2/3 159/2/3 146/2/3
f 163/2/3 161/2/3 160/2/3
f 163/10/3 160/10/3 162/10/3
f 164/1/3 148/1/3 161/1/3
f 164/2/3 161/2/3 163/2/3
f 165/2/3 163/2/3 162/2/3
f 165/2/3 162/2/3 146/2/3
f 166/1/3 164/1/3 163/1/3
f 166/2/3 163/2/3 165/2/3
f 167/1/3 148/1/3 164/1/3
f 167/1/3 164/1/3 166/1/3
f 171/2/3 169/2/3 168/2/3
f 172/6/3 170/6/3 169/6/3
f 172/2/3 169/2/3 171/2/3
f 173/6/3 170/6/3 172/6/3
f 179/2/3 171/2/3 168/2/3
f 180/2/3 171/2/3 179/2/3
f 181/7/3 173/7/3 172/7/3
f 182/7/3 173/7/3 181/7/3
f 183/6/3 170/6/3 173/6/3
f 183/7/3 173/7/3 182/7/3
f 184/1/3 175/1/3 174/1/3
f 185/1/3 175/1/3 184/1/3
f 187/8/3 180/8/3 179/8/3
f 187/8/3 179/8/3 178/8/3
f 187/8/3 181/8/3 180/8/3
f 188/5/3 182/5/3 181/5/3
f 188/8/3 181/8/3 187/8/3
f 189/10/3 177/10/3 176/10/3
f 190/10/3 177/10/3 189/10/3
f 191/9/3 188/9/3 187/9/3
f 192/9/3 188/9/3 191/9/3
f 193/6/3 183/6/3 182/6/3
f 194/6/3 170/6/3 183/6/3
f 194/6/3 183/6/3 193/6/3
f 199/9/3 188/9/3 192/9/3
f 200/6/3 193/6/3 182/6/3
f 201/3/3 195/3/3 194/3/3
f 202/3/3 195/3/3 201/3/3
f 203/8/3 199/8/3 198/8/3
f 204/9/3 188/9/3 199/9/3
f 204/8/3 199/8/3 203/8/3
f 205/10/3 197/10/3 196/10/3
f 206/10/3 197/10/3 205/10/3
f 207/9/3 204/9/3 203/9/3
f 208/9/3 188/9/3 204/9/3
f 208/9/3 204/9/3 207/9/3
f 209/9/3 188/9/3 208/9/3
f 210/5/3 182/5/3 188/5/3
f 210/9/3 188/9/3 209/9/3
f 211/6/3 200/6/3 182/6/3
f 211/5/3 182/5/3 210/5/3
f 211/6/3 201/6/3 200/6/3
f 212/6/3 201/6/3 211/6/3
f 214/1/3 186/1/3 185/1/3
f 215/1/3 186/1/3 214/1/3
f 216/2/3 209/2/3 208/2/3
f 217/7/3 212/7/3 211/7/3
f 217/7/3 211/7/3 210/7/3
f 218/6/3 201/6/3 212/6/3
f 218/7/3 212/7/3 217/7/3
f 219/1/3 214/1/3 213/1/3
f 220/1/3 214/1/3 219/1/3
f 221/2/3 217/2/3 216/2/3
f 221/2/3 216/2/3 208/2/3
f 222/6/3 218/6/3 217/6/3
f 222/2/3 217/2/3 221/2/3
f 223/6/3 201/6/3 218/6/3
f 223/6/3 218/6/3 222/6/3
f 226/10/3 225/10/3 224/10/3
f 229/10/3 226/10/3 224/10/3
f 230/10/3 226/10/3 229/10/3
f 231/6/3 228/6/3 227/6/3
f 232/6/3 228/6/3 231/6/3
f 237/2/3 233/2/3 232/2/3
f 238/2/3 233/2/3 237/2/3
f 239/10/3 235/10/3 234/10/3
f 240/6/3 237/6/3 236/6/3
f 241/6/3 237/6/3 240/6/3
f 242/10/3 239/10/3 234/10/3
f 243/10/3 239/10/3 242/10/3
f 246/1/3 245/1/3 244/1/3
f 247/1/3 245/1/3 246/1/3
f 250/1/3 249/1/3 248/1/3
f 251/1/3 249/1/3 250/1/3
f 252/6/4 253/6/4 254/6/4
f 254/6/4 253/6/4 255/6/4
f 255/2/4 256/2/4 258/2/4
f 258/2/4 256/2/4 259/2/4
f 257/6/4 258/6/4 260/6/4
f 260/6/4 258/6/4 261/6/4
f 262/2/4 263/2/4 265/2/4
f 263/6/4 264/6/4 266/6/4
f 265/2/4 263/2/4 266/2/4
f 266/6/4 264/6/4 267/6/4
f 262/2/4 265/2/4 270/2/4
f 270/2/4 265/2/4 271/2/4
f 266/7/4 267/7/4 272/7/4
f 272/7/4 267/7/4 273/7/4
f 267/6/4 264/6/4 274/6/4
f 273/7/4 267/7/4 274/7/4
f 268/10/4 269/10/4 275/10/4
f 270/9/4 271/9/4 276/9/4
f 275/10/4 269/10/4 276/10/4
f 269/9/4 270/9/4 276/9/4
f 271/9/4 272/9/4 276/9/4
f 276/9/4 272/9/4 277/9/4
f 274/6/4 264/6/4 278/6/4
f 273/6/4 274/6/4 278/6/4
f 277/9/4 272/9/4 282/9/4
f 278/6/4 279/6/4 283/6/4
f 273/6/4 278/6/4 283/6/4
f 283/6/4 279/6/4 284/6/4
f 280/10/4 281/10/4 285/10/4
f 281/9/4 282/9/4 286/9/4
f 285/10/4 281/10/4 286/10/4
f 282/9/4 272/9/4 287/9/4
f 286/9/4 282/9/4 287/9/4
f 287/9/4 272/9/4 288/9/4
f 272/10/4 273/10/4 289/10/4
f 288/9/4 272/9/4 289/9/4
f 273/6/4 283/6/4 290/6/4
f 289/10/4 273/10/4 290/10/4
f 290/6/4 283/6/4 291/6/4
f 287/2/4 288/2/4 292/2/4
f 290/7/4 291/7/4 293/7/4
f 289/7/4 290/7/4 293/7/4
f 291/6/4 283/6/4 294/6/4
f 293/7/4 291/7/4 294/7/4
f 292/2/4 293/2/4 295/2/4
f 287/2/4 292/2/4 295/2/4
f 293/6/4 294/6/4 296/6/4
f 295/2/4 293/2/4 296/2/4
f 294/6/4 283/6/4 297/6/4
f 296/6/4 294/6/4 297/6/4
f 298/2/4 299/2/4 302/2/4
f 302/2/4 299/2/4 303/2/4
f 300/1/4 301/1/4 304/1/4
f 304/1/4 301/1/4 305/1/4
f 306/1/4 307/1/4 308/1/4
f 308/1/4 307/1/4 309/1/4
f 314/10/5 311/10/5 310/10/5
f 315/10/5 311/10/5 314/10/5
f 316/10/5 313/10/5 312/10/5
f 317/10/5 313/10/5 316/10/5
f 324/8/5 319/8/5 318/8/5
f 325/9/5 320/9/5 319/9/5
f 325/8/5 319/8/5 324/8/5
f 326/9/5 320/9/5 325/9/5
f 327/8/5 322/8/5 321/8/5
f 328/9/5 323/9/5 322/9/5
f 328/8/5 322/8/5 327/8/5
f 329/9/5 323/9/5 328/9/5
f 336/2/5 331/2/5 330/2/5
f 337/9/5 333/9/5 332/9/5
f 338/2/5 336/2/5 330/2/5
f 339/2/5 336/2/5 338/2/5
f 340/9/5 337/9/5 332/9/5
f 341/9/5 337/9/5 340/9/5
f 342/2/5 335/2/5 334/2/5
f 343/2/5 335/2/5 342/2/5
f 348/7/5 345/7/5 344/7/5
f 349/7/5 345/7/5 348/7/5
f 350/7/5 347/7/5 346/7/5
f 351/7/5 347/7/5 350/7/5
f 352/6/5 349/6/5 348/6/5
f 353/6/5 349/6/5 352/6/5
f 354/6/5 351/6/5 350/6/5
f 355/6/5 351/6/5 354/6/5
f 356/7/5 353/7/5 352/7/5
f 357/7/5 353/7/5 356/7/5
f 358/7/5 355/7/5 354/7/5
f 359/7/5 355/7/5 358/7/5
f 362/3/5 361/3/5 360/3/5
f 363/3/5 361/3/5 362/3/5
f 366/2/5 365/2/5 364/2/5
f 367/2/5 365/2/5 366/2/5
f 368/2/5 366/2/5 364/2/5
f 369/2/5 365/2/5 367/2/5
f 370/2/5 368/2/5 364/2/5
f 370/2/5 369/2/5 368/2/5
f 371/2/5 365/2/5 369/2/5
f 371/2/5 369/2/5 370/2/5
f 376/1/5 373/1/5 372/1/5
f 377/1/5 375/1/5 374/1/5
f 378/1/5 376/1/5 372/1/5
f 378/1/5 377/1/5 376/1/5
f 379/1/5 375/1/5 377/1/5
f 379/1/5 377/1/5 378/1/5
f 384/1/5 381/1/5 380/1/5
f 385/1/5 381/1/5 384/1/5
f 386/1/5 383/1/5 382/1/5
f 387/1/5 383/1/5 386/1/5
f 388/10/6 389/10/6 392/10/6
f 392/10/6 389/10/6 393/10/6
f 390/10/6 391/10/6 394/10/6
f 394/10/6 391/10/6 395/10/6
f 396/2/6 397/2/6 400/2/6
f 396/2/6 400/2/6 401/2/6
f 401/2/6 400/2/6 402/2/6
f 398/2/6 399/2/6 403/2/6
f 403/2/6 399/2/6 404/2/6
f 405/3/6 406/3/6 408/3/6
f 408/3/6 406/3/6 409/3/6
f 407/6/6 408/6/6 411/6/6
f 411/6/6 408/6/6 412/6/6
f 409/6/6 410/6/6 413/6/6
f 413/6/6 410/6/6 414/6/6
f 407/6/6 411/6/6 415/6/6
f 414/6/6 410/6/6 418/6/6
f 415/6/6 416/6/6 419/6/6
f 407/6/6 415/6/6 419/6/6
f 419/6/6 416/6/6 420/6/6
f 417/6/6 418/6/6 421/6/6
f 418/6/6 410/6/6 422/6/6
f 421/6/6 418/6/6 422/6/6
f 423/3/6 424/3/6 426/3/6
f 426/3/6 424/3/6 427/3/6
f 425/6/6 426/6/6 429/6/6
f 429/6/6 426/6/6 430/6/6
f 427/6/6 428/6/6 431/6/6
f 431/6/6 428/6/6 432/6/6
f 430/6/6 431/6/6 433/6/6
f 433/6/6 431/6/6 434/6/6
f 435/1/6 436/1/6 438/1/6
f 438/1/6 436/1/6 439/1/6
f 437/1/6 438/1/6 441/1/6
f 439/1/6 440/1/6 442/1/6
f 437/1/6 441/1/6 443/1/6
f 441/1/6 442/1/6 443/1/6
f 442/1/6 440/1/6 444/1/6
f 443/1/6 442/1/6 444/1/6
f 445/1/6 446/1/6 447/1/6
f 447/1/6 446/1/6 448/1/6
